<?xml version="1.0" encoding="utf-8"?>
<svg xmlns="http://www.w3.org/2000/svg" viewBox="0 0 50 50" fill="#000000"><path d="M 41.5 2 C 38.466667 2 36 4.4666667 36 7.5 C 36 8.2713881 36.161425 9.0050272 36.449219 9.671875 C 35.74978 9.2725034 34.956736 9.0237128 34.103516 9.0058594 A 1.0001 1.0001 0 0 0 34 9 L 22.5 9 L 16 9 C 14.354545 9 13 10.354545 13 12 C 13 13.645455 14.354545 15 16 15 L 22.300781 15 L 26.117188 15 L 21.28125 18.814453 C 19.938412 19.707247 19 21.255358 19 23 C 19 23.64718 19.124681 24.265893 19.351562 24.833984 L 14.392578 29.792969 L 9.9921875 34.193359 C 9.2682704 34.917277 8.9492187 35.886124 8.9492188 36.824219 C 8.9492188 37.415256 9.0983119 38.012786 9.3945312 38.541016 C 9.2669756 38.515251 9.1348576 38.5 9 38.5 C 7.9 38.5 7 39.4 7 40.5 C 7 41.6 7.9 42.5 9 42.5 C 9.5 42.5 10.000781 42.3 10.300781 42 C 10.000781 42.3 9.9003906 42.699219 9.9003906 43.199219 C 9.9003906 44.299219 10.800391 45.199219 11.900391 45.199219 C 13.000391 45.199219 13.900391 44.299219 13.900391 43.199219 C 13.900391 42.099219 13.000391 41.199219 11.900391 41.199219 C 11.400391 41.199219 10.899609 41.399219 10.599609 41.699219 C 10.899609 41.399219 11 41 11 40.5 C 11 40.273647 10.952932 40.058785 10.882812 39.855469 C 12.267872 40.456315 13.851649 40.04745 14.865234 39.146484 A 1.0001 1.0001 0 0 0 14.90625 39.107422 L 18.607422 35.40625 L 20.306641 33.707031 L 24.34375 29.669922 L 29 33.474609 L 29 40.5 C 29 42.42381 30.57619 44 32.5 44 C 34.42381 44 36 42.42381 36 40.5 L 36 31.599609 C 36 30.266276 35.38937 29.044404 34.451172 28.240234 A 1.0001 1.0001 0 0 0 34.427734 28.222656 L 29.664062 24.376953 L 30.150391 23.958984 A 1.0001 1.0001 0 0 0 30.320312 23.785156 A 1.0001 1.0001 0 0 0 30.359375 23.751953 L 31.15625 23.054688 L 37.255859 17.753906 A 1.0001 1.0001 0 0 0 37.257812 17.751953 C 38.262052 16.873244 39 15.533333 39 14 C 39 13.362295 38.867659 12.755991 38.646484 12.193359 C 39.479713 12.701912 40.454186 13 41.5 13 C 44.533333 13 47 10.533333 47 7.5 C 47 4.4666667 44.533333 2 41.5 2 z M 41.5 4 C 43.466667 4 45 5.5333333 45 7.5 C 45 9.4666667 43.466667 11 41.5 11 C 39.533333 11 38 9.4666667 38 7.5 C 38 5.5333333 39.533333 4 41.5 4 z M 16 11 L 22.5 11 L 34 11 C 35.654545 11 37 12.345455 37 14 C 37 14.866667 36.537167 15.726756 35.941406 16.248047 L 29.84375 21.544922 A 1.0001 1.0001 0 0 0 29.841797 21.546875 L 29.041016 22.248047 A 1.0001 1.0001 0 0 0 28.892578 22.404297 A 1.0001 1.0001 0 0 0 28.849609 22.441406 L 27.449219 23.640625 A 1.0001 1.0001 0 0 0 27.472656 25.177734 L 33.148438 29.759766 C 33.610238 30.155598 34 30.932943 34 31.599609 L 34 40.5 C 34 41.37619 33.37619 42 32.5 42 C 31.62381 42 31 41.37619 31 40.5 L 31 33 A 1.0001 1.0001 0 0 0 30.632812 32.226562 L 22.433594 25.525391 A 1.0001 1.0001 0 0 0 22.335938 25.457031 C 21.510545 24.931779 21 24.066667 21 23 C 21 21.980952 21.625337 20.96019 22.4375 20.443359 A 1.0001 1.0001 0 0 0 22.519531 20.384766 L 29.529297 14.855469 A 1.0001 1.0001 0 0 0 29.939453 13.623047 A 1.0001 1.0001 0 0 0 29.9375 13.617188 A 1.0001 1.0001 0 0 0 29.935547 13.613281 A 1.0001 1.0001 0 0 0 29.894531 13.527344 A 1.0001 1.0001 0 0 0 29.884766 13.507812 A 1.0001 1.0001 0 0 0 29.871094 13.486328 A 1.0001 1.0001 0 0 0 29.769531 13.34375 A 1.0001 1.0001 0 0 0 28.998047 12.992188 A 1.0001 1.0001 0 0 0 28.886719 13 L 22.300781 13 L 16 13 C 15.445455 13 15 12.554545 15 12 C 15 11.445455 15.445455 11 16 11 z M 20.490234 26.523438 C 20.701918 26.729037 20.930623 26.917056 21.177734 27.082031 L 22.787109 28.398438 L 18.892578 32.292969 L 17.193359 33.992188 L 13.53125 37.654297 C 12.950537 38.168112 12.00361 38.374048 11.333984 37.826172 A 1.0001 1.0001 0 0 0 11.324219 37.818359 C 11.125774 37.659603 10.949219 37.286124 10.949219 36.824219 C 10.949219 36.362314 11.130167 35.883505 11.40625 35.607422 L 15.806641 31.207031 L 20.490234 26.523438 z M 6 35.800781 A 2 2 0 0 0 6 39.800781 A 2 2 0 0 0 6 35.800781 z M 29 44 A 2 2 0 0 0 29 48 A 2 2 0 0 0 29 44 z M 33 44 A 2 2 0 0 0 33 48 A 2 2 0 0 0 33 44 z M 37 44 A 2 2 0 0 0 37 48 A 2 2 0 0 0 37 44 z" fill="#000000"/></svg>
