<?xml version="1.0" encoding="utf-8"?>
<svg xmlns="http://www.w3.org/2000/svg" viewBox="0 0 50 50" fill="#000000"><path d="M 12.550781 5.019531 C 10.878906 5.078125 9.308594 5.734375 8.507813 7.125 C 7.707031 8.511719 7.921875 10.199219 8.707031 11.675781 C 9.492188 13.15625 10.851563 14.523438 12.613281 15.546875 L 12.617188 15.546875 C 14.28125 16.503906 16.03125 16.992188 17.621094 16.988281 C 18.859375 16.988281 20.039063 16.675781 20.9375 15.992188 L 22.96875 17.449219 L 17.253906 23.992188 L 17.246094 24.003906 C 16.3125 25.144531 15.878906 26.601563 16.03125 28.0625 C 16.1875 29.527344 16.917969 30.859375 18.066406 31.78125 L 18.070313 31.785156 L 19.960938 33.269531 L 13.679688 41.097656 C 12.640625 42.371094 12.828125 44.277344 14.097656 45.316406 C 14.652344 45.773438 15.332031 46 16 46 C 16.867188 46 17.730469 45.621094 18.316406 44.90625 L 18.324219 44.902344 L 23.671875 38.234375 L 23.011719 44.722656 L 23.011719 44.730469 C 22.863281 46.367188 24.089844 47.839844 25.730469 47.988281 L 25.734375 47.988281 C 25.828125 48 25.917969 48 26 48 C 27.53125 48 28.847656 46.820313 28.984375 45.269531 L 29.980469 35 C 29.988281 35 29.992188 35 30 35 C 31.644531 35 33 33.644531 33 32 L 33 21.046875 C 33 18.800781 31.917969 16.683594 30.097656 15.371094 L 18.761719 7.050781 L 18.753906 7.046875 C 18.738281 7.035156 18.714844 7.027344 18.699219 7.015625 C 18.695313 7.011719 18.691406 7.011719 18.691406 7.007813 C 18.433594 6.828125 18.15625 6.648438 17.855469 6.472656 C 16.089844 5.453125 14.226563 4.960938 12.550781 5.019531 Z M 12.625 7.019531 C 13.289063 6.996094 14.0625 7.152344 14.859375 7.398438 C 14.757813 7.5 14.65625 7.601563 14.566406 7.726563 C 13.964844 8.558594 13.859375 9.609375 14.191406 10.515625 C 14.257813 10.699219 14.339844 10.871094 14.4375 11.039063 C 14.4375 11.039063 14.441406 11.042969 14.441406 11.042969 C 14.542969 11.207031 14.660156 11.367188 14.796875 11.511719 C 14.929688 11.65625 15.078125 11.792969 15.246094 11.910156 L 15.246094 11.914063 L 19.152344 14.714844 C 18.734375 14.882813 18.226563 14.988281 17.621094 14.988281 C 16.445313 14.988281 15.003906 14.613281 13.613281 13.8125 C 12.144531 12.960938 11.042969 11.816406 10.472656 10.738281 C 9.90625 9.664063 9.867188 8.761719 10.238281 8.125 C 10.605469 7.484375 11.40625 7.0625 12.625 7.019531 Z M 36 8 C 33.25 8 31 10.25 31 13 C 31 15.75 33.25 18 36 18 C 38.75 18 41 15.75 41 13 C 41 10.25 38.75 8 36 8 Z M 16.828125 8.492188 C 17.074219 8.449219 17.335938 8.503906 17.5625 8.65625 C 17.570313 8.664063 17.578125 8.664063 17.585938 8.671875 L 28.921875 16.988281 L 28.925781 16.992188 C 30.222656 17.929688 31 19.445313 31 21.046875 L 31 32 C 31 32.414063 30.75 32.769531 30.390625 32.921875 C 30.269531 32.972656 30.136719 33 30 33 C 29.445313 33 29 32.554688 29 32 L 29 21.800781 L 22.3125 29.96875 L 23.105469 30.605469 L 28.03125 34.546875 C 28.027344 34.570313 28.011719 34.589844 28.007813 34.617188 L 28.003906 34.628906 L 26.996094 45.089844 C 26.945313 45.617188 26.515625 46 26 46 C 25.960938 46 25.929688 46 25.90625 45.996094 C 25.34375 45.941406 24.953125 45.46875 25.003906 44.910156 L 25.964844 35.445313 L 25.929688 35.421875 L 23.246094 33.308594 L 19.316406 30.21875 C 18.574219 29.625 18.121094 28.800781 18.019531 27.855469 C 17.921875 26.910156 18.191406 26.011719 18.789063 25.277344 L 25.921875 17.105469 L 22.285156 14.5 L 21.433594 13.886719 L 16.414063 10.292969 L 16.410156 10.289063 C 16.070313 10.042969 15.933594 9.636719 16.019531 9.257813 C 16.050781 9.132813 16.105469 9.007813 16.1875 8.894531 C 16.269531 8.78125 16.371094 8.691406 16.480469 8.625 C 16.585938 8.554688 16.707031 8.511719 16.828125 8.492188 Z M 36 10 C 37.667969 10 39 11.332031 39 13 C 39 14.667969 37.667969 16 36 16 C 34.332031 16 33 14.667969 33 13 C 33 11.332031 34.332031 10 36 10 Z M 27 27.402344 L 27 31.15625 L 25.140625 29.671875 Z M 21.53125 34.503906 L 23.105469 35.742188 L 16.777344 43.632813 C 16.570313 43.878906 16.289063 44 16 44 C 15.773438 44 15.554688 43.929688 15.367188 43.773438 C 14.929688 43.414063 14.871094 42.800781 15.230469 42.363281 L 15.234375 42.359375 Z" fill="#000000"/></svg>
