<?xml version="1.0" encoding="utf-8"?>
<svg xmlns="http://www.w3.org/2000/svg" viewBox="0 0 50 50" fill="#000000"><path d="M 27.5 3 C 25.161463 3 23.283565 4.8303811 23.078125 7.1171875 A 1.0001 1.0001 0 0 0 23 7.5 C 23 9.9730931 25.025841 12 27.5 12 C 29.974159 12 32 9.9730931 32 7.5 C 32 5.0269069 29.974159 3 27.5 3 z M 37.181641 4.0078125 C 36.917653 3.9930024 36.648311 4.0193233 36.378906 4.0957031 C 35.301761 4.4010878 34.624967 5.3366384 34.287109 6.3730469 C 33.949251 7.4094553 33.902975 8.628204 34.171875 9.8769531 C 34.440764 11.125652 34.977005 12.195147 35.722656 12.958984 C 36.214294 13.462613 36.850766 13.839383 37.535156 13.955078 L 38.585938 19.074219 C 38.544729 19.081772 38.504123 19.080325 38.462891 19.089844 L 38.5625 19.072266 L 32.5 19.84375 L 26.738281 14.412109 C 26.61108 14.273318 25.398015 13 23.498047 13 C 22.620726 13 21.793456 13.0796 21.021484 13.480469 C 20.249513 13.88134 19.63611 14.575582 19.121094 15.523438 C 17.998491 17.590046 17.265496 19.623689 16.806641 21.167969 C 16.577213 21.940109 16.416099 22.589968 16.310547 23.060547 C 16.204995 23.531126 16.171558 23.690854 16.142578 23.908203 C 16.003815 24.914356 15.961459 25.987073 16.058594 27.087891 L 16.056641 27.083984 C 16.185322 28.617434 16.58551 30.216878 17.373047 31.814453 C 17.376547 31.823153 17.379046 31.831653 17.384766 31.845703 C 17.402106 31.888503 17.427778 31.952487 17.460938 32.035156 C 17.527268 32.200494 17.620996 32.438624 17.734375 32.722656 C 17.961133 33.290721 18.263131 34.045992 18.564453 34.802734 C 19.045481 36.010792 19.353095 36.780654 19.527344 37.21875 L 13.884766 42.878906 C 12.715087 44.035243 12.715612 45.954046 13.880859 47.113281 C 14.46306 47.706128 15.240585 48 15.994141 48 C 16.751995 48 17.536032 47.705482 18.119141 47.107422 L 25.101562 40.117188 L 25.09375 40.123047 C 25.86546 39.364222 26.15468 38.244355 25.869141 37.207031 L 25.869141 37.203125 L 25.462891 34.734375 L 29.314453 36.777344 L 31.072266 44.644531 C 31.371202 46.044817 32.625652 47 34 47 C 34.235238 47 34.444615 46.969324 34.638672 46.927734 A 1.0001 1.0001 0 0 0 34.646484 46.925781 C 36.25059 46.569313 37.284705 44.960763 36.925781 43.361328 L 34.927734 34.404297 C 34.792713 33.775697 34.454414 33.216088 33.990234 32.796875 A 1.0001 1.0001 0 0 0 33.826172 32.675781 L 25.658203 27.888672 A 1.0001 1.0001 0 0 0 25.259766 27.751953 C 25.381137 26.692342 25.557551 25.590413 25.808594 24.669922 C 25.980159 24.040851 26.195383 23.74264 26.402344 23.373047 L 30.455078 25.654297 A 1.0001 1.0001 0 0 0 30.466797 25.662109 C 30.877989 25.885526 31.345969 26 31.814453 26 C 32.076441 26 31.97318 25.990502 32.042969 25.982422 C 32.112759 25.974322 32.204517 25.963299 32.316406 25.949219 C 32.540185 25.921059 32.846041 25.881639 33.208984 25.833984 C 33.934872 25.738674 34.885219 25.61119 35.830078 25.484375 C 37.719797 25.230745 39.587891 24.976562 39.587891 24.976562 A 1.0001 1.0001 0 0 0 39.634766 24.96875 L 39.683594 24.960938 A 1.0001 1.0001 0 0 0 39.740234 24.949219 C 41.319347 24.56318 42.282948 22.941228 41.925781 21.355469 C 41.756092 20.605373 41.309501 19.98267 40.726562 19.566406 L 39.476562 13.472656 C 40.068466 13.027605 40.475856 12.356032 40.712891 11.628906 C 41.050749 10.592498 41.097025 9.3737491 40.828125 8.125 C 40.559236 6.8763007 40.022995 5.8068064 39.277344 5.0429688 C 38.718106 4.4700905 37.973605 4.0522429 37.181641 4.0078125 z M 27.5 5 C 28.893841 5 30 6.1070931 30 7.5 C 30 8.8929069 28.893841 10 27.5 10 C 26.106159 10 25 8.8929069 25 7.5 C 25 6.1070931 26.106159 5 27.5 5 z M 37.103516 6 C 37.297081 6.0102553 37.536254 6.1224567 37.845703 6.4394531 C 38.258302 6.8621155 38.672936 7.6156212 38.873047 8.5449219 C 39.073147 9.4741727 39.018395 10.376222 38.8125 11.007812 C 38.606608 11.639404 38.297027 11.919807 38.076172 11.982422 C 37.855792 12.044902 37.566896 11.983209 37.154297 11.560547 C 36.741701 11.137884 36.327064 10.384379 36.126953 9.4550781 C 35.926853 8.5258273 35.981608 7.623779 36.1875 6.9921875 C 36.393392 6.360596 36.702973 6.0821466 36.923828 6.0195312 C 36.978923 6.003911 37.038994 5.9965816 37.103516 6 z M 11 12 A 2 2 0 0 0 9 14 A 2 2 0 0 0 11 16 A 2 2 0 0 0 13 14 A 2 2 0 0 0 11 12 z M 23.498047 15 C 24.491825 15 25.318359 15.818359 25.318359 15.818359 A 1.0001 1.0001 0 0 0 25.365234 15.867188 L 31.472656 21.623047 A 1.0001 1.0001 0 0 0 32.285156 21.888672 L 38.814453 21.056641 A 1.0001 1.0001 0 0 0 38.912109 21.039062 C 39.368128 20.933792 39.841051 21.206491 39.974609 21.796875 C 40.097328 22.346701 39.766226 22.873599 39.273438 23 C 39.227758 23.0062 37.428706 23.251741 35.564453 23.501953 C 34.620562 23.628638 33.671394 23.754791 32.949219 23.849609 C 32.588131 23.897019 32.283354 23.937549 32.066406 23.964844 C 31.957933 23.978494 31.870607 23.989344 31.8125 23.996094 C 31.805882 23.996857 31.796109 23.995559 31.787109 23.996094 C 31.644683 23.992296 31.532945 23.964649 31.421875 23.904297 L 26.490234 21.128906 A 1.0001 1.0001 0 0 0 25.292969 21.292969 C 24.557266 22.028671 24.181745 23.032168 23.878906 24.142578 C 23.576067 25.252988 23.384451 26.48135 23.255859 27.638672 C 22.998631 29.953318 23 32 23 32 A 1.0001 1.0001 0 0 0 23.013672 32.162109 L 23.894531 37.53125 A 1.0001 1.0001 0 0 0 23.933594 37.685547 C 24.05413 38.047155 23.959954 38.433204 23.691406 38.697266 A 1.0001 1.0001 0 0 0 23.685547 38.703125 L 16.695312 45.703125 A 1.0001 1.0001 0 0 0 16.6875 45.710938 C 16.490643 45.912849 16.254287 46 15.994141 46 C 15.733995 46 15.499469 45.91318 15.304688 45.712891 A 1.0001 1.0001 0 0 0 15.291016 45.699219 C 14.884918 45.297753 14.884918 44.702247 15.291016 44.300781 A 1.0001 1.0001 0 0 0 15.294922 44.296875 L 21.40625 38.166016 A 1.0001 1.0001 0 0 0 21.626953 37.089844 C 21.626953 37.089844 21.024731 35.578469 20.421875 34.064453 C 20.120447 33.307445 19.818977 32.549592 19.591797 31.980469 C 19.478207 31.695907 19.383573 31.458451 19.316406 31.291016 C 19.282826 31.207296 19.257291 31.140673 19.238281 31.09375 C 19.228781 31.07029 19.221334 31.052839 19.214844 31.037109 C 19.211644 31.029209 19.207645 31.022239 19.203125 31.011719 C 19.200925 31.006419 19.199759 31.000258 19.193359 30.986328 C 19.190559 30.980128 19.185764 30.971238 19.177734 30.955078 L 19.175781 30.951172 C 18.496425 29.580055 18.161191 28.231736 18.050781 26.916016 A 1.0001 1.0001 0 0 0 18.050781 26.912109 C 17.968091 25.974954 18.00437 25.049973 18.125 24.177734 A 1.0001 1.0001 0 0 0 18.125 24.171875 C 18.10602 24.314224 18.16508 23.928874 18.261719 23.498047 C 18.358349 23.06722 18.509787 22.459313 18.724609 21.736328 C 19.154254 20.290358 19.843556 18.378953 20.876953 16.476562 C 21.276937 15.740417 21.600331 15.433988 21.943359 15.255859 C 22.286486 15.077749 22.750367 15 23.498047 15 z M 25.080078 29.869141 L 32.673828 34.320312 C 32.82713 34.469988 32.930923 34.629926 32.972656 34.824219 A 1.0001 1.0001 0 0 0 32.974609 34.832031 L 34.974609 43.796875 A 1.0001 1.0001 0 0 0 34.974609 43.798828 C 35.094151 44.32979 34.768276 44.848097 34.214844 44.972656 C 34.214844 44.972656 34.212891 44.974609 34.212891 44.974609 C 34.129833 44.991655 34.043153 45 34 45 C 33.534348 45 33.128454 44.700266 33.027344 44.226562 A 1.0001 1.0001 0 0 0 33.025391 44.21875 L 31.166016 35.890625 A 1.0001 1.0001 0 0 0 30.658203 35.224609 L 25.822266 32.660156 A 1.0004047 1.0004047 0 0 0 25.107422 32.576172 L 25.003906 31.941406 C 25.003958 31.905664 25.011305 31.044415 25.080078 29.869141 z" fill="#000000"/></svg>
