<?xml version="1.0" encoding="utf-8"?>
<svg xmlns="http://www.w3.org/2000/svg" viewBox="0 0 50 50" fill="#000000"><path d="M 32.5 2 C 30.579061 2 29 3.5790614 29 5.5 C 29 7.4209386 30.579061 9 32.5 9 C 34.420939 9 36 7.4209386 36 5.5 C 36 3.5790614 34.420939 2 32.5 2 z M 21 3 C 18.249576 3 16 5.2495759 16 8 C 16 10.750424 18.249576 13 21 13 C 23.750424 13 26 10.750424 26 8 C 26 5.2495759 23.750424 3 21 3 z M 32.5 4 C 33.337061 4 34 4.6629386 34 5.5 C 34 6.3370614 33.337061 7 32.5 7 C 31.662939 7 31 6.3370614 31 5.5 C 31 4.6629386 31.662939 4 32.5 4 z M 21 5 C 22.671576 5 24 6.3284241 24 8 C 24 9.6715759 22.671576 11 21 11 C 19.328424 11 18 9.6715759 18 8 C 18 6.3284241 19.328424 5 21 5 z M 40.099609 7.0078125 C 39.520433 6.9856187 38.929676 7.1280764 38.40625 7.4550781 L 30.75 12.240234 L 15 16.96875 L 15 12 C 15 10.35503 13.64497 9 12 9 C 10.35503 9 9 10.35503 9 12 L 9 21 C 9 21.950009 9.4516814 22.839249 10.205078 23.404297 L 10.208984 23.408203 L 10.212891 23.410156 C 10.733057 23.79245 11.359603 24 12 24 C 12.284618 24 12.578963 23.95974 12.873047 23.867188 L 12.875 23.867188 L 19.798828 21.791016 C 19.881658 22.065572 19.999479 22.299942 20.039062 22.619141 C 20.235271 24.202759 20.118902 25.681887 19.5 26.826172 C 18.537157 28.599881 15.885297 33.561079 15.707031 33.894531 L 8.5058594 38.394531 C 7.2142879 39.202644 6.5966227 40.883907 7.3066406 42.322266 C 7.830963 43.387281 8.9088864 44 10.003906 44 C 10.544893 44 11.098777 43.852159 11.591797 43.541016 L 19.566406 38.558594 L 19.603516 38.529297 C 19.710202 38.448097 19.898921 38.305375 20.037109 38.195312 L 20.070312 38.171875 L 24.369141 34.144531 L 24.824219 36.421875 L 20.457031 43.412109 C 19.586221 44.806001 20.018043 46.671376 21.410156 47.542969 C 21.901698 47.851681 22.455107 48 22.996094 48 C 23.994528 48 24.978029 47.49568 25.542969 46.589844 L 30.539062 38.595703 C 30.951186 37.946572 31.092205 37.163153 30.941406 36.414062 L 29.289062 28.144531 C 29.343345 27.989945 29.411439 27.841895 29.457031 27.683594 C 29.961681 25.95695 30.266812 23.809394 29.962891 21.376953 L 29.962891 21.375 C 29.856343 20.530935 29.592869 19.729775 29.349609 18.923828 L 32.859375 17.873047 L 32.863281 17.871094 C 33.118207 17.795104 33.363036 17.68624 33.589844 17.542969 L 33.595703 17.539062 L 41.589844 12.542969 C 42.98303 11.670812 43.415822 9.80546 42.542969 8.4121094 C 42.106962 7.7142015 41.422382 7.2573239 40.671875 7.0839844 C 40.484248 7.0406495 40.292668 7.0152104 40.099609 7.0078125 z M 39.84375 9.0078125 C 39.972254 8.986214 40.100863 8.990951 40.224609 9.0195312 C 40.472102 9.0766923 40.697663 9.230611 40.847656 9.4707031 L 40.847656 9.4726562 C 41.145337 9.9471173 41.007493 10.548273 40.529297 10.847656 L 32.527344 15.849609 L 32.523438 15.851562 C 32.457158 15.893662 32.376351 15.929772 32.291016 15.955078 L 26.84375 17.585938 L 27.216797 18.587891 C 27.586337 19.577394 27.848067 20.591586 27.978516 21.625 C 28.243961 23.752106 27.977724 25.618713 27.537109 27.125 L 27.537109 27.126953 L 27.535156 27.128906 C 27.480454 27.318837 27.403091 27.500223 27.332031 27.683594 L 27.324219 27.705078 C 27.232882 27.935315 27.129569 28.160388 27.015625 28.378906 C 27.005056 28.399014 26.995147 28.419451 26.984375 28.439453 C 26.875861 28.642795 26.756414 28.839911 26.628906 29.03125 C 26.597284 29.077957 26.562089 29.121995 26.529297 29.167969 C 26.412178 29.334827 26.291558 29.498318 26.160156 29.654297 C 26.037986 29.797358 25.905516 29.932469 25.771484 30.066406 C 25.715904 30.12229 25.666961 30.184273 25.609375 30.238281 L 23.90625 31.833984 L 23.90625 31.835938 L 18.759766 36.65625 C 18.670346 36.72636 18.523475 36.836788 18.414062 36.919922 L 10.527344 41.847656 L 10.525391 41.849609 C 10.362499 41.952281 10.180919 42 10.003906 42 C 9.631396 42 9.2874899 41.817593 9.1015625 41.439453 L 9.1015625 41.4375 C 8.8817916 40.992334 9.0849297 40.393964 9.5664062 40.091797 L 17.21875 35.308594 L 17.34375 35.074219 C 17.34375 35.074219 20.277894 29.586055 21.259766 27.777344 C 22.16286 26.107629 22.249229 24.195428 22.023438 22.373047 C 21.914606 21.495444 21.660477 20.746936 21.378906 20.130859 L 21.015625 19.339844 L 12.279297 21.958984 L 12.273438 21.960938 C 12.194204 21.985903 12.096759 22 12 22 C 11.790452 22 11.58295 21.931868 11.402344 21.800781 C 11.149982 21.609723 11 21.314459 11 21 L 11 12 C 11 11.43497 11.43497 11 12 11 C 12.56503 11 13 11.43497 13 12 L 13 19.658203 L 31.583984 14.078125 L 39.466797 9.1523438 C 39.586846 9.0773449 39.715246 9.029411 39.84375 9.0078125 z M 27.787109 30.837891 L 28.980469 36.806641 L 28.980469 36.808594 C 29.031029 37.058913 28.985069 37.31313 28.851562 37.523438 L 28.849609 37.525391 L 23.845703 45.529297 L 23.845703 45.53125 C 23.652443 45.841726 23.332756 46 22.996094 46 C 22.819081 46 22.639068 45.9529 22.474609 45.849609 L 22.472656 45.847656 C 21.990738 45.546586 21.851672 44.953937 22.152344 44.472656 L 26.941406 36.806641 L 26.085938 32.535156 L 26.976562 31.699219 L 26.978516 31.699219 C 27.266817 31.429231 27.536995 31.141318 27.787109 30.837891 z" fill="#000000"/></svg>
