<?xml version="1.0" encoding="utf-8"?>
<svg xmlns="http://www.w3.org/2000/svg" viewBox="0 0 50 50" fill="#000000"><path d="M 16.5 0 C 14.027344 0 12 2.027344 12 4.5 C 12 4.722656 12.03125 4.941406 12.0625 5.15625 C 11.925781 5.113281 11.792969 5.085938 11.65625 5.0625 C 10.945313 4.945313 10.21875 5.09375 9.6875 5.5625 C 9.15625 6.03125 8.90625 6.789063 9 7.5 C 9.089844 8.203125 9.472656 8.875 10.0625 9.53125 L 10.0625 9.5625 L 10.03125 9.5625 C 10.714844 10.359375 14.050781 13.957031 15.40625 15.3125 C 15.804688 15.710938 16.292969 16.214844 17.09375 16.375 C 17.105469 16.375 17.113281 16.375 17.125 16.375 L 20.34375 16.9375 L 13.59375 27.4375 L 13.5625 27.46875 C 13.535156 27.507813 10.953125 31.132813 9.40625 34.125 C 8.722656 35.425781 9.113281 37.003906 10.25 37.625 C 11.386719 38.246094 12.925781 37.917969 14.1875 36.71875 C 14.933594 36.027344 16.398438 34.519531 18.25 32.65625 C 17.542969 34.128906 17.417969 34.375 16.5625 36.15625 C 14.414063 40.632813 12.171875 45.3125 11.90625 45.84375 C 11.675781 46.308594 11.203125 47.058594 11.09375 48 C 11.039063 48.46875 11.101563 49.027344 11.40625 49.53125 C 11.703125 50.019531 12.207031 50.363281 12.8125 50.59375 L 12.8125 50.625 C 12.820313 50.628906 12.835938 50.621094 12.84375 50.625 C 13.507813 50.886719 14.230469 50.835938 14.78125 50.625 C 15.34375 50.410156 15.769531 50.089844 16.125 49.75 C 16.820313 49.085938 17.230469 48.378906 17.25 48.34375 L 17.28125 48.3125 L 33.625 22.59375 C 34.5 23.328125 36.003906 24.582031 36.46875 24.96875 C 36.488281 24.980469 36.511719 24.992188 36.53125 25 C 36.578125 25.03125 36.578125 25.019531 36.59375 25.03125 C 36.59375 25.015625 36.570313 25.261719 36.53125 25.53125 C 36.519531 25.601563 36.511719 25.570313 36.5 25.65625 C 36.28125 26.417969 35.65625 28.574219 35.4375 29.4375 C 35.4375 29.445313 35.4375 29.460938 35.4375 29.46875 C 35.335938 29.824219 35.148438 30.324219 35.1875 30.96875 C 35.226563 31.625 35.707031 32.511719 36.53125 32.84375 C 36.542969 32.84375 36.550781 32.84375 36.5625 32.84375 C 37.488281 33.179688 38.425781 32.800781 38.96875 32.3125 C 39.511719 31.824219 39.835938 31.238281 40.03125 30.78125 C 40.195313 30.367188 41.21875 27.984375 41.84375 26 C 41.859375 25.949219 41.867188 25.898438 41.875 25.84375 C 41.980469 25.117188 42.179688 23.894531 41.40625 22.8125 C 41.394531 22.800781 41.386719 22.792969 41.375 22.78125 L 35.96875 15.96875 C 35.949219 15.945313 35.929688 15.925781 35.90625 15.90625 C 35.605469 15.605469 35.234375 15.195313 34.65625 14.90625 C 34.226563 14.691406 33.449219 14.28125 32.78125 13.9375 C 33.019531 13.96875 33.253906 14 33.5 14 C 36.535156 14 39 11.535156 39 8.5 C 39 5.464844 36.535156 3 33.5 3 C 30.464844 3 28 5.464844 28 8.5 C 28 9.945313 28.554688 11.265625 29.46875 12.25 C 28.933594 11.976563 28.476563 11.742188 28.125 11.59375 C 28.113281 11.589844 28.105469 11.597656 28.09375 11.59375 C 26.375 10.800781 24.5625 10.6875 24.5625 10.6875 L 24.5625 10.71875 L 18.625 10.25 C 18.515625 10.152344 17.765625 9.515625 17.09375 8.9375 C 19.289063 8.640625 21 6.769531 21 4.5 C 21 2.027344 18.972656 0 16.5 0 Z M 16.5 2 C 17.890625 2 19 3.109375 19 4.5 C 19 5.890625 17.890625 7 16.5 7 C 15.109375 7 14 5.890625 14 4.5 C 14 3.109375 15.109375 2 16.5 2 Z M 33.5 5 C 35.464844 5 37 6.535156 37 8.5 C 37 10.464844 35.464844 12 33.5 12 C 31.535156 12 30 10.464844 30 8.5 C 30 6.535156 31.535156 5 33.5 5 Z M 11.09375 7.03125 C 11.148438 7.019531 11.21875 7.011719 11.34375 7.03125 C 11.59375 7.070313 11.972656 7.253906 12.4375 7.65625 C 12.457031 7.667969 12.480469 7.679688 12.5 7.6875 C 13.566406 8.484375 17.53125 11.96875 17.53125 11.96875 C 17.699219 12.105469 17.910156 12.179688 18.125 12.1875 L 24.40625 12.6875 C 24.417969 12.6875 24.425781 12.6875 24.4375 12.6875 C 24.4375 12.6875 26.011719 12.8125 27.28125 13.40625 C 27.292969 13.417969 27.300781 13.425781 27.3125 13.4375 C 27.8125 13.644531 29.074219 14.277344 30.34375 14.9375 C 31.613281 15.597656 32.925781 16.277344 33.75 16.6875 C 33.941406 16.78125 34.164063 16.980469 34.40625 17.21875 C 34.445313 17.253906 34.460938 17.273438 34.5 17.3125 L 39.78125 23.96875 L 39.78125 24 C 39.988281 24.308594 39.988281 24.871094 39.90625 25.5 C 39.332031 27.28125 38.425781 29.40625 38.1875 30 C 38.183594 30.003906 38.15625 30.027344 38.15625 30.03125 C 38.046875 30.277344 37.824219 30.632813 37.625 30.8125 C 37.429688 30.988281 37.421875 31.015625 37.28125 30.96875 C 37.105469 30.898438 37.199219 31.011719 37.1875 30.84375 C 37.175781 30.675781 37.277344 30.3125 37.375 29.96875 C 37.375 29.957031 37.375 29.949219 37.375 29.9375 C 37.554688 29.214844 38.265625 26.773438 38.46875 26.0625 C 38.480469 26.023438 38.492188 25.980469 38.5 25.9375 C 38.539063 25.652344 38.644531 25.332031 38.59375 24.8125 C 38.542969 24.320313 38.203125 23.789063 37.75 23.4375 C 37.742188 23.429688 37.695313 23.414063 37.6875 23.40625 C 37.035156 22.863281 34.03125 20.34375 34.03125 20.34375 C 33.8125 20.164063 33.527344 20.085938 33.25 20.125 C 32.96875 20.167969 32.71875 20.328125 32.5625 20.5625 L 15.5625 47.25 C 15.550781 47.269531 15.539063 47.292969 15.53125 47.3125 C 15.53125 47.3125 15.214844 47.835938 14.75 48.28125 C 14.519531 48.503906 14.261719 48.675781 14.0625 48.75 C 13.863281 48.824219 13.769531 48.855469 13.59375 48.78125 C 13.574219 48.769531 13.550781 48.757813 13.53125 48.75 C 13.207031 48.628906 13.152344 48.542969 13.125 48.5 C 13.097656 48.457031 13.074219 48.386719 13.09375 48.21875 C 13.132813 47.882813 13.417969 47.285156 13.6875 46.75 C 14.023438 46.082031 16.226563 41.507813 18.375 37.03125 C 20.523438 32.554688 22.59375 28.21875 22.59375 28.21875 C 22.773438 27.785156 22.628906 27.289063 22.246094 27.019531 C 21.863281 26.75 21.347656 26.78125 21 27.09375 C 21 27.09375 14.101563 34.082031 12.8125 35.28125 C 11.972656 36.082031 11.40625 35.976563 11.21875 35.875 C 11.03125 35.773438 10.871094 35.660156 11.1875 35.0625 C 12.628906 32.273438 15.21875 28.5625 15.21875 28.5625 C 15.230469 28.550781 15.238281 28.542969 15.25 28.53125 L 22.84375 16.75 C 23.027344 16.464844 23.054688 16.105469 22.917969 15.796875 C 22.777344 15.488281 22.492188 15.269531 22.15625 15.21875 L 17.5 14.40625 C 17.492188 14.40625 17.472656 14.40625 17.46875 14.40625 C 17.28125 14.363281 17.199219 14.292969 16.8125 13.90625 C 15.566406 12.660156 12.082031 8.855469 11.5625 8.25 C 11.550781 8.238281 11.542969 8.230469 11.53125 8.21875 C 11.132813 7.78125 10.992188 7.433594 10.96875 7.25 C 10.945313 7.066406 10.992188 7.070313 11 7.0625 C 11.003906 7.058594 11.039063 7.042969 11.09375 7.03125 Z" fill="#000000"/></svg>
