<?xml version="1.0" encoding="utf-8"?>
<!-- Generator: Adobe Illustrator 16.0.0, SVG Export Plug-In . SVG Version: 6.00 Build 0)  -->
<!DOCTYPE svg PUBLIC "-//W3C//DTD SVG 1.1//EN" "http://www.w3.org/Graphics/SVG/1.1/DTD/svg11.dtd">
<svg version="1.1" id="Layer_1" xmlns="http://www.w3.org/2000/svg" xmlns:xlink="http://www.w3.org/1999/xlink" x="0px" y="0px"
	 width="150px" height="150px" viewBox="222.641 345.945 150 150" enable-background="new 222.641 345.945 150 150"
	 xml:space="preserve">
<path d="M297.639,352.787c-8.997,0-16.354,7.358-16.354,16.354c0,6.262,3.578,11.734,8.773,14.481
	c-7.847,1.491-15.705,4.493-17.121,5.025c-0.032,0.032-0.054,0.053-0.085,0.085c-3.173,1.235-5.377,3.822-6.729,6.899
	c-0.011,0.032-0.074,0.053-0.085,0.085c-0.032,0.032-0.053,0.053-0.085,0.085c-0.266,0.266-0.469,0.585-0.596,0.937l-6.218,17.632
	c-0.916,0.586-9.817,6.304-13.459,8.348c-2.48,1.396-4.28,3.162-5.28,5.281c-1.001,2.119-1.065,4.674,0.084,6.729
	c1.065,1.906,3.078,3.247,5.282,3.578c0.106,0.021,0.234-0.011,0.34,0c-1.959,6.069,0.405,12.233,5.452,14.31l22.488,9.712
	c-2.481,2.843-3.279,7.016-1.618,10.647c1.576,3.449,4.685,5.058,7.24,5.452c1.277,0.19,2.449,0.116,3.407,0
	c0.926-0.118,1.533-0.257,2.3-0.598h0.085l12.181-5.281l12.181,5.281h0.087c0.765,0.341,1.372,0.479,2.299,0.598
	c0.959,0.116,2.13,0.19,3.407,0c2.555-0.395,5.665-2.003,7.24-5.452c1.662-3.632,0.863-7.805-1.618-10.647l22.487-9.712
	c5.037-2.086,7.411-8.24,5.452-14.31c0.106-0.011,0.234,0.021,0.34,0c2.215-0.33,4.216-1.672,5.282-3.578
	c1.149-2.056,1.085-4.61,0.084-6.729c-1-2.119-2.8-3.886-5.281-5.281c-3.642-2.044-12.542-7.761-13.458-8.348l-6.218-17.632
	c-0.149-0.384-0.384-0.735-0.683-1.022c-0.031-0.032-0.053-0.053-0.084-0.085c-1.363-3.109-3.695-5.675-6.899-6.899
	c-0.012-0.011,0.01-0.075,0-0.085c-0.012,0-0.075,0-0.086,0c-1.183-0.458-8.977-3.514-16.866-5.025
	c5.153-2.758,8.688-8.252,8.688-14.481C313.994,360.145,306.636,352.787,297.639,352.787z M297.639,358.239
	c6.059,0,10.903,4.845,10.903,10.903c0,6.059-4.845,10.903-10.903,10.903s-10.903-4.845-10.903-10.903
	C286.736,363.084,291.58,358.239,297.639,358.239z M297.639,388.223c7.484,0,21.401,5.057,22.658,5.536
	c2.13,0.788,3.759,2.492,4.429,4.685c0.022,0.053,0.054,0.118,0.086,0.171c0.063,0.212,0.149,0.404,0.256,0.596l6.304,17.973
	c0.213,0.564,0.596,1.044,1.106,1.363c0,0,10.19,6.442,14.481,8.859c1.693,0.948,2.587,2.14,2.981,2.981
	c0.394,0.841,0.404,1.277,0.171,1.704c-0.32,0.574-0.565,0.734-1.363,0.851c-0.799,0.117-2.226-0.031-4.175-0.851
	c-3.748-1.566-14.512-7.263-16.61-8.518c-1.948-1.162-1.554-0.683-2.554-2.472c-0.384-0.681-3.334-6.675-5.196-10.562
	c-0.544-1.16-1.833-1.789-3.078-1.501c-1.257,0.287-2.14,1.405-2.119,2.693v19.081c0.012,1.267,0.895,2.364,2.13,2.641l8.348,1.958
	l-27.854,14.142l-27.684-14.056l8.177-2.044c1.235-0.276,2.119-1.374,2.13-2.641v-19.166c-0.021-1.267-0.916-2.353-2.162-2.619
	c-1.235-0.266-2.502,0.362-3.034,1.512c-1.863,3.887-4.813,9.882-5.196,10.562c-1.001,1.79-0.606,1.299-2.555,2.472
	c-2.087,1.255-12.863,6.951-16.611,8.518c-1.948,0.819-3.375,0.968-4.173,0.851c-0.799-0.116-1.044-0.276-1.363-0.851
	c-0.234-0.415-0.224-0.949,0.17-1.789c0.394-0.841,1.289-1.948,2.981-2.896c4.302-2.417,14.48-8.859,14.48-8.859
	c0.512-0.319,0.895-0.799,1.107-1.363l6.474-18.313c0.032-0.085,0.064-0.17,0.085-0.255c0.032-0.053,0.064-0.118,0.085-0.171
	c0.66-2.14,2.215-3.865,4.259-4.685c0.01,0,0.075,0,0.085,0C276.727,393.067,290.334,388.223,297.639,388.223z M274.81,423.402
	v5.281l-10.563,2.556c2.098-1.129,4.941-2.418,5.877-2.98c1.98-1.193,3.312-2.365,4.515-4.516
	C274.672,423.69,274.778,423.456,274.81,423.402z M320.467,423.402c0.032,0.054,0.139,0.288,0.171,0.341
	c1.204,2.151,2.534,3.322,4.515,4.516c0.841,0.511,3.45,1.734,5.281,2.726l-9.967-2.301V423.402z M256.837,436.009
	c1.374,0.012,2.758,0.331,3.748,0.853h0.085l30.921,15.758l-12.181,6.134l-25.726-11.159c-2.129-0.873-3.96-4.302-2.129-8.518
	c0.788-1.821,2.172-2.641,3.918-2.981C255.91,436.009,256.379,436.009,256.837,436.009z M338.44,436.009
	c0.458,0,0.926,0,1.362,0.086c0.438,0.085,0.896,0.191,1.278,0.341c0.054,0.032,0.117,0.053,0.171,0.084
	c1.075,0.47,1.905,1.257,2.47,2.557v0.084c1.757,4.164-0.021,7.561-2.13,8.434l-58.349,25.299h-0.085
	c0.309-0.139-0.224,0.106-0.767,0.171c-0.543,0.063-1.203,0.021-1.874-0.085c-1.331-0.203-2.386-0.607-3.152-2.3
	c-1.022-2.247-0.117-4.771,2.13-5.793l0.085-0.086h0.085l54.942-27.938h0.084C335.683,436.34,337.067,436.021,338.44,436.009z
	 M315.612,464.801h0.085v0.085c2.247,1.021,3.236,3.546,2.215,5.793c-0.767,1.692-1.821,2.097-3.151,2.3
	c-0.672,0.106-1.331,0.148-1.874,0.085c-0.544-0.063-1.075-0.309-0.767-0.171h-0.086l-7.581-3.236L315.612,464.801z
	 M261.862,483.626c-1.501,0.139-2.608,1.479-2.47,2.981s1.48,2.608,2.981,2.471h70.53c0.979,0.01,1.895-0.501,2.396-1.353
	c0.49-0.853,0.49-1.896,0-2.747c-0.501-0.853-1.417-1.363-2.396-1.353h-70.531c-0.085,0-0.17,0-0.256,0
	C262.033,483.626,261.948,483.626,261.862,483.626z"/>
</svg>
