<?xml version="1.0" encoding="utf-8"?>
<svg xmlns="http://www.w3.org/2000/svg" viewBox="0 0 50 50" fill="#000000"><path d="M 23 3 C 20.250421 3 18 5.2504209 18 8 C 18 10.749579 20.250421 13 23 13 C 25.749579 13 28 10.749579 28 8 C 28 5.2504209 25.749579 3 23 3 z M 23 5 C 24.668699 5 26 6.3313011 26 8 C 26 9.6686989 24.668699 11 23 11 C 21.331301 11 20 9.6686989 20 8 C 20 6.3313011 21.331301 5 23 5 z M 11 7 C 9.7519309 7 8.4076039 7.3023133 7.2753906 7.8242188 C 6.709284 8.0851715 6.1942036 8.4000407 5.7734375 8.8183594 C 5.3526714 9.236678 5 9.8106757 5 10.5 C 5 11.189324 5.3526714 11.763322 5.7734375 12.181641 C 6.1942036 12.599959 6.709284 12.914829 7.2753906 13.175781 C 7.8131123 13.42365 8.3996245 13.617867 9 13.757812 L 9 21 C 9 21.940663 9.4422927 22.827858 10.193359 23.394531 L 10.193359 23.396484 L 10.195312 23.396484 C 10.71995 23.791072 11.354496 24 12 24 C 12.273943 24 12.551775 23.96284 12.824219 23.884766 L 19.902344 21.861328 C 20.058428 22.197469 20.225683 22.530662 20.363281 22.871094 C 21.129172 24.769046 21.643067 26.76536 21.888672 28.824219 C 21.904066 28.95315 21.928865 29.078511 21.957031 29.203125 L 21.158203 36.378906 L 14.197266 41.599609 C 12.880904 42.586881 12.610393 44.485302 13.599609 45.800781 C 14.18445 46.581006 15.090261 47 16 47 C 16.624834 47 17.26271 46.80248 17.798828 46.400391 L 26.835938 39.621094 L 27.447266 34.107422 L 31.501953 36.763672 L 35.259766 45.21875 C 35.75173 46.327907 36.849903 47 38.001953 47 C 38.449346 47 38.904466 46.897592 39.328125 46.689453 C 40.828586 45.952224 41.340894 44.131861 40.693359 42.673828 L 40.693359 42.671875 L 36.742188 33.783203 L 36.740234 33.78125 C 36.617786 33.505285 36.454462 33.250344 36.257812 33.025391 L 31.792969 27.921875 C 31.461439 24.897518 30.771548 21.939623 29.636719 19.128906 C 29.630219 19.112746 29.623757 19.101928 29.617188 19.085938 L 33.826172 17.884766 C 34.225489 17.770037 34.600934 17.572134 34.923828 17.300781 L 40.919922 12.304688 C 42.183286 11.25114 42.356851 9.3416144 41.304688 8.078125 C 40.778312 7.4460282 40.038316 7.0873212 39.271484 7.0175781 C 38.504653 6.9478351 37.711717 7.1679536 37.080078 7.6953125 L 31.566406 12.289062 L 15 17.021484 L 15 13.025391 C 15.4536 12.792625 15.877869 12.528305 16.226562 12.181641 C 16.647329 11.763322 17 11.189324 17 10.5 C 17 9.8106757 16.647329 9.236678 16.226562 8.8183594 C 15.805796 8.4000407 15.290716 8.0851715 14.724609 7.8242188 C 13.592396 7.3023133 12.248069 7 11 7 z M 39.091797 8.9960938 C 39.344215 9.0191007 39.586953 9.1424718 39.767578 9.359375 C 40.129414 9.7938856 40.073306 10.405127 39.638672 10.767578 L 33.638672 15.769531 L 33.636719 15.769531 C 33.533613 15.856181 33.410121 15.921666 33.273438 15.960938 L 26.847656 17.798828 L 27.318359 18.849609 C 27.48924 19.232469 27.657086 19.569539 27.78125 19.876953 C 28.88416 22.608612 29.564987 25.496606 29.861328 28.470703 L 29.894531 28.789062 L 34.751953 34.341797 C 34.818713 34.418167 34.872726 34.50282 34.912109 34.591797 L 38.865234 43.484375 L 38.865234 43.486328 C 39.104431 44.023982 38.906214 44.668076 38.445312 44.894531 C 38.295023 44.968345 38.14856 45 38.001953 45 C 37.620003 45 37.255926 44.787046 37.087891 44.408203 L 37.087891 44.40625 L 33.089844 35.414062 L 24.763672 29.958984 C 24.269077 29.635222 23.93725 29.127955 23.873047 28.587891 L 23.873047 28.585938 C 23.606652 26.352843 23.050859 24.183141 22.21875 22.121094 C 21.955978 21.470969 21.663606 20.834667 21.349609 20.212891 L 20.976562 19.474609 L 12.275391 21.960938 L 12.273438 21.960938 C 12.184535 21.986491 12.09342 22 12 22 C 11.786337 22 11.575325 21.93118 11.398438 21.798828 L 11.396484 21.796875 C 11.14694 21.607527 11 21.312418 11 21 L 11 14 C 11.655324 14 12.33624 13.912533 13 13.757812 L 13 19.673828 L 32.521484 14.095703 L 38.361328 9.2304688 C 38.577689 9.0498275 38.839378 8.9730868 39.091797 8.9960938 z M 11 9 C 11.900931 9 13.056182 9.2577805 13.886719 9.640625 C 14.301987 9.8320473 14.635454 10.056428 14.816406 10.236328 C 14.997359 10.416228 15 10.498824 15 10.5 C 15 10.5012 14.9974 10.58377 14.816406 10.763672 C 14.635454 10.943572 14.301987 11.167953 13.886719 11.359375 C 13.738052 11.427905 13.570451 11.487121 13.404297 11.546875 C 13.302688 11.583709 13.201814 11.621358 13.095703 11.654297 C 12.964893 11.694656 12.830415 11.729585 12.695312 11.763672 C 12.596515 11.788633 12.498197 11.814697 12.398438 11.835938 C 12.218674 11.874203 12.039194 11.902497 11.861328 11.927734 C 11.804741 11.935717 11.74736 11.948514 11.691406 11.955078 C 11.452015 11.983344 11.21784 12 11 12 C 10.756161 12 10.481221 11.974164 10.199219 11.9375 C 9.4793755 11.841336 8.7125327 11.635607 8.1132812 11.359375 C 7.698013 11.167953 7.3645464 10.943572 7.1835938 10.763672 C 7.0026411 10.583772 7 10.501176 7 10.5 C 7 10.4988 7.00264 10.41623 7.1835938 10.236328 C 7.3645464 10.056428 7.6980129 9.8320473 8.1132812 9.640625 C 8.943818 9.2577805 10.099069 9 11 9 z M 23.697266 31.650391 L 25.572266 32.878906 L 24.943359 38.541016 L 16.597656 44.800781 C 16.413775 44.938692 16.209166 45 16 45 C 15.694632 45 15.398434 44.867861 15.199219 44.601562 L 15.199219 44.599609 L 15.197266 44.599609 C 14.858482 44.149089 14.946798 43.537947 15.398438 43.199219 L 23.050781 37.458984 L 23.697266 31.650391 z" fill="#000000"/></svg>
