<?xml version="1.0" encoding="utf-8"?>
<svg xmlns="http://www.w3.org/2000/svg" viewBox="0 0 50 50" fill="#000000"><path d="M 30.5 0 C 27.476563 0 25 2.472656 25 5.5 C 25 8.527344 27.476563 11 30.5 11 C 33.523438 11 36 8.527344 36 5.5 C 36 2.472656 33.523438 0 30.5 0 Z M 30.5 2 C 32.445313 2 34 3.554688 34 5.5 C 34 7.445313 32.445313 9 30.5 9 C 28.554688 9 27 7.445313 27 5.5 C 27 3.554688 28.554688 2 30.5 2 Z M 22.125 8.96875 C 21.910156 8.980469 21.78125 9 21.78125 9 C 21.769531 9 21.761719 9 21.75 9 C 21.75 9 10.65625 10.34375 6.84375 11 C 5.914063 11.160156 5.148438 11.476563 4.59375 11.9375 C 4.039063 12.398438 3.675781 13.070313 3.71875 13.78125 C 3.761719 14.492188 4.21875 15.105469 4.8125 15.46875 C 5.40625 15.832031 6.136719 16.011719 7 16 C 9.378906 15.964844 17.355469 15.992188 19.40625 16 C 18.523438 17.867188 13.339844 28.863281 11.375 33.125 C 11.011719 33.910156 10.914063 34.816406 11.15625 35.65625 C 11.398438 36.496094 12.015625 37.253906 12.9375 37.65625 C 13.988281 38.117188 15.070313 37.988281 15.8125 37.53125 C 16.554688 37.074219 17.003906 36.425781 17.34375 35.90625 C 17.570313 35.558594 18.222656 34.480469 18.6875 33.71875 C 18.480469 34.28125 18.339844 34.703125 18.125 35.28125 C 17.300781 37.488281 16.429688 39.734375 15.75 41.53125 C 15.070313 43.328125 14.597656 44.554688 14.4375 45.09375 C 14.175781 45.984375 14.113281 46.898438 14.40625 47.75 C 14.699219 48.601563 15.4375 49.328125 16.40625 49.625 C 17.597656 49.988281 18.703125 49.710938 19.40625 49.125 C 20.109375 48.539063 20.449219 47.816406 20.6875 47.25 C 21.148438 46.160156 31.179688 22.140625 31.875 20.46875 C 32.910156 20.949219 35.492188 22.183594 36.75 22.6875 C 38.480469 23.378906 39.855469 22.566406 40.28125 22.1875 C 40.488281 22.003906 41.847656 21 43.15625 20.03125 C 44.464844 19.0625 45.742188 18.140625 46.40625 17.46875 C 46.945313 16.921875 47.480469 16.347656 47.78125 15.59375 C 48.082031 14.839844 47.953125 13.742188 47.25 13.0625 C 46.503906 12.34375 45.476563 12.429688 44.875 12.625 C 44.273438 12.820313 43.84375 13.125 43.84375 13.125 C 43.84375 13.136719 43.84375 13.144531 43.84375 13.15625 L 38.375 17.34375 C 37.675781 16.839844 34.554688 14.613281 33 13.71875 C 31.0625 12.601563 26.949219 10.367188 25.5625 9.65625 C 24.21875 8.96875 22.769531 8.9375 22.125 8.96875 Z M 21.96875 11 C 21.96875 11 22 11 22 11 C 22.050781 10.996094 23.609375 10.902344 24.65625 11.4375 C 25.960938 12.105469 30.125 14.359375 32 15.4375 C 33.386719 16.238281 37.8125 19.375 37.8125 19.375 C 38.164063 19.636719 38.648438 19.636719 39 19.375 L 45.03125 14.75 C 45.03125 14.75 45.242188 14.617188 45.5 14.53125 C 45.757813 14.445313 45.824219 14.453125 45.875 14.5 C 46.085938 14.707031 46.011719 14.582031 45.90625 14.84375 C 45.800781 15.105469 45.472656 15.585938 45 16.0625 C 44.988281 16.0625 44.980469 16.0625 44.96875 16.0625 C 44.617188 16.417969 43.265625 17.476563 41.96875 18.4375 C 40.671875 19.398438 39.488281 20.226563 38.96875 20.6875 C 38.746094 20.882813 38.554688 21.234375 37.5 20.8125 C 36.21875 20.300781 31.75 18.21875 31.75 18.21875 C 31.503906 18.105469 31.21875 18.097656 30.964844 18.199219 C 30.710938 18.296875 30.507813 18.496094 30.40625 18.75 C 30.40625 18.75 19.265625 45.472656 18.84375 46.46875 C 18.636719 46.964844 18.367188 47.390625 18.125 47.59375 C 17.882813 47.796875 17.71875 47.9375 17 47.71875 C 16.527344 47.574219 16.382813 47.390625 16.28125 47.09375 C 16.179688 46.796875 16.191406 46.308594 16.375 45.6875 C 16.4375 45.472656 16.949219 44.015625 17.625 42.21875 C 18.300781 40.421875 19.171875 38.183594 20 35.96875 C 20.828125 33.753906 21.625 31.574219 22.1875 29.9375 C 22.46875 29.121094 22.671875 28.449219 22.8125 27.9375 C 22.882813 27.683594 22.9375 27.492188 22.96875 27.28125 C 22.984375 27.175781 23.015625 27.0625 23 26.875 C 22.992188 26.78125 22.980469 26.667969 22.875 26.46875 C 22.769531 26.269531 22.46875 25.988281 22.125 25.9375 C 21.695313 25.875 21.488281 26.023438 21.375 26.09375 C 21.261719 26.164063 21.210938 26.226563 21.15625 26.28125 C 21.046875 26.386719 20.964844 26.480469 20.875 26.59375 C 20.691406 26.824219 20.484375 27.117188 20.25 27.46875 C 19.777344 28.171875 19.199219 29.085938 18.59375 30.0625 C 17.382813 32.015625 16.09375 34.1875 15.6875 34.8125 C 15.402344 35.25 15.070313 35.632813 14.78125 35.8125 C 14.492188 35.992188 14.304688 36.085938 13.75 35.84375 C 13.355469 35.671875 13.160156 35.425781 13.0625 35.09375 C 12.964844 34.761719 13.019531 34.332031 13.1875 33.96875 C 15.300781 29.382813 21.90625 15.4375 21.90625 15.4375 C 22.058594 15.125 22.039063 14.757813 21.851563 14.464844 C 21.667969 14.175781 21.347656 13.996094 21 14 C 21 14 9.785156 13.960938 7 14 C 6.425781 14.007813 6.019531 13.890625 5.84375 13.78125 C 5.757813 13.726563 5.726563 13.675781 5.71875 13.65625 C 5.71875 13.683594 5.679688 13.628906 5.875 13.46875 C 6.070313 13.308594 6.480469 13.117188 7.15625 13 C 10.769531 12.378906 21.921875 11.003906 21.96875 11 Z M 32.5 38.9375 C 29.445313 38.9375 26.9375 41.445313 26.9375 44.5 C 26.9375 47.554688 29.445313 50.0625 32.5 50.0625 C 35.554688 50.0625 38.0625 47.554688 38.0625 44.5 C 38.0625 41.445313 35.554688 38.9375 32.5 38.9375 Z M 32.5 41.0625 C 34.417969 41.0625 35.9375 42.582031 35.9375 44.5 C 35.9375 46.414063 34.417969 47.9375 32.5 47.9375 C 30.585938 47.9375 29.0625 46.414063 29.0625 44.5 C 29.0625 42.582031 30.585938 41.0625 32.5 41.0625 Z" fill="#000000"/></svg>
