<?xml version="1.0" encoding="utf-8"?>
<svg xmlns="http://www.w3.org/2000/svg" viewBox="0 0 50 50" fill="#000000"><path d="M 12.099609 7 C 10.516277 7 9.2034547 7.6297556 8.3535156 8.5859375 C 7.5035765 9.5421194 7.0996094 10.777778 7.0996094 12 C 7.0996094 13.222222 7.5035765 14.457881 8.3535156 15.414062 C 9.2034547 16.370244 10.516277 17 12.099609 17 C 13.682942 17 14.997717 16.370244 15.847656 15.414062 C 16.697595 14.457882 17.099609 13.222222 17.099609 12 C 17.099609 10.777778 16.697595 9.5421194 15.847656 8.5859375 C 14.997717 7.6297556 13.682942 7 12.099609 7 z M 35.099609 7 C 33.516277 7 32.203455 7.6297556 31.353516 8.5859375 C 30.503577 9.5421194 30.099609 10.777778 30.099609 12 C 30.099609 13.222222 30.503577 14.457881 31.353516 15.414062 C 32.203455 16.370244 33.516277 17 35.099609 17 C 36.682942 17 37.997717 16.370244 38.847656 15.414062 C 39.697595 14.457882 40.099609 13.222222 40.099609 12 C 40.099609 10.777778 39.697595 9.5421194 38.847656 8.5859375 C 37.997717 7.6297556 36.682942 7 35.099609 7 z M 12.099609 9 C 13.182942 9 13.870122 9.3702444 14.353516 9.9140625 C 14.836909 10.457881 15.099609 11.222222 15.099609 12 C 15.099609 12.777778 14.836909 13.542119 14.353516 14.085938 C 13.870122 14.629755 13.182942 15 12.099609 15 C 11.016277 15 10.33105 14.629756 9.8476562 14.085938 C 9.3642627 13.542118 9.0996094 12.777778 9.0996094 12 C 9.0996094 11.222222 9.3642627 10.457881 9.8476562 9.9140625 C 10.33105 9.3702444 11.016277 9 12.099609 9 z M 35.099609 9 C 36.182942 9 36.870122 9.3702444 37.353516 9.9140625 C 37.836909 10.457881 38.099609 11.222222 38.099609 12 C 38.099609 12.777778 37.836909 13.542119 37.353516 14.085938 C 36.870122 14.629755 36.182942 15 35.099609 15 C 34.016277 15 33.33105 14.629756 32.847656 14.085938 C 32.364263 13.542118 32.099609 12.777778 32.099609 12 C 32.099609 11.222222 32.364263 10.457881 32.847656 9.9140625 C 33.33105 9.3702444 34.016277 9 35.099609 9 z M 4 19 C 2.3545455 19 1 20.354545 1 22 C 1 23.370207 1.9446071 24.526325 3.2089844 24.878906 L 6.8769531 33 L 1 33 A 1.0001 1.0001 0 1 0 1 35 L 7.78125 35 L 12.871094 46.267578 C 10.765088 46.364676 8.6304572 45.558158 7.0371094 43.824219 A 1.0001 1.0001 0 0 0 6.2324219 43.490234 A 1.0001 1.0001 0 0 0 5.4902344 43.890625 C 3.9846192 45.442266 2.1033113 46.199219 0.099609375 46.199219 L 0.099609375 48.199219 C 2.3403702 48.199219 4.5237583 47.4184 6.2949219 45.888672 C 8.5287257 47.852882 11.436595 48.535916 14.177734 48.003906 A 1.0001 1.0001 0 0 0 14.845703 47.853516 C 16.270345 47.468914 17.630075 46.751915 18.800781 45.701172 C 22.39971 48.931067 27.701947 48.931232 31.300781 45.701172 C 34.878124 48.911695 40.2135 49.045371 43.804688 45.888672 C 45.575851 47.4184 47.759239 48.199219 50 48.199219 L 50 46.199219 C 48.030863 46.199219 46.181844 45.464574 44.689453 43.966797 A 1.0001 1.0001 0 0 0 43.064453 43.824219 C 41.681638 45.329047 39.890623 46.133849 38.064453 46.259766 L 28.554688 25 L 35.482422 25 L 37.603516 29.242188 L 35.929688 28.65625 A 1.0001 1.0001 0 0 0 35.763672 28.613281 C 34.861533 28.462925 33.969355 28.815801 33.392578 29.392578 A 1.0001 1.0001 0 0 0 33.300781 29.5 L 33 29.900391 A 1.0001 1.0001 0 1 0 34.599609 31.099609 L 34.824219 30.800781 C 35.027765 30.600543 35.146611 30.553503 35.414062 30.59375 L 39.269531 31.943359 A 1.0001 1.0001 0 0 0 40.494141 30.552734 L 36.994141 23.552734 A 1.0001 1.0001 0 0 0 36.099609 23 L 27.099609 23 C 26.545064 23 26.099609 22.554545 26.099609 22 C 26.099609 21.445455 26.545064 21 27.099609 21 L 34.099609 21 L 39.099609 21 C 39.671832 21 40.162647 21.03667 40.46875 21.130859 C 40.774853 21.225049 40.881079 21.297315 41.005859 21.546875 L 46.732422 33 L 36 33 A 1.0001 1.0001 0 1 0 36 35 L 49 35 A 1.0001 1.0001 0 1 0 49 33 L 48.96875 33 L 42.794922 20.652344 C 42.419702 19.901904 41.725538 19.424564 41.056641 19.21875 C 40.387744 19.012936 39.727387 19 39.099609 19 L 34.099609 19 L 27.099609 19 C 25.454155 19 24.099609 20.354545 24.099609 22 C 24.099609 23.370207 25.044217 24.526325 26.308594 24.878906 L 29.941406 33 L 25.867188 33 L 19.695312 20.652344 C 19.320093 19.901904 18.625928 19.424564 17.957031 19.21875 C 17.288134 19.012936 16.627778 19 16 19 L 11 19 L 4 19 z M 4 21 L 11 21 L 16 21 C 16.572222 21 17.063038 21.03667 17.369141 21.130859 C 17.675244 21.225049 17.78147 21.297315 17.90625 21.546875 L 23.630859 33 L 13 33 A 1.0001 1.0001 0 1 0 13 35 L 30.835938 35 L 35.78125 46.054688 C 34.424854 45.713346 33.13596 44.987811 32.082031 43.857422 A 1.0001 1.0001 0 0 0 31.337891 43.490234 A 1.0001 1.0001 0 0 0 31.332031 43.490234 A 1.0001 1.0001 0 0 0 30.513672 43.859375 C 27.499687 47.08709 22.594237 47.088202 19.582031 43.857422 A 1.0001 1.0001 0 0 0 18.837891 43.490234 A 1.0001 1.0001 0 0 0 18.832031 43.490234 A 1.0001 1.0001 0 0 0 18.013672 43.859375 C 17.11065 44.826432 16.035957 45.49783 14.894531 45.886719 L 5.4589844 25 L 12.382812 25 L 14.503906 29.242188 L 12.830078 28.65625 A 1.0001 1.0001 0 0 0 12.664062 28.613281 C 11.761924 28.462925 10.869745 28.815801 10.292969 29.392578 A 1.0001 1.0001 0 0 0 10.199219 29.5 L 9.9003906 29.900391 A 1.0001 1.0001 0 1 0 11.5 31.099609 L 11.724609 30.800781 C 11.928155 30.600543 12.047002 30.553503 12.314453 30.59375 L 16.169922 31.943359 A 1.0001 1.0001 0 0 0 17.394531 30.552734 L 13.894531 23.552734 A 1.0001 1.0001 0 0 0 13 23 L 4 23 C 3.4454545 23 3 22.554545 3 22 C 3 21.445455 3.4454545 21 4 21 z" fill="#000000"/></svg>
