<?xml version="1.0" encoding="utf-8"?>
<svg xmlns="http://www.w3.org/2000/svg" viewBox="0 0 50 50" fill="#000000"><path d="M 40.5 2 C 37.466667 2 35 4.4666667 35 7.5 C 35 10.533333 37.466667 13 40.5 13 C 43.533333 13 46 10.533333 46 7.5 C 46 4.4666667 43.533333 2 40.5 2 z M 40.5 4 C 42.466667 4 44 5.5333333 44 7.5 C 44 9.4666667 42.466667 11 40.5 11 C 38.533333 11 37 9.4666667 37 7.5 C 37 5.5333333 38.533333 4 40.5 4 z M 22.378906 9 C 21.698126 9 21.022616 9.1377142 20.396484 9.4082031 L 13.945312 12.193359 A 1.0001 1.0001 0 0 0 13.521484 12.542969 C 12.657482 13.068867 12 13.919003 12 15 C 12 15.930479 12.464857 16.770899 13.214844 17.347656 C 13.96483 17.924414 15.098995 18.176993 16.199219 17.744141 A 1.0001 1.0001 0 0 0 16.238281 17.728516 L 22.421875 15 L 22.921875 15 L 18.466797 19.455078 A 1.0001 1.0001 0 0 0 18.248047 19.785156 A 1.0001 1.0001 0 0 0 18.248047 19.787109 C 17.526935 20.631381 17.044974 21.69111 17.011719 22.875 A 1.0001 1.0001 0 0 0 17 22.886719 L 11.980469 28 L 6.6601562 28 C 4.648171 28 2.8785249 29.649438 3.0078125 31.726562 C 3.1211147 33.551834 4.6519021 35 6.5 35 L 13.755859 35 C 14.815849 35 15.831962 34.578815 16.582031 33.830078 L 21.525391 28.888672 L 25 31.5 L 25 39.5 C 25 40.03801 25.134994 40.542844 25.355469 41 L 17.099609 41 C 16.299609 41 15.331997 40.74065 14.585938 40.326172 L 12.496094 39.130859 A 1.0001 1.0001 0 0 0 11.921875 38.994141 A 1.0001 1.0001 0 0 0 11.503906 40.869141 L 13.609375 42.070312 L 13.615234 42.074219 C 14.31588 42.463486 15.096698 42.730451 15.892578 42.875 C 15.343015 43.420084 15 44.17306 15 45 C 15 46.64497 16.35503 48 18 48 C 19.64497 48 21 46.64497 21 45 C 21 44.231416 20.695875 43.533353 20.212891 43 L 31.787109 43 C 31.304125 43.533353 31 44.231416 31 45 C 31 46.64497 32.35503 48 34 48 C 35.64497 48 37 46.64497 37 45 C 37 44.175556 36.659938 43.423599 36.113281 42.878906 C 36.92799 42.732809 37.692664 42.458719 38.384766 42.074219 L 38.390625 42.070312 L 40.496094 40.869141 A 1.0007574 1.0007574 0 1 0 39.503906 39.130859 L 37.414062 40.326172 C 36.640473 40.755915 35.818572 41 34.900391 41 L 31.644531 41 C 31.865006 40.542844 32 40.03801 32 39.5 L 32 29.5 C 32 28.421807 31.441328 27.518994 30.671875 26.878906 L 30.664062 26.865234 A 1.0001 1.0001 0 0 0 30.380859 26.550781 C 30.380859 26.550781 28.757954 25.361948 27.419922 24.375 L 27.785156 24 L 37 24 C 38.645455 24 40 22.645455 40 21 C 40 19.354545 38.645455 18 37 18 L 33.638672 18 L 34.548828 17.064453 A 1.0001 1.0001 0 0 0 34.578125 17.037109 L 34.607422 17.007812 C 34.610424 17.00481 34.612242 17.001056 34.615234 16.998047 A 1.0001 1.0001 0 0 0 34.617188 16.996094 A 1.0001 1.0001 0 0 0 34.742188 16.84375 A 1.0001 1.0001 0 0 0 34.746094 16.837891 C 36.38576 15.030559 36.351979 12.179895 34.628906 10.425781 C 33.779672 9.4701293 32.574671 9.1151817 31.337891 9.0546875 A 1.0001 1.0001 0 0 0 31 9 L 22.378906 9 z M 22.378906 11 L 31 11 C 32.033333 11 32.675698 11.219772 33.146484 11.757812 A 1.0001 1.0001 0 0 0 33.193359 11.806641 C 34.186973 12.800254 34.188192 14.588609 33.199219 15.585938 C 33.196904 15.588272 33.195685 15.591424 33.193359 15.59375 A 1.0001 1.0001 0 0 0 33.183594 15.601562 L 25.183594 23.800781 A 1.0001 1.0001 0 0 0 25.300781 25.300781 C 26.883881 26.488106 29.054571 28.059678 29.136719 28.119141 A 1.0001 1.0001 0 0 0 29.279297 28.226562 C 29.713566 28.493812 30 28.955641 30 29.5 L 30 39.5 C 30 40.340812 29.340812 41 28.5 41 C 27.659188 41 27 40.340812 27 39.5 L 27 31 A 1.0001 1.0001 0 0 0 26.601562 30.201172 L 20.46875 25.59375 L 20.496094 26.039062 A 1.0001 1.0001 0 0 0 20.125 25.320312 C 19.436768 24.763498 19 23.942306 19 23 C 19 22.164645 19.335318 21.420541 19.880859 20.875 A 1.0001 1.0001 0 0 0 20.173828 20.167969 L 20.173828 20.576172 L 25.75 15 L 27.335938 15 A 1.0001 1.0001 0 1 0 27.335938 13 L 25.482422 13 A 1.0001 1.0001 0 0 0 25.316406 12.990234 A 1.0001 1.0001 0 0 0 25.205078 13 L 22.210938 13 A 1.0001 1.0001 0 0 0 21.806641 13.085938 L 15.466797 15.882812 C 14.987655 16.070529 14.704851 15.970322 14.433594 15.761719 C 14.16183 15.552726 14 15.174521 14 15 C 14 14.556206 14.280991 14.2005 14.675781 14.0625 A 1.0001 1.0001 0 0 0 15.28125 12.765625 L 15.654297 13.634766 L 21.189453 11.246094 A 1.0001 1.0001 0 0 0 21.189453 11.244141 C 21.563321 11.082677 21.969686 11 22.378906 11 z M 31.6875 20 L 37 20 C 37.554545 20 38 20.445455 38 21 C 38 21.554545 37.554545 22 37 22 L 29.736328 22 L 31.6875 20 z M 17.568359 25.162109 C 17.838923 25.668307 18.179773 26.133728 18.589844 26.529297 A 1.0001 1.0001 0 0 0 18.896484 26.912109 L 19.115234 27.078125 A 1.0001 1.0001 0 0 0 19.154297 27.105469 C 19.107157 27.073329 19.125657 27.090204 19.216797 27.152344 L 19.912109 27.673828 L 15.169922 32.414062 C 14.793991 32.789327 14.28587 33 13.755859 33 L 6.5 33 C 5.6580979 33 5.054604 32.418292 5.0039062 31.601562 C 4.9511939 30.754689 5.7421416 30 6.6601562 30 L 12.820312 30 L 17.568359 25.162109 z M 18 44 C 18.56503 44 19 44.43497 19 45 C 19 45.56503 18.56503 46 18 46 C 17.43497 46 17 45.56503 17 45 C 17 44.43497 17.43497 44 18 44 z M 34 44 C 34.56503 44 35 44.43497 35 45 C 35 45.56503 34.56503 46 34 46 C 33.43497 46 33 45.56503 33 45 C 33 44.43497 33.43497 44 34 44 z" fill="#000000"/></svg>
