<?xml version="1.0" encoding="utf-8"?>
<svg xmlns="http://www.w3.org/2000/svg" viewBox="0 0 50 50" fill="#000000"><path d="M 22.5 12 C 22.007813 12 21.589844 12.207031 21.167969 12.390625 C 21.011719 12.386719 20.855469 12.425781 20.714844 12.496094 L 8.980469 18.347656 C 8.8125 18.429688 8.671875 18.558594 8.578125 18.71875 C 7.671875 19.351563 7 20.3125 7 21.5 C 7 23.421875 8.578125 25 10.5 25 C 10.917969 25 11.269531 24.847656 11.628906 24.714844 C 11.785156 24.71875 11.941406 24.6875 12.082031 24.621094 L 21.203125 20.328125 L 23.414063 23.917969 L 7.582031 33.558594 C 3.734375 32.164063 1.679688 30.265625 1.679688 30.265625 C 1.480469 30.078125 1.21875 29.980469 0.945313 29.992188 C 0.539063 30.007813 0.183594 30.269531 0.046875 30.652344 C -0.0898438 31.035156 0.0195313 31.464844 0.320313 31.734375 C 0.320313 31.734375 2.789063 33.96875 7.242188 35.527344 C 7.335938 35.578125 7.4375 35.613281 7.542969 35.628906 C 9.867188 36.410156 12.695313 37 16 37 C 20.921875 37 24.386719 35.953125 27.371094 34.949219 C 30.351563 33.941406 32.8125 33 36 33 C 42.371094 33 48.457031 36.84375 48.457031 36.84375 C 48.925781 37.140625 49.542969 37.007813 49.84375 36.542969 C 50.140625 36.074219 50.007813 35.457031 49.542969 35.15625 C 49.542969 35.15625 43.160156 31 36 31 C 35.617188 31 35.246094 31.019531 34.878906 31.042969 C 34.949219 30.703125 35 30.355469 35 30 C 35 29.214844 34.699219 28.53125 34.378906 27.878906 C 34.382813 27.683594 34.328125 27.488281 34.222656 27.324219 L 25.421875 13.574219 C 25.417969 13.570313 25.414063 13.5625 25.410156 13.558594 C 24.785156 12.621094 23.707031 12 22.5 12 Z M 22.5 14 C 23.027344 14 23.476563 14.265625 23.746094 14.667969 L 32.1875 27.847656 L 32.542969 27.3125 C 32.324219 27.644531 32.316406 28.070313 32.53125 28.40625 C 32.828125 28.875 33 29.414063 33 30 C 33 30.476563 32.886719 30.917969 32.691406 31.3125 C 30.585938 31.699219 28.695313 32.386719 26.730469 33.050781 C 23.792969 34.046875 20.644531 35 16 35 C 13.820313 35 11.878906 34.730469 10.171875 34.324219 L 25.3125 25.105469 C 25.539063 24.964844 25.703125 24.742188 25.765625 24.484375 C 25.824219 24.222656 25.78125 23.949219 25.640625 23.722656 L 22.4375 18.515625 C 22.167969 18.085938 21.617188 17.921875 21.15625 18.136719 L 12.113281 22.394531 L 12.546875 23.261719 C 12.425781 23.019531 12.214844 22.839844 11.957031 22.753906 C 11.703125 22.671875 11.425781 22.695313 11.1875 22.820313 C 10.964844 22.9375 10.738281 23 10.5 23 C 9.65625 23 9 22.34375 9 21.5 C 9 20.894531 9.351563 20.394531 9.859375 20.152344 C 9.902344 20.132813 9.9375 20.109375 9.976563 20.085938 L 21.292969 14.441406 L 20.953125 14.363281 C 21.210938 14.421875 21.480469 14.375 21.703125 14.234375 C 21.945313 14.082031 22.207031 14 22.5 14 Z M 39.5 18 C 36.472656 18 34 20.472656 34 23.5 C 34 26.527344 36.472656 29 39.5 29 C 42.523438 29 45 26.527344 45 23.5 C 45 20.472656 42.523438 18 39.5 18 Z M 39.5 20 C 41.445313 20 43 21.554688 43 23.5 C 43 25.445313 41.445313 27 39.5 27 C 37.550781 27 36 25.449219 36 23.5 C 36 21.554688 37.554688 20 39.5 20 Z" fill="#000000"/></svg>
