<?xml version="1.0" encoding="utf-8"?>
<svg xmlns="http://www.w3.org/2000/svg" viewBox="0 0 50 50" fill="#000000"><path d="M 25 0 C 23.250001 0 21.810226 0.69225559 20.876953 1.7421875 C 19.943681 2.7921194 19.5 4.1527779 19.5 5.5 C 19.5 6.8472221 19.943681 8.2078806 20.876953 9.2578125 C 21.150532 9.5655894 21.550644 9.7621586 21.90625 10 L 13.376953 10 L 12.894531 9.0527344 L 12.892578 9.0507812 C 12.273207 7.8147644 10.867544 7.06621 9.4804688 7.5664062 C 8.3380375 7.9081551 7.6392213 8.9131459 7.5351562 10 L 0 10 L 0 12 L 8.0234375 12 L 11.798828 19.833984 A 1.0001 1.0001 0 0 0 11.804688 19.847656 C 12.343201 20.924684 13.710771 21.31356 14.748047 20.794922 A 1.0001 1.0001 0 0 0 14.759766 20.789062 L 19.099609 18.542969 L 19.099609 25.910156 L 17.115234 36.921875 A 1.0001 1.0001 0 0 0 17.113281 36.935547 C 16.980698 37.731048 17.142091 38.546708 17.542969 39.214844 L 22.525391 48.185547 A 1.0001 1.0001 0 0 0 22.552734 48.230469 C 23.207575 49.278251 24.329239 50 25.599609 50 C 26.166276 50 26.72879 49.853378 27.248047 49.59375 A 1.0001 1.0001 0 0 0 27.304688 49.564453 C 28.958209 48.599899 29.523889 46.510667 28.695312 44.853516 A 1.0001 1.0001 0 0 0 28.669922 44.806641 L 27.779297 43.236328 L 33.007812 38.007812 C 33.943027 37.0726 34.254059 35.702083 33.849609 34.486328 L 33.849609 34.484375 L 31 25.839844 L 31 18.441406 L 35.339844 20.6875 A 1.0001 1.0001 0 0 0 35.353516 20.695312 C 36.390791 21.21395 37.756408 20.825075 38.294922 19.748047 A 1.0001 1.0001 0 0 0 38.300781 19.734375 L 42.029297 12 L 50 12 L 50 10 L 42.560547 10 C 42.475592 8.898526 41.762388 7.868141 40.642578 7.4609375 A 1.0001 1.0001 0 0 0 40.617188 7.4511719 C 39.211222 6.9825171 37.798871 7.7655399 37.205078 8.953125 L 36.671875 10 L 28.09375 10 C 28.449356 9.7621586 28.849468 9.5655894 29.123047 9.2578125 C 30.056319 8.2078806 30.5 6.8472221 30.5 5.5 C 30.5 4.1527779 30.056319 2.7921194 29.123047 1.7421875 C 28.189774 0.69225559 26.749999 0 25 0 z M 25 2 C 26.249999 2 27.060226 2.4327444 27.626953 3.0703125 C 28.19368 3.7078806 28.5 4.5972221 28.5 5.5 C 28.5 6.4027779 28.19368 7.2921194 27.626953 7.9296875 C 27.060226 8.5672556 26.249999 9 25 9 C 23.750001 9 22.939774 8.5672556 22.373047 7.9296875 C 21.80632 7.2921194 21.5 6.4027779 21.5 5.5 C 21.5 4.5972221 21.80632 3.7078806 22.373047 3.0703125 C 22.939774 2.4327444 23.750001 2 25 2 z M 39.685547 9.3203125 C 39.779799 9.3116951 39.877059 9.3226197 39.974609 9.3535156 C 40.318319 9.4857019 40.507243 9.7284882 40.566406 10 L 38.916016 10 L 38.990234 9.8535156 A 1.0001 1.0001 0 0 0 38.994141 9.8476562 C 39.147334 9.5412695 39.402791 9.3461647 39.685547 9.3203125 z M 10.359375 9.4335938 C 10.614975 9.4842078 10.973174 9.6826758 11.105469 9.9472656 A 1.0001 1.0001 0 0 0 11.109375 9.953125 L 11.132812 10 L 9.5566406 10 C 9.6346098 9.748734 9.8086937 9.5340636 10.0625 9.4648438 A 1.0001 1.0001 0 0 0 10.150391 9.4355469 C 10.200749 9.4166624 10.274175 9.4167224 10.359375 9.4335938 z M 10.244141 12 L 12.152344 12 L 13.808594 15.253906 A 1.0001 1.0001 0 0 0 15.3125 15.589844 L 19.943359 12 L 30.068359 12 L 34.804688 15.503906 A 1.0001 1.0001 0 0 0 36.291016 15.154297 L 37.896484 12 L 39.808594 12 L 36.505859 18.853516 C 36.444369 18.976488 36.410769 18.987616 36.248047 18.90625 L 30.458984 15.912109 A 1.0001 1.0001 0 0 0 29 16.800781 L 29 26 A 1.0001 1.0001 0 0 0 29.050781 26.3125 L 31.951172 35.113281 A 1.0001 1.0001 0 0 0 31.951172 35.117188 C 32.145763 35.70096 32.058048 36.129452 31.59375 36.59375 L 26.757812 41.429688 L 25.375 38.988281 L 28.453125 35.457031 A 1.0001 1.0001 0 0 0 28.607422 34.378906 L 25.90625 28.578125 A 1.0001 1.0001 0 0 0 24.027344 28.769531 L 22.126953 36.769531 A 1.0001 1.0001 0 0 0 22.230469 37.492188 L 26.90625 45.751953 C 27.270869 46.485737 27.037906 47.374147 26.3125 47.814453 C 26.051155 47.938478 25.820313 48 25.599609 48 C 25.06998 48 24.593216 47.722192 24.248047 47.169922 L 19.273438 38.214844 A 1.0001 1.0001 0 0 0 19.257812 38.185547 C 19.059103 37.854362 19.019095 37.668399 19.085938 37.265625 C 19.085938 37.265625 19.085938 37.263672 19.085938 37.263672 L 21.083984 26.177734 A 1.0001 1.0001 0 0 0 21.099609 26 L 21.099609 16.900391 A 1.0001 1.0001 0 0 0 19.640625 16.011719 L 13.853516 19.005859 C 13.853516 19.005859 13.851562 19.005859 13.851562 19.005859 C 13.69301 19.084729 13.65592 19.072725 13.595703 18.953125 L 13.59375 18.953125 L 10.244141 12 z M 14.396484 12 L 16.677734 12 L 15.042969 13.269531 L 14.396484 12 z M 33.431641 12 L 35.652344 12 L 35.044922 13.193359 L 33.431641 12 z M 25.308594 32.03125 L 26.519531 34.632812 L 24.330078 37.144531 L 24.164062 36.849609 L 25.308594 32.03125 z" fill="#000000"/></svg>
