<?xml version="1.0" encoding="utf-8"?>
<svg xmlns="http://www.w3.org/2000/svg" viewBox="0 0 50 50" fill="#000000"><path d="M 28.998047 2 C 26.248984 2 24 4.2503431 24 6.9980469 C 24 9.7472611 26.248984 12 28.998047 12 C 31.750887 12 34 9.7469594 34 6.9980469 C 34 4.2506451 31.750887 2 28.998047 2 z M 28.998047 4 C 30.671207 4 32 5.3314486 32 6.9980469 C 32 8.6671344 30.671207 10 28.998047 10 C 27.33111 10 26 8.6668326 26 6.9980469 C 26 5.3317507 27.33111 4 28.998047 4 z M 21 13 C 20.72081 13 20.444277 13.03929 20.177734 13.115234 A 1.0001 1.0001 0 0 0 20.175781 13.115234 L 13.175781 15.115234 C 12.422568 15.329795 11.782791 15.831139 11.394531 16.511719 L 11.431641 16.453125 L 7.4316406 22.453125 A 1.0001 1.0001 0 0 0 7.3945312 22.511719 C 6.5783952 23.939957 7.0832856 25.789221 8.5117188 26.605469 C 8.9779466 26.870581 9.4933961 27 9.9980469 27 C 11.039789 27 12.05381 26.450638 12.603516 25.488281 L 12.5625 25.554688 L 15.955078 20.5625 L 18.162109 19.931641 C 17.577497 21.045471 16.978463 22.131102 16.46875 23.255859 C 15.640988 25.082438 14.977348 26.656791 15 28.03125 L 15 35.914062 L 8.2988281 41.775391 C 6.8898139 43.009134 6.5525488 45.196875 7.7792969 46.705078 A 1.0001 1.0001 0 0 0 7.78125 46.705078 C 8.4725138 47.552877 9.4882176 48 10.501953 48 C 11.31883 48 12.14456 47.711508 12.804688 47.134766 A 1.0001 1.0001 0 0 0 12.804688 47.132812 L 20.804688 40.132812 C 21.563897 39.468901 22 38.508564 22 37.5 L 22 34.460938 L 24.273438 37.113281 L 26.082031 45.259766 C 26.442531 46.88132 27.890732 48 29.498047 48 C 29.839812 48 30.186162 47.94829 30.525391 47.845703 C 32.324999 47.300281 33.286601 45.402694 32.892578 43.628906 L 30.916016 34.738281 C 30.791411 34.17826 30.531341 33.658683 30.158203 33.222656 A 1.0001 1.0001 0 0 0 30.148438 33.210938 L 25.203125 27.583984 L 27.888672 22.40625 L 29.558594 24.742188 C 30.121225 25.531323 31.032019 26 32 26 L 35.029297 26 C 34.393077 26.83877 34 27.870854 34 28.998047 C 34 31.747261 36.248984 34 38.998047 34 C 41.750887 34 44 31.746959 44 28.998047 C 44 26.840293 42.604849 25.007782 40.675781 24.3125 C 40.945328 23.773361 41.06646 23.152042 40.960938 22.503906 C 40.714627 20.990639 39.344401 20 37.892578 20 L 33.544922 20 L 30.078125 15.146484 A 1.0001 1.0001 0 0 0 30.078125 15.144531 C 29.116066 13.798937 27.560072 13 25.90625 13 L 21 13 z M 21 15 L 25.90625 15 C 26.916428 15 27.863231 15.486235 28.451172 16.308594 L 32.216797 21.582031 A 1.0001 1.0001 0 0 0 33.029297 22 L 37.892578 22 C 38.432755 22 38.912638 22.371486 38.986328 22.824219 C 39.095517 23.494874 38.620761 24 38 24 L 32 24 C 31.675981 24 31.372951 23.844897 31.185547 23.582031 A 1.0001 1.0001 0 0 0 31.185547 23.580078 L 28.566406 19.914062 A 1.0001 1.0001 0 0 0 26.865234 20.035156 L 23.111328 27.271484 A 1.0001 1.0001 0 0 0 23.248047 28.390625 L 28.640625 34.523438 C 28.800554 34.710985 28.91164 34.934711 28.964844 35.173828 L 28.962891 35.173828 L 30.939453 44.0625 C 31.119431 44.872712 30.679705 45.709062 29.945312 45.931641 C 29.789332 45.978672 29.641669 46 29.498047 46 C 28.813362 46 28.192656 45.532665 28.035156 44.824219 L 26.171875 36.435547 A 1.0001 1.0001 0 0 0 25.955078 36.001953 L 21.759766 31.107422 A 1.0001 1.0001 0 0 0 20 31.757812 L 20 37.5 C 20 37.933436 19.813072 38.344865 19.488281 38.628906 L 11.488281 45.628906 C 11.198408 45.882164 10.853076 46 10.501953 46 C 10.066564 46 9.6386363 45.818028 9.3320312 45.443359 L 9.3320312 45.441406 C 8.8342473 44.827558 8.9687409 43.849035 9.6171875 43.28125 L 16.658203 37.119141 A 1.0001 1.0001 0 0 0 17 36.367188 L 17 28.015625 A 1.0001 1.0001 0 0 0 17 27.998047 C 16.9917 27.491506 17.499325 25.824703 18.289062 24.082031 C 19.0788 22.33936 20.101992 20.406681 20.972656 18.820312 A 1.0001 1.0001 0 0 0 19.822266 17.376953 L 15.056641 18.738281 A 1.0001 1.0001 0 0 0 14.505859 19.138672 L 10.908203 24.429688 A 1.0001 1.0001 0 0 0 10.867188 24.496094 C 10.678888 24.825735 10.344304 25 9.9980469 25 C 9.8306977 25 9.6617717 24.958075 9.5019531 24.867188 C 9.0169711 24.588273 8.8555672 23.999134 9.1289062 23.511719 L 13.095703 17.5625 A 1.0001 1.0001 0 0 0 13.130859 17.503906 C 13.260599 17.276486 13.473823 17.110502 13.724609 17.039062 L 20.724609 15.039062 C 20.816063 15.013001 20.90719 15 21 15 z M 38.998047 26 C 40.671207 26 42 27.331449 42 28.998047 C 42 30.667134 40.671207 32 38.998047 32 C 37.33111 32 36 30.666833 36 28.998047 C 36 27.331751 37.33111 26 38.998047 26 z" fill="#000000"/></svg>
