<?xml version="1.0" encoding="utf-8"?>
<svg xmlns="http://www.w3.org/2000/svg" viewBox="0 0 50 50" fill="#000000"><path d="M 12 3 C 9.2504209 3 7 5.2504209 7 8 C 7 10.749579 9.2504209 13 12 13 C 14.749579 13 17 10.749579 17 8 C 17 5.2504209 14.749579 3 12 3 z M 47.019531 3.0527344 A 1.0001 1.0001 0 0 0 46.320312 3.328125 L 31.740234 16.822266 C 31.545809 16.371807 31.255603 15.964226 30.865234 15.654297 C 30.203234 15.128297 29.343813 14.903969 28.507812 15.042969 L 23.615234 15.857422 L 20.535156 13.857422 C 19.610156 13.301422 18.549797 13.004953 17.466797 13.001953 L 17.449219 13.001953 C 17.013219 13.001953 16.578203 13.049578 16.158203 13.142578 L 10.373047 14.423828 C 8.2990469 14.882828 6.524 16.118297 5.375 17.904297 L 2.6503906 22.134766 C 2.0473906 22.893766 1.8482344 23.893219 2.1152344 24.824219 L 4.1152344 31.824219 C 4.3947082 32.800473 5.1503234 33.550431 6.0820312 33.853516 L 2.1113281 41.541016 A 1.000202 1.000202 0 1 0 3.8886719 42.458984 L 8.4492188 33.625 C 8.4791426 33.605662 8.5081103 33.586783 8.5390625 33.568359 C 8.5350625 33.560359 8.5322969 33.554828 8.5292969 33.548828 L 8.8652344 33.349609 L 12.724609 31.074219 L 14.482422 30.037109 L 20.013672 26.775391 L 23.023438 25 L 30.710938 20.466797 A 1.0001 1.0001 0 0 0 30.882812 20.339844 L 47.679688 4.796875 A 1.0001 1.0001 0 0 0 47.019531 3.0527344 z M 12 5 C 13.668699 5 15 6.3313011 15 8 C 15 9.6686989 13.668699 11 12 11 C 10.331301 11 9 9.6686989 9 8 C 9 6.3313011 10.331301 5 12 5 z M 47.003906 11.998047 A 1.0001 1.0001 0 0 0 46.835938 12.013672 C 46.835938 12.013672 45.006947 12.345289 43.197266 14.015625 C 41.387584 15.685961 39.525238 18.707119 39.005859 23.900391 A 1.0001 1.0001 0 1 0 40.994141 24.097656 C 41.474762 19.291928 43.112416 16.813789 44.552734 15.484375 C 45.993053 14.154961 47.164064 13.986328 47.164062 13.986328 A 1.0001 1.0001 0 0 0 47.003906 11.998047 z M 17.449219 15 L 17.460938 15 C 18.182938 15.002 18.889562 15.199734 19.476562 15.552734 L 22.853516 17.744141 C 23.062516 17.879141 23.3145 17.932578 23.5625 17.892578 L 28.832031 17.013672 C 29.113031 16.968672 29.401047 17.042703 29.623047 17.220703 C 29.846047 17.397703 29.979047 17.6515 29.998047 17.9375 C 30.031047 18.4325 29.604828 18.913859 29.048828 19.005859 L 23.15625 19.986328 C 22.95525 20.021328 22.752266 19.990344 22.572266 19.902344 L 18.982422 18.105469 C 18.623422 17.925469 18.197625 17.975422 17.890625 18.232422 C 17.584625 18.489422 17.461172 18.903156 17.576172 19.285156 L 19.261719 24.898438 L 13.478516 28.308594 L 11.197266 20.714844 C 11.093266 20.364844 10.807172 20.100437 10.451172 20.023438 C 10.095172 19.949437 9.7253281 20.06875 9.4863281 20.34375 L 6.4609375 23.810547 C 6.2379375 24.065547 6.1589531 24.416188 6.2519531 24.742188 L 7.9375 30.642578 C 8.0594684 31.066891 7.9231833 31.504655 7.6328125 31.755859 L 7.3183594 31.941406 C 6.7744413 32.11685 6.1912171 31.80612 6.0390625 31.275391 L 4.0390625 24.273438 C 3.9480625 23.955437 4.0194219 23.614375 4.2324219 23.359375 C 4.2574219 23.328375 4.2836875 23.294766 4.3046875 23.259766 L 7.0566406 18.984375 C 7.9186406 17.644375 9.2496875 16.716047 10.804688 16.373047 L 16.591797 15.09375 C 16.870797 15.03075 17.159219 15 17.449219 15 z M 46.980469 16.992188 A 1.0001 1.0001 0 0 0 46.445312 17.166016 C 46.445312 17.166016 46.088972 17.426569 45.744141 17.867188 C 45.399309 18.307806 44.978571 18.986191 44.572266 20.001953 C 43.759656 22.033478 43 25.407138 43 30.998047 L 43 33.998047 A 1.0001 1.0001 0 1 0 45 33.998047 L 45 30.998047 C 45 25.588956 45.740344 22.464569 46.427734 20.746094 C 46.771429 19.886856 47.100691 19.377741 47.318359 19.099609 C 47.536028 18.821478 47.554687 18.830078 47.554688 18.830078 A 1.0001 1.0001 0 0 0 46.980469 16.992188 z M 20.158203 20.931641 L 21.685547 21.697266 C 22.254547 21.975266 22.882188 22.069937 23.492188 21.960938 L 24.537109 21.787109 L 21.035156 23.851562 L 20.158203 20.931641 z M 9.8027344 23.021484 L 11.632812 29.121094 C 11.656778 29.198876 11.689455 29.271804 11.716797 29.347656 L 9.9257812 30.404297 C 9.9069717 30.299951 9.890981 30.195582 9.8613281 30.091797 L 8.3242188 24.714844 L 9.8027344 23.021484 z M 26.960938 25 L 23.570312 27 L 27.501953 27 L 27.503906 27 C 27.852906 27 28.192531 27.122156 28.394531 27.285156 L 33.394531 32.285156 C 33.415531 32.306156 33.438937 32.327656 33.460938 32.347656 C 33.769937 32.603656 33.958141 32.965234 33.994141 33.365234 C 34.030141 33.763234 33.907391 34.152937 33.650391 34.460938 C 33.150391 35.064937 32.194172 35.166594 31.576172 34.683594 L 27.552734 30.505859 C 27.343734 30.287859 27.044 30.177172 26.75 30.201172 C 26.75 30.201172 17.322063 30.974281 17.164062 30.988281 C 17.057063 30.996281 16.956328 31 16.861328 31 C 16.839328 31 16.817875 30.995141 16.796875 30.994141 L 16.025391 31.449219 L 14.298828 32.466797 C 14.334828 32.527797 14.357203 32.593438 14.408203 32.648438 L 19 37.607422 L 19 43.5 C 19 45.43 20.57 47 22.5 47 C 24.43 47 26 45.43 26 43.5 L 26 36.5 C 26 35.888 25.837484 35.282375 25.521484 34.734375 C 25.497733 34.69479 24.408012 33.290808 23.759766 32.453125 C 24.907052 32.359067 25.878593 32.27866 26.441406 32.232422 L 30.177734 36.113281 C 30.202734 36.139281 30.231766 36.166453 30.259766 36.189453 C 30.887766 36.712453 31.682047 37 32.498047 37 C 33.541047 37 34.5215 36.540234 35.1875 35.740234 C 35.7875 35.022234 36.069375 34.114594 35.984375 33.183594 C 35.901375 32.269594 35.474344 31.43875 34.777344 30.84375 L 29.740234 25.8125 C 29.113234 25.2885 28.318859 25 27.505859 25 L 27.5 25 L 26.960938 25 z M 39.984375 26.984375 A 1.0001 1.0001 0 0 0 39 27.998047 C 39 30.797221 38.74628 34.457729 37.675781 37.703125 C 36.605282 40.948521 34.777984 43.720429 31.605469 45.080078 A 1.0001 1.0001 0 1 0 32.394531 46.917969 C 36.222016 45.277618 38.394718 41.905932 39.574219 38.330078 C 40.75372 34.754224 41 30.913873 41 27.998047 A 1.0001 1.0001 0 0 0 39.984375 26.984375 z M 21.384766 32.648438 C 21.843823 33.240699 23.518617 35.399006 23.826172 35.798828 C 23.940172 36.015828 24 36.257 24 36.5 L 24 43.5 C 24 44.327 23.327 45 22.5 45 C 21.673 45 21 44.327 21 43.5 L 21 37.216797 C 21 36.964797 20.905375 36.723109 20.734375 36.537109 L 17.435547 32.972656 C 17.559986 32.962134 19.690945 32.787314 21.384766 32.648438 z M 43.984375 36.984375 A 1.0001 1.0001 0 0 0 43 37.998047 C 43 40.83138 42.301785 42.635697 41.642578 43.734375 C 40.983371 44.833053 40.445312 45.166016 40.445312 45.166016 A 1.0001 1.0001 0 1 0 41.554688 46.830078 C 41.554688 46.830078 42.516629 46.164994 43.357422 44.763672 C 44.198215 43.36235 45 41.164714 45 37.998047 A 1.0001 1.0001 0 0 0 43.984375 36.984375 z" fill="#000000"/></svg>
