<?xml version="1.0" encoding="utf-8"?>
<svg xmlns="http://www.w3.org/2000/svg" viewBox="0 0 50 50" fill="#000000"><path d="M 2.875 2 C 2.394531 2.070313 2.035156 2.472656 2.019531 2.957031 C 2.003906 3.441406 2.335938 3.871094 2.8125 3.96875 L 46.8125 11.96875 C 47.183594 12.105469 47.601563 12.011719 47.878906 11.726563 C 48.15625 11.441406 48.234375 11.019531 48.085938 10.652344 C 47.9375 10.285156 47.582031 10.042969 47.1875 10.03125 L 29.28125 6.78125 C 29.714844 6.519531 30 6.042969 30 5.5 C 30 4.671875 29.328125 4 28.5 4 C 27.671875 4 27 4.671875 27 5.5 C 27 5.84375 27.121094 6.152344 27.3125 6.40625 L 23.40625 5.71875 C 23.773438 5.445313 24 4.992188 24 4.5 C 24 3.671875 23.328125 3 22.5 3 C 21.671875 3 21 3.671875 21 4.5 C 21 4.800781 21.097656 5.078125 21.25 5.3125 L 3.1875 2.03125 C 3.085938 2.003906 2.980469 1.992188 2.875 2 Z M 21.40625 8.84375 C 21.652344 10.425781 22.367188 12.085938 24 12.75 L 24 16.8125 C 23.777344 16.960938 23.558594 17.132813 23.375 17.34375 L 19.15625 22.15625 L 15.90625 23 C 14.949219 23.238281 14.070313 23.710938 13.375 24.40625 L 11.03125 26.75 C 9.6875 28.09375 9.6875 30.3125 11.03125 31.65625 L 18.625 39.25 C 19.847656 40.472656 21.507813 41.078125 23.15625 41 L 31.875 42.40625 L 39.3125 47.46875 C 40.726563 48.414063 42.644531 48.09375 43.6875 46.75 C 44.828125 45.277344 44.511719 43.109375 42.96875 42.0625 L 35.34375 36.8125 C 34.996094 36.570313 34.609375 36.417969 34.1875 36.34375 L 33.0625 36.15625 L 34.96875 35.0625 L 41.65625 39.15625 C 43.140625 40.066406 45.097656 39.640625 46.0625 38.1875 C 47.058594 36.691406 46.632813 34.636719 45.125 33.65625 L 36.875 28.25 C 35.761719 27.523438 34.335938 27.449219 33.15625 28.0625 L 26 31.78125 L 26 23.03125 L 27.6875 21.1875 C 28.777344 20.003906 28.675781 18.125 27.46875 17.0625 C 27.046875 16.691406 26.527344 16.492188 26 16.40625 L 26 13.03125 C 26.851563 12.941406 27.460938 12.597656 27.84375 12.25 C 28.441406 11.710938 28.78125 10.980469 29 10.25 L 27.03125 9.875 C 26.90625 10.222656 26.734375 10.535156 26.5 10.75 C 26.304688 10.929688 25.957031 11.167969 25.1875 11.03125 C 25.1875 11.03125 25.15625 11 25.15625 11 C 24.210938 10.835938 23.765625 10.09375 23.53125 9.25 Z M 9 15 C 6.25 15 4 17.25 4 20 C 4 22.75 6.25 25 9 25 C 11.75 25 14 22.75 14 20 C 14 17.25 11.75 15 9 15 Z M 9 17 C 10.667969 17 12 18.332031 12 20 C 12 21.667969 10.667969 23 9 23 C 7.332031 23 6 21.667969 6 20 C 6 18.332031 7.332031 17 9 17 Z M 25.46875 18.34375 C 25.695313 18.328125 25.933594 18.394531 26.125 18.5625 C 26.511719 18.902344 26.535156 19.464844 26.1875 19.84375 L 21.53125 24.90625 L 17.46875 26.09375 C 17.125 26.195313 16.859375 26.472656 16.777344 26.820313 C 16.691406 27.167969 16.800781 27.535156 17.0625 27.78125 L 23.71875 34.4375 C 24.03125 34.730469 24.496094 34.796875 24.875 34.59375 L 34.0625 29.84375 C 34.609375 29.5625 35.269531 29.601563 35.78125 29.9375 L 44.03125 35.3125 C 44.625 35.699219 44.800781 36.46875 44.40625 37.0625 C 44.023438 37.636719 43.273438 37.796875 42.6875 37.4375 L 35.53125 33.03125 C 35.214844 32.839844 34.816406 32.839844 34.5 33.03125 L 29.75 35.71875 C 29.695313 35.746094 29.644531 35.777344 29.59375 35.8125 L 24.84375 38.46875 C 24.3125 38.769531 23.734375 38.925781 23.15625 38.96875 C 23.0625 38.964844 22.964844 38.976563 22.875 39 C 21.835938 39.003906 20.808594 38.589844 20.03125 37.8125 L 12.4375 30.25 C 11.859375 29.671875 11.859375 28.765625 12.4375 28.1875 L 14.78125 25.84375 C 15.222656 25.402344 15.769531 25.089844 16.375 24.9375 L 19.90625 24.03125 C 20.113281 23.984375 20.296875 23.875 20.4375 23.71875 L 24.875 18.65625 C 25.042969 18.464844 25.242188 18.359375 25.46875 18.34375 Z M 24 25.21875 L 24 31.875 L 19.6875 27.5625 L 22.34375 26.78125 C 22.523438 26.734375 22.683594 26.636719 22.8125 26.5 Z M 30.3125 37.6875 L 33.84375 38.3125 C 33.980469 38.335938 34.105469 38.390625 34.21875 38.46875 L 41.8125 43.71875 C 41.824219 43.71875 41.832031 43.71875 41.84375 43.71875 C 42.457031 44.132813 42.578125 44.945313 42.125 45.53125 C 41.714844 46.0625 40.996094 46.183594 40.4375 45.8125 L 32.8125 40.625 C 32.691406 40.542969 32.550781 40.492188 32.40625 40.46875 L 26.96875 39.59375 Z" fill="#000000"/></svg>
