<?xml version="1.0" encoding="utf-8"?>
<svg xmlns="http://www.w3.org/2000/svg" viewBox="0 0 50 50" fill="#000000"><path d="M 43.152344 2 C 42.703125 2 42.3125 2.296875 42.1875 2.726563 L 35.4375 26.222656 C 34.261719 30.300781 30.566406 33 26.402344 33 L 25.15625 33 C 25.097656 32.992188 25.042969 32.984375 24.984375 32.984375 C 24.9375 32.988281 24.886719 32.992188 24.839844 33 L 11.15625 33 C 11.097656 32.992188 11.042969 32.984375 10.984375 32.984375 C 10.9375 32.988281 10.886719 32.992188 10.839844 33 L 9.5 33 C 5.34375 33 2 36.449219 2 40.5 C 2 44.636719 5.363281 48 9.5 48 L 10.832031 48 C 10.941406 48.019531 11.050781 48.019531 11.15625 48 L 23.902344 48 C 24.167969 48 24.433594 47.980469 24.699219 47.96875 C 24.941406 48.042969 25.203125 48.023438 25.433594 47.914063 C 31.503906 47.300781 36.585938 43.089844 38.359375 37.082031 C 38.359375 37.082031 38.359375 37.078125 38.359375 37.074219 L 39.160156 34.277344 C 39.164063 34.273438 39.164063 34.273438 39.160156 34.269531 L 47.933594 3.273438 C 48.015625 2.96875 47.957031 2.644531 47.765625 2.394531 C 47.578125 2.148438 47.28125 2 46.96875 2 Z M 43.902344 4 L 45.644531 4 L 37.238281 33.726563 L 36.4375 36.527344 C 34.960938 41.523438 30.929688 45.046875 26 45.832031 L 26 35 L 26.402344 35 C 31.433594 35 35.9375 31.703125 37.359375 26.777344 C 37.363281 26.777344 37.363281 26.777344 37.359375 26.777344 Z M 15 7 C 11.574219 7 8.46875 7.566406 6.132813 8.539063 C 4.960938 9.027344 3.980469 9.617188 3.242188 10.34375 C 2.570313 11.003906 2.109375 11.832031 2.03125 12.746094 C 2.011719 12.828125 2 12.914063 2 13 L 2 20 C 2 21.019531 2.507813 21.945313 3.246094 22.675781 C 3.984375 23.40625 4.972656 23.988281 6.140625 24.472656 C 8.484375 25.445313 11.589844 26 15 26 C 18.410156 26 21.515625 25.445313 23.859375 24.472656 C 25.027344 23.988281 26.015625 23.40625 26.753906 22.675781 C 27.492188 21.945313 28 21.019531 28 20 L 28 13 C 28 12.914063 27.988281 12.828125 27.96875 12.746094 C 27.890625 11.835938 27.433594 11.003906 26.757813 10.34375 C 26.019531 9.617188 25.039063 9.027344 23.871094 8.539063 C 21.53125 7.566406 18.425781 7 15 7 Z M 15 9 C 18.199219 9 21.097656 9.550781 23.101563 10.386719 C 24.105469 10.804688 24.878906 11.296875 25.355469 11.765625 C 25.832031 12.234375 26 12.632813 26 13 C 26 13.367188 25.832031 13.765625 25.355469 14.234375 C 24.878906 14.703125 24.105469 15.195313 23.101563 15.613281 C 21.097656 16.449219 18.199219 17 15 17 C 11.800781 17 8.902344 16.449219 6.898438 15.613281 C 5.894531 15.195313 5.121094 14.703125 4.644531 14.234375 C 4.167969 13.765625 4 13.367188 4 13 C 4 12.632813 4.167969 12.234375 4.644531 11.765625 C 5.121094 11.296875 5.894531 10.804688 6.898438 10.386719 C 8.902344 9.550781 11.800781 9 15 9 Z M 4 16.285156 C 4.609375 16.734375 5.320313 17.121094 6.132813 17.457031 C 8.46875 18.433594 11.574219 19 15 19 C 18.425781 19 21.53125 18.433594 23.871094 17.457031 C 24.679688 17.121094 25.390625 16.734375 26 16.285156 L 26 20 C 26 20.378906 25.832031 20.777344 25.351563 21.25 C 24.871094 21.722656 24.09375 22.210938 23.09375 22.625 C 21.085938 23.457031 18.1875 24 15 24 C 11.8125 24 8.914063 23.457031 6.90625 22.625 C 5.90625 22.210938 5.128906 21.722656 4.648438 21.25 C 4.167969 20.777344 4 20.378906 4 20 Z M 9.5 35 L 10 35 L 10 46 L 9.5 46 C 6.4375 46 4 43.5625 4 40.5 C 4 37.550781 6.457031 35 9.5 35 Z M 12 35 L 24 35 L 24 45.996094 C 23.964844 45.996094 23.933594 46 23.902344 46 L 12 46 Z" fill="#000000"/></svg>
