<?xml version="1.0" encoding="utf-8"?>
<svg xmlns="http://www.w3.org/2000/svg" viewBox="0 0 50 50" fill="#000000"><path d="M 43 2 C 40.25 2 38 4.25 38 7 C 38 9.746094 40.25 12 43 12 C 45.75 12 48 9.746094 48 7 C 48 4.25 45.75 2 43 2 Z M 43 4 C 44.667969 4 46 5.332031 46 7 C 46 8.667969 44.667969 10 43 10 C 41.332031 10 40 8.667969 40 7 C 40 5.332031 41.332031 4 43 4 Z M 11.996094 5.992188 C 11.550781 5.988281 11.160156 6.28125 11.03125 6.707031 C 10.902344 7.128906 11.070313 7.589844 11.441406 7.828125 L 20.242188 13.734375 C 18.898438 14.910156 18 16.578125 18 18.5 C 18 20.378906 18.875 22.023438 20.15625 23.210938 C 20.230469 23.386719 20.351563 23.539063 20.503906 23.652344 L 27.136719 28.328125 L 23.015625 33.046875 L 23.074219 32.984375 C 22.417969 33.613281 22 34.511719 22 35.5 C 22 35.632813 22.027344 35.761719 22.042969 35.890625 L 4.484375 26.125 C 4.339844 26.042969 4.175781 25.996094 4.007813 25.996094 C 3.546875 25.984375 3.140625 26.292969 3.023438 26.738281 C 2.90625 27.183594 3.109375 27.652344 3.515625 27.875 L 38.308594 47.230469 C 38.335938 47.246094 38.359375 47.257813 38.386719 47.269531 C 38.386719 47.269531 39.710938 47.867188 41.40625 47.984375 C 43.101563 48.097656 45.351563 47.667969 46.84375 45.640625 C 47.066406 45.351563 47.117188 44.964844 46.976563 44.628906 C 46.832031 44.296875 46.519531 44.0625 46.15625 44.027344 C 45.792969 43.992188 45.4375 44.15625 45.234375 44.453125 C 44.210938 45.84375 42.835938 46.074219 41.539063 45.984375 C 40.25 45.898438 39.230469 45.453125 39.21875 45.449219 L 26.953125 38.625 C 27.328125 38.429688 27.667969 38.175781 27.957031 37.875 C 28.070313 37.816406 28.171875 37.738281 28.257813 37.640625 L 35.152344 29.785156 C 35.3125 29.601563 35.402344 29.363281 35.398438 29.113281 C 35.683594 28.613281 36 28.117188 36 27.5 C 36 26.289063 35.378906 25.210938 34.4375 24.585938 L 34.5 24.628906 L 29.1875 20.476563 L 29.765625 20.125 L 33.308594 22.503906 C 33.339844 22.527344 33.371094 22.546875 33.40625 22.5625 C 33.519531 22.660156 33.636719 22.746094 33.761719 22.828125 L 39.160156 26.347656 L 39.058594 26.273438 C 39.1875 26.386719 39.351563 26.472656 39.511719 26.566406 C 39.578125 26.625 39.65625 26.675781 39.734375 26.714844 C 39.738281 26.714844 39.738281 26.714844 39.738281 26.71875 C 39.738281 26.71875 39.742188 26.714844 39.742188 26.71875 C 39.871094 26.777344 40.007813 26.808594 40.152344 26.8125 C 40.425781 26.894531 40.691406 27 41 27 C 42.644531 27 44 25.644531 44 24 C 44 22.820313 43.308594 21.796875 42.308594 21.308594 L 42.300781 21.308594 L 38 18.597656 L 38 11 C 38 8.25 35.75 6 33 6 C 31.898438 6 30.886719 6.367188 30.070313 6.960938 L 21.890625 12.433594 L 12.558594 6.171875 C 12.390625 6.054688 12.195313 5.992188 11.996094 5.992188 Z M 33 8 C 34.667969 8 36 9.332031 36 11 L 36 19.152344 C 36 19.496094 36.175781 19.816406 36.46875 20 L 41.242188 23 C 41.289063 23.03125 41.335938 23.058594 41.386719 23.078125 C 41.746094 23.230469 42 23.578125 42 24 C 42 24.5625 41.5625 25 41 25 C 40.859375 25 40.722656 24.96875 40.589844 24.90625 C 40.589844 24.90625 40.585938 24.90625 40.585938 24.90625 C 40.585938 24.90625 40.582031 24.90625 40.582031 24.90625 C 40.507813 24.867188 40.433594 24.820313 40.355469 24.753906 C 40.324219 24.726563 40.289063 24.699219 40.25 24.675781 L 34.855469 21.152344 C 34.320313 20.804688 34 20.210938 34 19.574219 L 34 17.015625 C 34 16.652344 33.804688 16.320313 33.492188 16.144531 C 33.179688 15.964844 32.792969 15.96875 32.484375 16.15625 L 29.828125 17.757813 L 23.6875 13.636719 L 31.214844 8.601563 C 31.226563 8.59375 31.234375 8.585938 31.246094 8.578125 C 31.746094 8.214844 32.34375 8 33 8 Z M 21.894531 14.84375 L 27.9375 18.898438 L 26.914063 19.515625 C 26.632813 19.683594 26.453125 19.980469 26.433594 20.308594 C 26.414063 20.636719 26.554688 20.957031 26.8125 21.15625 L 33.265625 26.207031 C 33.285156 26.222656 33.308594 26.238281 33.328125 26.25 C 33.734375 26.523438 34 26.972656 34 27.5 C 34 27.863281 33.867188 28.191406 33.636719 28.464844 C 33.460938 28.667969 33.375 28.9375 33.402344 29.203125 L 33.355469 28.800781 L 26.808594 36.265625 C 26.769531 36.304688 26.734375 36.34375 26.703125 36.386719 C 26.421875 36.761719 25.996094 37 25.5 37 C 24.660156 37 24 36.335938 24 35.5 C 24 35.070313 24.175781 34.699219 24.464844 34.421875 C 24.484375 34.402344 24.503906 34.382813 24.519531 34.359375 L 29.371094 28.8125 C 29.558594 28.597656 29.644531 28.316406 29.609375 28.035156 C 29.578125 27.753906 29.425781 27.5 29.191406 27.335938 L 22.125 22.34375 L 22.082031 22.878906 C 22.105469 22.550781 21.964844 22.230469 21.707031 22.023438 C 20.667969 21.195313 20 19.933594 20 18.5 C 20 16.980469 20.753906 15.660156 21.894531 14.84375 Z M 32 18.78125 L 32 19.21875 L 31.65625 18.988281 Z" fill="#000000"/></svg>
