<?xml version="1.0" encoding="utf-8"?>
<svg xmlns="http://www.w3.org/2000/svg" viewBox="0 0 50 50" fill="#000000"><path d="M 22.5 6 C 22.008265 6 21.58964 6.2054051 21.167969 6.3886719 A 1.0001 1.0001 0 0 0 20.714844 6.4941406 L 8.9804688 12.347656 A 1.0001 1.0001 0 0 0 8.5761719 12.71875 C 7.6703076 13.350046 7 14.313554 7 15.498047 C 7 17.419972 8.578685 19 10.5 19 C 10.917376 19 11.270853 18.846549 11.630859 18.714844 A 1.0001 1.0001 0 0 0 12.082031 18.621094 L 21.201172 14.328125 L 23.412109 17.916016 L 11.482422 25.144531 A 1.0001 1.0001 0 1 0 12.517578 26.855469 L 25.310547 19.105469 A 1.0001 1.0001 0 0 0 25.642578 17.724609 L 22.435547 12.517578 A 1.0001 1.0001 0 0 0 21.158203 12.136719 L 12.113281 16.396484 L 12.544922 17.259766 A 1.0001 1.0001 0 0 0 11.1875 16.820312 C 10.963443 16.937521 10.737943 17 10.5 17 C 9.657315 17 9 16.342122 9 15.498047 C 9 14.894952 9.3516119 14.393458 9.8613281 14.150391 A 1.0001 1.0001 0 0 0 9.9746094 14.085938 L 21.291016 8.4414062 L 20.953125 8.3652344 A 1.0001 1.0001 0 0 0 21.705078 8.234375 C 21.944018 8.0833354 22.208639 8 22.5 8 C 23.027131 8 23.476636 8.2643831 23.746094 8.6679688 L 32.185547 21.849609 L 32.542969 21.314453 A 1.0001 1.0001 0 0 0 32.529297 22.404297 C 32.826676 22.874769 33 23.413877 33 23.998047 C 33 24.546987 32.85071 25.050833 32.591797 25.498047 A 1.0011385 1.0011385 0 0 0 34.324219 26.501953 C 34.747305 25.771167 35 24.913107 35 23.998047 C 35 23.214807 34.699204 22.533185 34.378906 21.878906 A 1.0001 1.0001 0 0 0 34.222656 21.322266 L 25.419922 7.5742188 A 1.0001 1.0001 0 0 0 25.410156 7.5585938 C 24.783648 6.6201792 23.706869 6 22.5 6 z M 39.5 12 C 36.473126 12 34 14.473789 34 17.498047 C 34 20.526219 36.473394 23 39.5 23 C 42.524258 23 45 20.527023 45 17.498047 C 45 14.472984 42.524526 12 39.5 12 z M 39.5 14 C 41.443474 14 43 15.55511 43 17.498047 C 43 19.447071 41.443742 21 39.5 21 C 37.552606 21 36 19.447875 36 17.498047 C 36 15.554305 37.552874 14 39.5 14 z M 30.537109 27.984375 A 1.0001 1.0001 0 0 0 30.298828 28.007812 A 1.0001 1.0001 0 0 0 30.291016 28.009766 A 1.0001 1.0001 0 0 0 29.714844 28.361328 C 29.517173 28.550967 27.921585 30 25 30 C 22.141681 30 20.565543 28.622484 20.310547 28.382812 A 1.0001 1.0001 0 0 0 19.490234 27.986328 A 1.0001 1.0001 0 0 0 19.298828 28.007812 A 1.0001 1.0001 0 0 0 19.291016 28.009766 A 1.0001 1.0001 0 0 0 18.714844 28.361328 C 18.517173 28.550967 16.921585 30 14 30 C 11.086469 30 9.4941923 28.559569 9.2890625 28.363281 A 1.0001 1.0001 0 0 0 8.4882812 27.990234 A 1.0001 1.0001 0 0 0 8.4804688 27.990234 A 1.0001 1.0001 0 0 0 8.4511719 27.992188 A 1.0001 1.0001 0 0 0 7.7148438 28.361328 C 7.5171732 28.550967 5.9215846 30 3 30 A 1.0001 1.0001 0 1 0 3 32 C 5.6451577 32 7.5436353 30.943989 8.5 30.265625 C 9.4563648 30.943989 11.354843 32 14 32 C 16.645157 32 18.543635 30.943989 19.5 30.265625 C 20.456365 30.943989 22.354843 32 25 32 C 27.645157 32 29.543635 30.943989 30.5 30.265625 C 31.456365 30.943989 33.354843 32 36 32 C 38.645157 32 40.543635 30.943989 41.5 30.265625 C 42.456365 30.943989 44.354843 32 47 32 A 1.0001 1.0001 0 1 0 47 30 C 44.141681 30 42.565543 28.622484 42.310547 28.382812 A 1.0001 1.0001 0 0 0 41.298828 28.007812 A 1.0001 1.0001 0 0 0 41.291016 28.009766 A 1.0001 1.0001 0 0 0 40.714844 28.361328 C 40.517173 28.550967 38.921585 30 36 30 C 33.141681 30 31.565543 28.622484 31.310547 28.382812 A 1.0001 1.0001 0 0 0 30.537109 27.984375 z M 30.537109 33.984375 A 1.0001 1.0001 0 0 0 30.298828 34.007812 A 1.0001 1.0001 0 0 0 30.291016 34.009766 A 1.0001 1.0001 0 0 0 29.714844 34.361328 C 29.517173 34.550967 27.921585 36 25 36 C 22.141681 36 20.565543 34.622484 20.310547 34.382812 A 1.0001 1.0001 0 0 0 19.490234 33.986328 A 1.0001 1.0001 0 0 0 19.298828 34.007812 A 1.0001 1.0001 0 0 0 19.291016 34.009766 A 1.0001 1.0001 0 0 0 18.714844 34.361328 C 18.517173 34.550967 16.921585 36 14 36 C 11.086469 36 9.4941923 34.559569 9.2890625 34.363281 A 1.0001 1.0001 0 0 0 8.4882812 33.990234 A 1.0001 1.0001 0 0 0 8.4804688 33.990234 A 1.0001 1.0001 0 0 0 8.4511719 33.992188 A 1.0001 1.0001 0 0 0 7.7148438 34.361328 C 7.5171732 34.550967 5.9215846 36 3 36 A 1.0001 1.0001 0 1 0 3 38 C 5.6451577 38 7.5436353 36.943989 8.5 36.265625 C 9.4563648 36.943989 11.354843 38 14 38 C 16.645157 38 18.543635 36.943989 19.5 36.265625 C 20.456365 36.943989 22.354843 38 25 38 C 27.645157 38 29.543635 36.943989 30.5 36.265625 C 31.456365 36.943989 33.354843 38 36 38 C 38.645157 38 40.543635 36.943989 41.5 36.265625 C 42.456365 36.943989 44.354843 38 47 38 A 1.0001 1.0001 0 1 0 47 36 C 44.141681 36 42.565543 34.622484 42.310547 34.382812 A 1.0001 1.0001 0 0 0 41.298828 34.007812 A 1.0001 1.0001 0 0 0 41.291016 34.009766 A 1.0001 1.0001 0 0 0 40.714844 34.361328 C 40.517173 34.550967 38.921585 36 36 36 C 33.141681 36 31.565543 34.622484 31.310547 34.382812 A 1.0001 1.0001 0 0 0 30.537109 33.984375 z M 30.537109 39.984375 A 1.0001 1.0001 0 0 0 30.298828 40.007812 A 1.0001 1.0001 0 0 0 30.291016 40.009766 A 1.0001 1.0001 0 0 0 29.714844 40.361328 C 29.517173 40.550967 27.921585 42 25 42 C 22.141681 42 20.565543 40.622484 20.310547 40.382812 A 1.0001 1.0001 0 0 0 19.490234 39.986328 A 1.0001 1.0001 0 0 0 19.298828 40.007812 A 1.0001 1.0001 0 0 0 19.291016 40.009766 A 1.0001 1.0001 0 0 0 18.714844 40.361328 C 18.517173 40.550967 16.921585 42 14 42 C 11.086469 42 9.4941923 40.559569 9.2890625 40.363281 A 1.0001 1.0001 0 0 0 8.4882812 39.990234 A 1.0001 1.0001 0 0 0 8.4804688 39.990234 A 1.0001 1.0001 0 0 0 8.4511719 39.992188 A 1.0001 1.0001 0 0 0 7.7148438 40.361328 C 7.5171732 40.550967 5.9215846 42 3 42 A 1.0001 1.0001 0 1 0 3 44 C 5.6451577 44 7.5436353 42.943989 8.5 42.265625 C 9.4563648 42.943989 11.354843 44 14 44 C 16.645157 44 18.543635 42.943989 19.5 42.265625 C 20.456365 42.943989 22.354843 44 25 44 C 27.645157 44 29.543635 42.943989 30.5 42.265625 C 31.456365 42.943989 33.354843 44 36 44 C 38.645157 44 40.543635 42.943989 41.5 42.265625 C 42.456365 42.943989 44.354843 44 47 44 A 1.0001 1.0001 0 1 0 47 42 C 44.141681 42 42.565543 40.622484 42.310547 40.382812 A 1.0001 1.0001 0 0 0 41.298828 40.007812 A 1.0001 1.0001 0 0 0 41.291016 40.009766 A 1.0001 1.0001 0 0 0 40.714844 40.361328 C 40.517173 40.550967 38.921585 42 36 42 C 33.141681 42 31.565543 40.622484 31.310547 40.382812 A 1.0001 1.0001 0 0 0 30.537109 39.984375 z" fill="#000000"/></svg>
