<?xml version="1.0" encoding="utf-8"?>
<svg xmlns="http://www.w3.org/2000/svg" viewBox="0 0 50 50" fill="#000000"><path d="M 12.5 2 C 9.472656 2 7 4.472656 7 7.5 C 7 10.527344 9.472656 13 12.5 13 C 15.527344 13 18 10.527344 18 7.5 C 18 4.472656 15.527344 2 12.5 2 Z M 12.5 4 C 14.445313 4 16 5.554688 16 7.5 C 16 9.445313 14.445313 11 12.5 11 C 10.554688 11 9 9.445313 9 7.5 C 9 5.554688 10.554688 4 12.5 4 Z M 12.699219 14 C 10.179688 14 8.265625 16.359375 8.78125 18.824219 L 11.277344 30.675781 C 11.808594 33.199219 13.933594 35.089844 16.5 35.324219 L 23.453125 35.953125 L 30.511719 45.917969 C 30.53125 45.945313 30.554688 45.96875 30.574219 45.996094 C 30.546875 45.996094 30.527344 46 30.5 46 C 27.773438 46 25.976563 44.515625 25.757813 44.328125 C 25.644531 44.199219 25.5 44.101563 25.339844 44.046875 C 25.332031 44.042969 25.328125 44.042969 25.320313 44.039063 C 25.316406 44.039063 25.3125 44.035156 25.308594 44.035156 C 24.894531 43.890625 24.433594 44.03125 24.171875 44.382813 C 23.800781 44.6875 22.078125 46 19.5 46 C 16.773438 46 14.976563 44.515625 14.757813 44.328125 C 14.644531 44.199219 14.5 44.101563 14.339844 44.046875 C 14.332031 44.042969 14.328125 44.042969 14.320313 44.039063 C 14.316406 44.039063 14.3125 44.035156 14.308594 44.035156 C 13.894531 43.890625 13.433594 44.03125 13.171875 44.382813 C 12.800781 44.6875 11.078125 46 8.5 46 C 5.597656 46 3.671875 44.261719 3.671875 44.261719 C 3.414063 44.007813 3.03125 43.914063 2.683594 44.019531 C 2.335938 44.128906 2.070313 44.417969 1.996094 44.773438 C 1.921875 45.132813 2.046875 45.5 2.328125 45.738281 C 2.328125 45.738281 4.792969 48 8.5 48 C 11.082031 48 13.035156 46.914063 14 46.25 C 14.964844 46.914063 16.917969 48 19.5 48 C 22.082031 48 24.035156 46.914063 25 46.25 C 25.964844 46.914063 27.917969 48 30.5 48 C 32.125 48 33.488281 47.5625 34.53125 47.078125 C 34.609375 47.042969 34.691406 47.023438 34.765625 46.984375 C 34.804688 46.964844 34.832031 46.9375 34.867188 46.921875 C 35.335938 46.679688 35.707031 46.449219 36 46.25 C 36.964844 46.914063 38.917969 48 41.5 48 C 45.207031 48 47.671875 45.738281 47.671875 45.738281 C 47.980469 45.464844 48.089844 45.03125 47.949219 44.644531 C 47.804688 44.257813 47.441406 43.996094 47.027344 43.988281 C 46.765625 43.984375 46.515625 44.082031 46.328125 44.261719 C 46.328125 44.261719 44.402344 46 41.5 46 C 38.773438 46 36.976563 44.515625 36.757813 44.328125 C 36.710938 44.277344 36.660156 44.230469 36.605469 44.1875 C 36.648438 43.578125 36.539063 42.953125 36.230469 42.378906 L 30.632813 31.933594 C 30.632813 31.929688 30.632813 31.929688 30.632813 31.929688 C 30.03125 30.804688 29.019531 29.953125 27.808594 29.546875 L 20.847656 27.230469 L 19.179688 20 L 30 20 C 31.292969 20 32.394531 19.15625 32.8125 18 L 47 18 L 47 16 L 32.8125 16 C 32.394531 14.84375 31.292969 14 30 14 Z M 12.699219 16 L 30 16 C 30.566406 16 31 16.433594 31 17 C 31 17.566406 30.566406 18 30 18 L 17.921875 18 C 17.617188 18 17.332031 18.140625 17.140625 18.378906 C 16.953125 18.617188 16.878906 18.925781 16.949219 19.222656 L 19.027344 28.222656 C 19.101563 28.5625 19.351563 28.839844 19.683594 28.949219 L 27.171875 31.445313 C 27.902344 31.6875 28.507813 32.199219 28.871094 32.875 L 34.46875 43.324219 C 34.832031 44.003906 34.582031 44.8125 33.90625 45.171875 C 33.882813 45.183594 33.859375 45.195313 33.835938 45.207031 C 33.230469 45.488281 32.527344 45.308594 32.140625 44.761719 L 24.816406 34.421875 C 24.648438 34.183594 24.382813 34.03125 24.089844 34.003906 L 16.683594 33.328125 C 14.980469 33.175781 13.585938 31.9375 13.234375 30.265625 L 10.738281 18.410156 C 10.472656 17.148438 11.40625 16 12.699219 16 Z" fill="#000000"/></svg>
