<?xml version="1.0" encoding="utf-8"?>
<svg xmlns="http://www.w3.org/2000/svg" viewBox="0 0 50 50" fill="#000000"><path d="M 12 0 C 10.906937 0 10 0.9069372 10 2 L 10 4 L 4 4 C 2.841 4 2 4.841 2 6 L 2 46 C 2 47.159 2.841 48 4 48 L 28.824219 48 C 27.698219 47.498 26.673437 46.818 25.773438 46 L 4 46 L 4 15 L 46 15 L 46 35.375 C 46.713 35.594 47.381 35.910828 48 36.298828 L 48 6 C 48 4.841 47.159 4 46 4 L 40 4 L 40 2 C 40 0.9069372 39.093063 0 38 0 L 36 0 C 34.906937 0 34 0.9069372 34 2 L 34 4 L 16 4 L 16 2 C 16 0.9069372 15.093063 0 14 0 L 12 0 z M 12 2 L 14 2 L 14 8 L 12 8 L 12 2 z M 36 2 L 38 2 L 38 8 L 36 8 L 36 2 z M 4 6 L 10 6 L 10 8 C 10 9.0930628 10.906937 10 12 10 L 14 10 C 15.093063 10 16 9.0930628 16 8 L 16 6 L 34 6 L 34 8 C 34 9.0930628 34.906937 10 36 10 L 38 10 C 39.093063 10 40 9.0930628 40 8 L 40 6 L 46 6 L 46 13 L 4 13 L 4 6 z M 10 19 L 10 42 L 22.914062 42 C 22.642063 41.362 22.433297 40.691 22.279297 40 L 19 40 L 19 35 L 22.28125 35 C 22.43425 34.309 22.644016 33.638 22.916016 33 L 19 33 L 19 28 L 24 28 L 24 31.021484 C 24.566 30.192484 25.242 29.448922 26 28.794922 L 26 28 L 27.021484 28 C 28.737484 26.828 30.788 26.114531 33 26.019531 L 33 26 L 33 21 L 38 21 L 38 26.923828 C 38.704 27.224828 39.376 27.588578 40 28.017578 L 40 19 L 10 19 z M 12 21 L 17 21 L 17 26 L 12 26 L 12 21 z M 19 21 L 24 21 L 24 26 L 19 26 L 19 21 z M 26 21 L 31 21 L 31 26 L 26 26 L 26 21 z M 12 28 L 17 28 L 17 33 L 12 33 L 12 28 z M 33.5 28 C 28.265137 28 24 32.265141 24 37.5 C 24 42.734859 28.265137 47 33.5 47 C 34.944238 47 36.309692 46.666014 37.537109 46.085938 C 38.093281 47.368363 39.046622 48.433817 40.246094 49.128906 A 1.0001 1.0001 0 0 0 40.248047 49.128906 C 41.204145 49.681346 42.318203 50 43.5 50 C 47.077665 50 50 47.077665 50 43.5 C 50 39.922335 47.077665 37 43.5 37 C 43.321202 37 43.151307 37.028568 42.976562 37.042969 C 42.735227 32.020754 38.580502 28 33.5 28 z M 33.5 30 C 37.653984 30 41 33.346019 41 37.5 C 41 41.653981 37.653984 45 33.5 45 C 29.346016 45 26 41.653981 26 37.5 C 26 33.346019 29.346016 30 33.5 30 z M 31.695312 33.412109 L 30.886719 37.955078 L 32.388672 37.955078 C 32.553672 37.727078 32.900531 37.296875 33.644531 37.296875 C 33.910531 37.296875 35.064453 37.400937 35.064453 38.835938 C 35.064453 39.344938 34.761531 40.417969 33.644531 40.417969 C 32.605531 40.417969 32.333922 39.560547 32.294922 39.185547 L 30.626953 39.185547 C 30.610953 40.172547 31.322688 41.779297 33.679688 41.779297 C 35.918688 41.779297 36.730469 39.917938 36.730469 38.835938 C 36.730469 38.267938 36.431312 36.041016 34.195312 36.041016 C 33.250312 36.041016 32.813891 36.448781 32.587891 36.675781 L 32.5625 36.650391 L 32.890625 34.787109 L 36.285156 34.787109 L 36.285156 33.412109 L 31.695312 33.412109 z M 12 35 L 17 35 L 17 40 L 12 40 L 12 35 z M 43.5 39 C 45.996335 39 48 41.003665 48 43.5 C 48 45.996335 45.996335 48 43.5 48 C 42.675797 48 41.911902 47.780045 41.248047 47.396484 C 40.337797 46.868247 39.634978 46.024806 39.273438 45.023438 C 41.142265 43.585314 42.460005 41.47424 42.861328 39.052734 C 43.07133 39.023299 43.283933 39 43.5 39 z" fill="#000000"/></svg>
