<?xml version="1.0" encoding="utf-8"?>
<!-- Generator: Adobe Illustrator 16.0.0, SVG Export Plug-In . SVG Version: 6.00 Build 0)  -->
<!DOCTYPE svg PUBLIC "-//W3C//DTD SVG 1.1//EN" "http://www.w3.org/Graphics/SVG/1.1/DTD/svg11.dtd">
<svg version="1.1" id="Layer_1" xmlns="http://www.w3.org/2000/svg" xmlns:xlink="http://www.w3.org/1999/xlink" x="0px" y="0px"
	 width="498.775px" height="547.861px" viewBox="48.252 147.015 498.775 547.861"
	 enable-background="new 48.252 147.015 498.775 547.861" xml:space="preserve">
<path d="M297.64,147.116c-52.459,0-95.245,42.786-95.245,95.245c0,52.459,42.786,95.245,95.245,95.245s95.244-42.786,95.244-95.245
	C392.884,189.902,350.099,147.116,297.64,147.116z M297.64,170.927c39.576,0,71.434,31.857,71.434,71.434
	c0,39.577-31.857,71.434-71.434,71.434c-39.577,0-71.434-31.856-71.434-71.434C226.207,202.784,258.063,170.927,297.64,170.927z
	 M237.926,361.231c-0.605,0.046-1.163,0.093-1.768,0.186h-21.858c-22.137,0-40.6,7.72-54.133,16.277
	c-13.533,8.557-21.998,17.486-26.043,22.834c-22.416,29.764-72.178,111.382-72.178,111.382c-0.046,0.047-0.093,0.093-0.14,0.187
	c-9.068,15.533-14.417,30.647-13.44,46.088c0.977,15.394,8.65,29.81,21.672,42.785l54.97,55.017
	c15.673,15.673,40.135,16.277,57.389,3.303l2.186,24.648c0.326,4.278,2.883,8.045,6.79,9.905c3.906,1.813,8.464,1.441,11.999-1.069
	c3.488-2.512,5.395-6.697,4.93-10.976l-17.905-202.396c-0.465-4.93-3.906-9.068-8.65-10.371c-4.79-1.349-9.906,0.419-12.836,4.418
	l-51.064,69.992c-3.441,4.744-2.93,11.301,1.209,15.44l51.529,51.528c8.045,8.046,8.045,20.695,0,28.741s-20.695,8.046-28.694,0
	l-55.017-55.017c-10.278-10.278-14.184-18.695-14.742-27.532c-0.558-8.789,2.511-19.253,10.278-32.508
	c0.186-0.325,50.878-82.92,70.736-109.243c0,0,0,0,0-0.046c1.488-1.953,8.976-10.185,19.719-16.975
	c10.79-6.79,24.881-12.604,41.437-12.604h15.859l50.227,120.544l-18.044,48.134c-1.441,3.907,0.698,8.186,4.79,9.534l34.555,11.859
	c4.092,1.349,8.557-0.651,10.045-4.558l21.16-56.552c1.441-3.907-0.65-8.186-4.744-9.534l-11.162-3.86l48.135-115.568h15.859
	c16.555,0,30.646,5.813,41.436,12.604c10.744,6.79,18.23,15.021,19.719,16.975c0,0.046,0,0.046,0,0.046
	c19.859,26.323,70.551,108.918,70.736,109.243c7.768,13.255,10.836,23.719,10.279,32.508c-0.559,8.837-4.465,17.254-14.744,27.532
	l-55.016,55.017c-8,8.046-20.648,8.046-28.695,0c-8.045-8.046-8.045-20.695,0-28.741l51.529-51.528
	c4.139-4.14,4.65-10.696,1.162-15.44l-51.018-69.992c-2.93-3.999-8.045-5.767-12.834-4.418c-4.744,1.303-8.186,5.441-8.65,10.371
	l-17.906,202.396c-0.465,4.278,1.441,8.464,4.93,10.976c3.535,2.511,8.092,2.883,12,1.069c3.906-1.86,6.463-5.627,6.789-9.905
	l2.186-24.648c17.254,12.975,41.717,12.37,57.389-3.303l55.018-55.017c12.975-12.976,20.648-27.392,21.625-42.785
	c0.977-15.44-4.371-30.555-13.439-46.088c-0.047-0.094-0.094-0.14-0.141-0.187c0,0-49.762-81.618-72.178-111.382
	c-4.045-5.348-12.51-14.277-26.043-22.834s-31.996-16.277-54.133-16.277H239.972C239.275,361.324,238.624,361.231,237.926,361.231z
	 M255.971,385.228h83.339l-41.67,99.989L255.971,385.228z M169.469,513.12l6.092,68.551L143.1,549.256L169.469,513.12z
	 M425.812,513.12l26.369,36.136l-32.463,32.415L425.812,513.12z"/>
</svg>
