<?xml version="1.0" encoding="utf-8"?>
<!-- Generator: Adobe Illustrator 16.0.0, SVG Export Plug-In . SVG Version: 6.00 Build 0)  -->
<!DOCTYPE svg PUBLIC "-//W3C//DTD SVG 1.1//EN" "http://www.w3.org/Graphics/SVG/1.1/DTD/svg11.dtd">
<svg version="1.1" id="Layer_1" xmlns="http://www.w3.org/2000/svg" xmlns:xlink="http://www.w3.org/1999/xlink" x="0px" y="0px"
	 width="515.679px" height="547.813px" viewBox="39.801 147.039 515.679 547.813"
	 enable-background="new 39.801 147.039 515.679 547.813" xml:space="preserve">
<path d="M52.013,146.977c-6.574-0.168-12.039,5.025-12.208,11.599c-0.051,1.987,0.397,3.955,1.302,5.725l107.22,216.765
	c-28.235,33.225-45.344,76.189-45.344,123.218c0,105.224,85.266,190.489,190.49,190.489c105.223,0,190.49-85.266,190.49-190.489
	c0-46.58-16.754-89.195-44.508-122.288L554.024,164.58c3.148-5.773,1.021-13.005-4.752-16.154c-1.855-1.012-3.947-1.512-6.061-1.448
	c-4.346,0.128-8.277,2.615-10.254,6.488L422.04,363.998c-4.93-4.521-10.076-8.779-15.463-12.766l95.129-186.815
	c3.061-5.82,0.826-13.02-4.994-16.082c-1.861-0.979-3.949-1.448-6.051-1.358c-4.35,0.193-8.246,2.743-10.162,6.65l-93.967,184.537
	c-21.111-11.851-44.693-19.751-69.805-22.811l75.502-151.006c3.025-5.838,0.746-13.024-5.092-16.05
	c-1.877-0.973-3.98-1.429-6.092-1.32c-4.348,0.223-8.227,2.8-10.115,6.72l-80.108,160.237c-5.849,0.081-11.66,0.334-17.37,0.93
	l74.736-150.541c2.928-5.888,0.527-13.035-5.359-15.963c-5.889-2.928-13.035-0.528-15.965,5.36l0,0l-33.019,66.527l-33.81-66.62
	c-2.979-5.862-10.147-8.2-16.01-5.22c-5.863,2.979-8.2,10.147-5.22,16.01l40.483,79.758c0.412,0.831,0.919,1.612,1.512,2.325
	l-8.371,16.882L215.97,153.581c-1.996-4.013-6.075-6.565-10.557-6.604c-6.576-0.06-11.955,5.222-12.015,11.798
	c-0.018,1.982,0.459,3.938,1.388,5.688l64.295,125.009c0.068,0.125,0.138,0.25,0.209,0.372l-15.208,30.648
	c-15.735,4.219-30.683,10.314-44.53,18.183l-93.083-185.001c-1.958-4.026-6.01-6.614-10.487-6.697
	c-6.575-0.123-12.005,5.107-12.128,11.682c-0.037,1.986,0.423,3.949,1.338,5.712l94.338,187.513
	c-4.693,3.515-9.212,7.215-13.557,11.138L62.453,153.744C60.522,149.705,56.488,147.09,52.013,146.977z M293.473,337.606
	c92.41,0,166.678,74.269,166.678,166.678s-74.268,166.678-166.678,166.678c-92.41,0-166.679-74.269-166.679-166.678
	c0-57.642,28.914-108.22,73.085-138.124c0.664-0.335,1.294-0.732,1.883-1.186C228.041,347.694,259.506,337.606,293.473,337.606z
	 M292.869,349.535l-11.952,0.604l1.209,23.788l11.953-0.628L292.869,349.535z M318.54,351.721l-3.627,23.532l4.791,0.744
	l5.742,1.488l5.953-23.067l-6.256-1.604l-0.58-0.163l-0.582-0.093L318.54,351.721z M255.013,354.558l-6.883,1.79l-0.581,0.14
	l-0.558,0.209l-4.558,1.674l8.231,22.346l4.046-1.488l6.255-1.604L255.013,354.558z M356.209,362.975l-10.371,21.439l9.744,4.697
	l0.65,0.326l3.279-6.767l8.465-13.905l-0.35-0.209l-0.488-0.302l-0.535-0.256L356.209,362.975z M218.505,369.067l-10.231,6.208
	l12.394,20.347l10.231-6.232L218.505,369.067z M388.788,382.694l-14.277,19.067l2.186,1.628l6,5.464l15.998-17.626l-6.465-5.883
	l-0.418-0.396l-0.465-0.326L388.788,382.694z M187.834,391.6l-3.278,2.977l-0.419,0.372l-0.372,0.418l-5.069,5.581l17.603,16.021
	l4.697-5.139l2.86-2.604L187.834,391.6z M416.274,410.598l-19.068,14.277l4.859,6.464l1.418,2.349l20.324-12.394l-1.791-2.93
	l-0.303-0.488l-0.324-0.465L416.274,410.598z M292.287,418.573c-4.762,16.668-13.091,33.321-48.808,33.321v24.998h41.669v108.359
	h34.508V418.573H292.287z M162.837,421.759l-5.092,8.371l-0.302,0.488l-0.256,0.535l-0.93,1.953l21.439,10.348l0.651-1.349
	l4.837-7.953L162.837,421.759z M435.667,443.361l-13.324,6.44l-8.441,3.116l4.023,10.976l22.346-8.231l-4.023-10.952l-0.209-0.559
	l-0.256-0.511L435.667,443.361z M146.49,456.174l-0.604,1.627l-0.209,0.559l-0.14,0.581l-2.558,9.906l23.043,5.952l2.396-9.254
	l0.418-1.14L146.49,456.174z M446.338,481.217l-23.531,3.628l0.93,6.139l0.232,4.534l23.789-1.209l-0.279-5.186l-0.023-0.604
	l-0.094-0.604L446.338,481.217z M139.166,494.844l-0.442,8.836l-0.046,0.604l0.046,0.604l0.163,3.116l23.765-1.209l-0.139-2.512
	l0.441-8.208L139.166,494.844z M423.831,517.027l-1.814,11.789l23.533,3.627l1.813-11.789l0.094-0.604l0.023-0.604l0.023-0.023
	l-12.256-0.628L423.831,517.027z M165.023,529.374l-23.556,3.628l0.279,1.79l0.093,0.582l0.163,0.581l2.534,9.836l23.044-5.976
	l-2.395-9.231L165.023,529.374z M416.157,549.512l-2.023,5.487l-2.162,4.465l21.439,10.371l2.371-4.906l0.256-0.512l0.209-0.559
	l2.256-6.115L416.157,549.512z M175.208,559.976l-21.439,10.348l3.418,7.092l0.256,0.535l0.302,0.488l2.139,3.488l20.323-12.395
	l-1.86-3.069L175.208,559.976z M401.297,578.253l-7.162,9.58l19.045,14.276l7.186-9.579L401.297,578.253z M192.461,587.368
	l-17.603,16.021l8.045,8.859l17.603-16.021L192.461,587.368z M378.881,603.18l-2.209,2.023l-6.277,4.697l14.277,19.066l6.674-5.022
	l0.465-0.326l0.418-0.396l2.674-2.418L378.881,603.18z M216.994,610.225l-14.254,19.067l3.86,2.907l0.465,0.325l0.488,0.303
	l6.069,3.72l12.394-20.346l-5.488-3.326L216.994,610.225z M351.979,621.2l-7.768,3.744l-2.047,0.743l8.232,22.347l2.65-0.977
	l0.559-0.209l0.512-0.256l8.23-3.977L351.979,621.2z M245.292,625.874l-8.208,22.347l9.906,3.65l0.558,0.209l0.581,0.14l1.349,0.349
	l5.976-23.044l-0.744-0.186L245.292,625.874z M320.448,632.385l-0.744,0.187l-9.883,1.511l3.627,23.532l10.533-1.604l0.582-0.093
	l0.58-0.163l1.279-0.325L320.448,632.385z M277.661,634.176l-3.604,23.532l3.046,0.465l0.604,0.093l0.604,0.023l8.859,0.465
	l1.209-23.788l-8.208-0.418L277.661,634.176z"/>
</svg>
