<?xml version="1.0" encoding="utf-8"?>
<!-- Generator: Adobe Illustrator 16.0.0, SVG Export Plug-In . SVG Version: 6.00 Build 0)  -->
<!DOCTYPE svg PUBLIC "-//W3C//DTD SVG 1.1//EN" "http://www.w3.org/Graphics/SVG/1.1/DTD/svg11.dtd">
<svg version="1.1" id="Layer_1" xmlns="http://www.w3.org/2000/svg" xmlns:xlink="http://www.w3.org/1999/xlink" x="0px" y="0px"
	 width="572.996px" height="541.034px" viewBox="11.143 150.428 572.996 541.034"
	 enable-background="new 11.143 150.428 572.996 541.034" xml:space="preserve">
<path d="M20.463,150.498c-5.534,1.255-9.441,6.232-9.301,11.906v424.881c0,50.553,26.276,79.061,52.087,91.896
	s51.343,12.277,51.343,12.277h366.098v-1.117c5.721,0.652,11.906,1.117,11.906,1.117s22.881,0.139,45.762-13.021
	c22.322-12.836,44.32-39.996,45.391-87.061c0.139-0.232,0.277-0.512,0.371-0.744c0-0.279,0-0.465,0-0.744
	c0.047-0.604,0.047-1.256,0-1.859V289.273c0-0.14,0-0.233,0-0.372c0,0,0.186-13.952-7.068-28.276
	c-7.256-14.324-24.137-29.764-50.6-29.764v-0.372H413.72V254.3h66.225c-1.441,2.046-2.65,3.907-3.721,5.953
	c-7.254,14.184-7.441,28.276-7.441,28.276V577.24c-0.047,4.277,2.186,8.277,5.906,10.463c3.721,2.139,8.279,2.139,12,0
	c3.719-2.186,5.951-6.186,5.906-10.463V288.529c0-0.326,0.465-8.93,4.836-17.486c4.465-8.697,10.742-16.371,29.02-16.371
	c18.23,0,24.51,7.86,29.02,16.742c4.418,8.744,5.209,17.533,5.209,17.859h-0.371v298.756c0,42.367-16.93,60.225-33.857,69.945
	c-16.928,9.719-33.855,9.674-33.855,9.674s-20.139-0.279-40.182-10.418c-20.045-10.139-39.438-27.951-39.438-69.945V162.404
	c0-6.558-5.348-11.906-11.906-11.906H23.067C22.184,150.405,21.346,150.405,20.463,150.498z M34.973,174.309h354.191v412.976
	c0,39.158,16.604,64.783,36.09,80.363H114.591c-0.139,0-0.232,0-0.372,0c0,0-5.116,0.045-12.649-1.117
	c-3.767-0.604-7.953-1.58-12.65-2.977c-4.697-1.395-9.906-3.115-14.882-5.58c-2.511-1.256-5.023-2.559-7.441-4.094
	c-17.021-10.695-31.625-29.158-31.625-66.596V174.309z M82.595,248.347c-6.558,0.93-11.162,7.022-10.231,13.58
	c0.93,6.557,7.022,11.161,13.58,10.231h234.763c4.279,0.047,8.279-2.186,10.465-5.906c2.139-3.72,2.139-8.278,0-11.999
	c-2.186-3.721-6.186-5.953-10.465-5.906H85.943c-0.372,0-0.744,0-1.116,0s-0.744,0-1.116,0S82.967,248.347,82.595,248.347z
	 M82.595,295.97c-6.558,0.93-11.162,7.022-10.231,13.58c0.93,6.558,7.022,11.162,13.58,10.231h234.763
	c4.279,0.046,8.279-2.186,10.465-5.906c2.139-3.721,2.139-8.278,0-11.999c-2.186-3.721-6.186-5.953-10.465-5.906H85.943
	c-0.372,0-0.744,0-1.116,0s-0.744,0-1.116,0S82.967,295.97,82.595,295.97z M88.176,391.214c-6.557,0.93-11.162,7.022-10.231,13.58
	c0.93,6.557,7.022,11.161,13.58,10.231h80.735c4.278,0.046,8.278-2.186,10.464-5.907c2.139-3.72,2.139-8.278,0-11.999
	c-2.186-3.72-6.186-5.953-10.464-5.906H91.524c-0.372,0-0.744,0-1.116,0s-0.744,0-1.116,0S88.548,391.214,88.176,391.214z
	 M225.462,391.214c-6.558,0.93-11.162,7.022-10.231,13.58c0.93,6.557,7.022,11.161,13.58,10.231h91.896
	c4.279,0.046,8.279-2.186,10.465-5.907c2.139-3.72,2.139-8.278,0-11.999c-2.186-3.72-6.186-5.953-10.465-5.906h-91.896
	c-0.372,0-0.744,0-1.116,0s-0.744,0-1.116,0S225.834,391.214,225.462,391.214z M88.176,438.836
	c-6.557,0.932-11.162,7.023-10.231,13.58c0.93,6.559,7.022,11.162,13.58,10.232h80.735c4.278,0.047,8.278-2.186,10.464-5.906
	c2.139-3.721,2.139-8.279,0-12c-2.186-3.719-6.186-5.951-10.464-5.906H91.524c-0.372,0-0.744,0-1.116,0s-0.744,0-1.116,0
	S88.548,438.836,88.176,438.836z M225.462,438.836c-6.558,0.932-11.162,7.023-10.231,13.58c0.93,6.559,7.022,11.162,13.58,10.232
	h91.896c4.279,0.047,8.279-2.186,10.465-5.906c2.139-3.721,2.139-8.279,0-12c-2.186-3.719-6.186-5.951-10.465-5.906h-91.896
	c-0.372,0-0.744,0-1.116,0s-0.744,0-1.116,0S225.834,438.836,225.462,438.836z M225.462,483.855
	c-6.558,0.93-11.162,7.021-10.231,13.58c0.93,6.557,7.022,11.16,13.58,10.23h91.896c4.279,0.047,8.279-2.186,10.465-5.906
	c2.139-3.721,2.139-8.277,0-11.998c-2.186-3.721-6.186-5.953-10.465-5.906h-91.896c-0.744-0.094-1.488-0.094-2.232,0
	C226.207,483.855,225.834,483.855,225.462,483.855z M88.176,486.459c-6.557,0.93-11.162,7.023-10.231,13.58
	s7.022,11.162,13.58,10.23h80.735c4.278,0.047,8.278-2.186,10.464-5.906c2.139-3.719,2.139-8.277,0-11.998
	c-2.186-3.721-6.186-5.953-10.464-5.906H91.524c-0.372,0-0.744,0-1.116,0s-0.744,0-1.116,0S88.548,486.459,88.176,486.459z
	 M225.462,531.477c-6.558,0.932-11.162,7.023-10.231,13.58c0.93,6.559,7.022,11.162,13.58,10.232h91.896
	c4.279,0.047,8.279-2.186,10.465-5.906c2.139-3.721,2.139-8.279,0-12c-2.186-3.719-6.186-5.951-10.465-5.906h-91.896
	c-0.744-0.092-1.488-0.092-2.232,0C226.207,531.477,225.834,531.477,225.462,531.477z M88.176,534.082
	c-6.557,0.93-11.162,7.021-10.231,13.58c0.93,6.557,7.022,11.16,13.58,10.23h80.735c4.278,0.047,8.278-2.186,10.464-5.906
	c2.139-3.721,2.139-8.277,0-11.998c-2.186-3.721-6.186-5.953-10.464-5.906H91.524c-0.372,0-0.744,0-1.116,0s-0.744,0-1.116,0
	S88.548,534.082,88.176,534.082z M225.462,576.123c-6.558,0.93-11.162,7.023-10.231,13.58s7.022,11.162,13.58,10.23h91.896
	c4.279,0.047,8.279-2.186,10.465-5.906c2.139-3.719,2.139-8.277,0-11.998c-2.186-3.721-6.186-5.953-10.465-5.906h-91.896
	c-0.372,0-0.744,0-1.116,0s-0.744,0-1.116,0S225.834,576.123,225.462,576.123z M88.176,581.703
	c-6.557,0.932-11.162,7.023-10.231,13.58c0.93,6.559,7.022,11.162,13.58,10.232h80.735c4.278,0.047,8.278-2.186,10.464-5.906
	c2.139-3.721,2.139-8.279,0-11.998c-2.186-3.721-6.186-5.953-10.464-5.908H91.524c-0.372,0-0.744,0-1.116,0s-0.744,0-1.116,0
	S88.548,581.703,88.176,581.703z"/>
</svg>
