<?xml version="1.0" encoding="utf-8"?>
<!-- Generator: Adobe Illustrator 16.0.0, SVG Export Plug-In . SVG Version: 6.00 Build 0)  -->
<!DOCTYPE svg PUBLIC "-//W3C//DTD SVG 1.1//EN" "http://www.w3.org/Graphics/SVG/1.1/DTD/svg11.dtd">
<svg version="1.1" id="Layer_1" xmlns="http://www.w3.org/2000/svg" xmlns:xlink="http://www.w3.org/1999/xlink" x="0px" y="0px"
	 width="571.47px" height="595.281px" viewBox="11.905 123.305 571.47 595.281"
	 enable-background="new 11.905 123.305 571.47 595.281" xml:space="preserve">
<path d="M130.962,123.305c-13.014,0-23.811,10.798-23.811,23.812v23.811H35.717c-13.799,0-23.812,10.013-23.812,23.812v476.224
	c0,13.799,10.013,23.813,23.812,23.813h295.547c-13.406-5.977-25.605-14.074-36.32-23.813H35.717V301.89h500.035v242.577
	c8.488,2.607,16.441,6.379,23.811,10.998V194.739c0-13.799-10.012-23.812-23.811-23.812h-71.434v-23.811
	c0-13.014-10.797-23.812-23.811-23.812h-23.813c-13.014,0-23.811,10.798-23.811,23.812v23.811H178.584v-23.811
	c0-13.014-10.798-23.812-23.811-23.812H130.962z M130.962,147.117h23.812v71.434h-23.812V147.117z M416.696,147.117h23.813v71.434
	h-23.813V147.117z M35.717,194.739h71.434v23.811c0,13.014,10.797,23.811,23.811,23.811h23.812
	c13.013,0,23.811-10.797,23.811-23.811v-23.811h214.301v23.811c0,13.014,10.797,23.811,23.811,23.811h23.813
	c13.014,0,23.811-10.797,23.811-23.811v-23.811h71.434v83.339H35.717V194.739z M107.151,349.512v273.83H260.9
	c-3.238-7.598-5.724-15.586-7.557-23.813h-39.042v-59.527h39.065c1.821-8.227,4.319-16.215,7.557-23.813h-46.623v-59.527h59.528
	v35.973c6.739-9.869,14.787-18.723,23.812-26.508v-9.465h12.16c20.43-13.953,44.844-22.447,71.178-23.578v-0.232v-59.528h59.529
	v70.526c8.381,3.584,16.381,7.914,23.811,13.021V349.512H107.151z M130.962,373.323h59.528v59.528h-59.528V373.323z
	 M214.301,373.323h59.528v59.528h-59.528V373.323z M297.641,373.323h59.527v59.528h-59.527V373.323z M130.962,456.662h59.528v59.527
	h-59.528V456.662z M386.932,456.662c-62.324,0-113.103,50.779-113.103,113.104s50.779,113.104,113.103,113.104
	c17.195,0,33.451-3.977,48.064-10.883c6.621,15.268,17.973,27.953,32.252,36.229c0.008,0,0.016,0,0.023,0
	c11.383,6.576,24.646,10.371,38.717,10.371c42.594,0,77.387-34.793,77.387-77.387s-34.793-77.387-77.387-77.387
	c-2.129,0-4.152,0.34-6.232,0.512C496.883,504.531,447.418,456.662,386.932,456.662z M386.932,480.473
	c49.457,0,89.293,39.838,89.293,89.293s-39.836,89.293-89.293,89.293c-49.455,0-89.291-39.838-89.291-89.293
	S337.477,480.473,386.932,480.473z M365.446,521.098l-9.625,54.086h17.881c1.965-2.715,6.094-7.836,14.951-7.836
	c3.168,0,16.906,1.238,16.906,18.322c0,6.061-3.607,18.836-16.906,18.836c-12.369,0-15.604-10.209-16.068-14.672h-19.857
	c-0.189,11.75,8.283,30.879,36.346,30.879c26.656,0,36.32-22.16,36.32-35.043c0-6.762-3.561-33.273-30.182-33.273
	c-11.252,0-16.447,4.854-19.139,7.557l-0.301-0.303l3.906-22.184h40.414v-16.369H365.446z M130.962,540.002h59.528v59.527h-59.528
	V540.002z M505.989,587.623c29.721,0,53.574,23.855,53.574,53.576s-23.854,53.576-53.574,53.576c-9.813,0-18.908-2.619-26.811-7.186
	c-10.838-6.289-19.205-16.332-23.51-28.254c22.25-17.121,37.938-42.254,42.717-71.084
	C500.885,587.902,503.417,587.623,505.989,587.623z"/>
</svg>
