<?xml version="1.0" encoding="utf-8"?>
<!-- Generator: Adobe Illustrator 16.0.0, SVG Export Plug-In . SVG Version: 6.00 Build 0)  -->
<!DOCTYPE svg PUBLIC "-//W3C//DTD SVG 1.1//EN" "http://www.w3.org/Graphics/SVG/1.1/DTD/svg11.dtd">
<svg version="1.1" id="Layer_1" xmlns="http://www.w3.org/2000/svg" xmlns:xlink="http://www.w3.org/1999/xlink" x="0px" y="0px"
	 width="546.472px" height="571.473px" viewBox="24.405 135.209 546.472 571.473"
	 enable-background="new 24.405 135.209 546.472 571.473" xml:space="preserve">
<path d="M332.765,135.209c-54.212,0-99.742,36.036-114.196,85.502l-61.644,32.949L42.473,184.552
	c-5.627-3.403-12.947-1.599-16.35,4.028c-1.123,1.857-1.717,3.986-1.718,6.157v428.602c0.004,4.459,2.499,8.542,6.464,10.58
	l129.776,66.69c3.474,1.781,7.602,1.747,11.045-0.094l119.846-63.923l153.005,69.039c3.701,1.666,7.996,1.333,11.395-0.884
	l109.545-71.434c3.369-2.2,5.398-5.953,5.395-9.976V194.737c0.004-6.576-5.326-11.908-11.902-11.911
	c-0.117,0-0.234,0.002-0.352,0.005c-2.191,0.063-4.324,0.731-6.162,1.93l-100.826,65.76
	C449.646,186.401,397.378,135.209,332.765,135.209z M332.765,159.02c53.178,0,95.244,42.066,95.244,95.245
	c0,44.457-25.566,100.043-51.854,143.565c-21.75,36.007-36.609,53.542-43.461,62.063c-6.879-8.412-21.645-25.521-43.343-61.202
	c-26.268-43.197-51.831-98.674-51.831-144.425C237.521,201.086,279.587,159.02,332.765,159.02z M332.765,206.643
	c-32.686,0-59.528,26.842-59.528,59.528c0,32.687,26.842,59.528,59.528,59.528s59.527-26.842,59.527-59.528
	C392.292,233.484,365.451,206.643,332.765,206.643z M48.216,215.828l102.198,61.714c3.59,2.175,8.061,2.298,11.766,0.325
	l51.738-27.648c-0.045,1.356-0.209,2.679-0.209,4.046c0,54.255,28.012,111.891,55.319,156.795
	c27.307,44.905,54.668,77.107,54.668,77.107c4.258,5.012,11.771,5.623,16.783,1.365c0.514-0.437,0.99-0.917,1.424-1.435
	c0,0,27.334-32.792,54.621-77.968c23.256-38.501,46.871-85.956,53.389-132.055c2.146-0.089,4.227-0.755,6.023-1.93l91.129-59.435
	v400.187l-98.662,64.342l-152.402-68.76c-3.368-1.521-7.251-1.393-10.51,0.349l-119.498,63.737L48.216,616.061V215.828z
	 M332.765,230.454c19.699,0,35.717,16.019,35.717,35.717c0,19.699-16.018,35.717-35.717,35.717s-35.717-16.018-35.717-35.717
	C297.048,246.472,313.066,230.454,332.765,230.454z"/>
</svg>
