<?xml version="1.0" encoding="utf-8"?>
<!-- Generator: Adobe Illustrator 16.0.0, SVG Export Plug-In . SVG Version: 6.00 Build 0)  -->
<!DOCTYPE svg PUBLIC "-//W3C//DTD SVG 1.1//EN" "http://www.w3.org/Graphics/SVG/1.1/DTD/svg11.dtd">
<svg version="1.1" id="Layer_1" xmlns="http://www.w3.org/2000/svg" xmlns:xlink="http://www.w3.org/1999/xlink" x="0px" y="0px"
	 width="571.47px" height="571.467px" viewBox="11.905 135.211 571.47 571.467"
	 enable-background="new 11.905 135.211 571.47 571.467" xml:space="preserve">
<path d="M47.623,135.212c-19.59,0-35.717,16.126-35.717,35.717v464.317c0,19.59,16.127,35.717,35.717,35.717H338.1
	c26.008,22.217,59.654,35.717,96.455,35.717c82.051,0,148.82-66.77,148.82-148.818c0-67.578-45.332-124.695-107.15-142.775V170.929
	c0-19.59-16.127-35.717-35.717-35.717H47.623z M47.623,159.023h392.886c6.602,0,11.904,5.304,11.904,11.906v239.297
	c-5.869-0.707-11.801-1.186-17.857-1.186c-5.129,0-10.188,0.258-15.184,0.768c-0.906,0.092-1.775,0.31-2.676,0.418v-36.903v-107.15
	h-107.15h-107.15H71.434v11.906v95.244v11.906v11.906v83.34v11.904v11.906v107.15h130.961h93.478
	c4.994,12.879,11.715,24.854,19.904,35.717H47.623c-6.602,0-11.905-5.303-11.905-11.906V170.929
	C35.717,164.327,41.021,159.023,47.623,159.023z M71.434,194.74v35.717h345.262V194.74H71.434z M95.245,289.985h83.339v83.338
	H95.245V289.985z M202.396,289.985h83.339v83.338h-83.339V289.985z M309.545,289.985h83.34v83.338h-83.34V289.985z M136.915,301.89
	c-16.438,0-29.764,13.326-29.764,29.764c0,16.438,13.326,29.764,29.764,29.764c16.438,0,29.764-13.326,29.764-29.764
	C166.679,315.216,153.353,301.89,136.915,301.89z M351.215,301.89c-16.438,0-29.764,13.326-29.764,29.764
	c0,16.438,13.326,29.764,29.764,29.764c16.439,0,29.764-13.326,29.764-29.764C380.979,315.216,367.655,301.89,351.215,301.89z
	 M95.245,397.135h83.339v83.34H95.245V397.135z M202.396,397.135h83.339v83.34h-83.339V397.135z M309.545,397.135h83.34v17.952
	c-33.672,9.847-62.471,31.201-81.688,59.621c-0.594,0.877-1.076,1.83-1.652,2.721V397.135z M434.555,432.852
	c4.648,0,9.236,0.268,13.766,0.791c0.094,0.01,0.184,0.035,0.279,0.047c4.432,0.52,8.813,1.271,13.139,2.232
	c0.154,0.033,0.309,0.064,0.465,0.092c55.797,12.557,97.359,62.186,97.359,121.848c0,69.18-55.826,125.008-125.008,125.008
	c-32.002,0-61.047-12.055-83.131-31.742c-0.271-0.309-0.559-0.604-0.859-0.883c-12.447-11.326-22.596-25.076-29.695-40.506
	c-0.109-0.244-0.238-0.477-0.348-0.721c-1.605-3.551-3.006-7.209-4.279-10.93c-0.133-0.391-0.289-0.77-0.418-1.162
	c-1.109-3.354-2.014-6.805-2.838-10.277c-0.098-0.422-0.23-0.832-0.324-1.256c-0.275-1.211-0.482-2.451-0.721-3.674
	c-0.432-2.213-0.783-4.443-1.094-6.697c-0.07-0.516-0.168-1.018-0.232-1.535c-0.16-1.27-0.32-2.533-0.441-3.813
	c-0.367-3.893-0.629-7.82-0.629-11.813c0-4.998,0.385-9.906,0.953-14.744c0.158-1.348,0.404-2.664,0.605-3.998
	c0.541-3.584,1.186-7.129,2.023-10.604c0.162-0.678,0.338-1.35,0.512-2.023c0.158-0.613,0.32-1.229,0.488-1.838
	c1.031-3.74,2.219-7.406,3.58-10.998c0.045-0.117,0.096-0.232,0.141-0.35c0.271-0.713,0.482-1.455,0.768-2.162
	c1.809-4.482,3.842-8.857,6.139-13.068c4.25-7.789,9.314-15.074,15.066-21.742l0.023-0.021l0.023-0.023
	c2.902-3.359,5.99-6.549,9.232-9.58c0.031-0.031,0.061-0.064,0.092-0.094c3.023-2.822,6.195-5.51,9.488-8.023
	c0.307-0.234,0.619-0.465,0.93-0.697c3.26-2.441,6.643-4.717,10.139-6.836c0.193-0.117,0.387-0.232,0.582-0.35
	c11.314-6.775,23.775-11.844,37.041-14.787l3.395-0.744C418.473,433.697,426.409,432.852,434.555,432.852z M392.747,492.379
	l-6.697,77.852h25.113c4.654-7.535,12.557-12.092,22.975-12.092c14.227,0,24.275,9.861,24.275,24.648
	c0,14.609-9.951,24.277-24.369,24.277c-12.738,0-22.6-7.436-24.184-18.604h-25.951c0.834,24.002,20.732,41.566,49.949,41.555
	c30.775,0,51.342-19.436,51.342-47.902c0-26.322-18.039-44.994-43.529-44.994c-13.311,0-22.783,4.924-28.461,13.113h-1.676
	l2.977-34.506h62.598v-23.348H392.747z M95.245,504.285h83.339v83.34H95.245V504.285z M202.396,504.285h83.339v53.576v29.764
	h-83.339V504.285z M136.915,516.191c-16.438,0-29.764,13.324-29.764,29.764c0,16.438,13.326,29.764,29.764,29.764
	c16.438,0,29.764-13.326,29.764-29.764C166.679,529.516,153.353,516.191,136.915,516.191z"/>
</svg>
