<?xml version="1.0" encoding="utf-8"?>
<!-- Generator: Adobe Illustrator 16.0.0, SVG Export Plug-In . SVG Version: 6.00 Build 0)  -->
<!DOCTYPE svg PUBLIC "-//W3C//DTD SVG 1.1//EN" "http://www.w3.org/Graphics/SVG/1.1/DTD/svg11.dtd">
<svg version="1.1" id="Layer_1" xmlns="http://www.w3.org/2000/svg" xmlns:xlink="http://www.w3.org/1999/xlink" x="0px" y="0px"
	 width="528.684px" height="547.66px" viewBox="33.298 147.116 528.684 547.66"
	 enable-background="new 33.298 147.116 528.684 547.66" xml:space="preserve">
<path d="M297.64,147.116c-126.265,0-232.811,85.943-264.342,202.396h24.834c8.929-29.81,23.393-57.156,41.949-81.154
	c20.323,11.44,43.855,21.021,69.899,28.369c-4.372,16.696-7.953,34.275-10.464,52.785h24.276c2.418-16.37,5.72-31.996,9.626-46.878
	c28.694,6.325,59.714,10.092,92.315,10.789v36.089h23.812v-36.089c32.6-0.697,63.619-4.418,92.314-10.789
	c3.906,14.882,7.209,30.508,9.627,46.878h24.275c-2.512-18.509-6.092-36.089-10.463-52.785
	c26.043-7.348,49.576-16.929,69.898-28.369c18.557,23.998,33.02,51.344,41.902,81.154h24.881
	C530.451,233.059,423.904,147.116,297.64,147.116z M285.734,172.369v117.243c-30.275-0.698-59.063-4.186-85.571-9.953
	C219.742,221.107,250.762,180.088,285.734,172.369z M309.546,172.369c34.973,7.72,65.992,48.738,85.57,107.29
	c-26.508,5.767-55.295,9.254-85.57,9.953V172.369z M227.788,181.065c-20.974,22.137-38.507,54.04-51.157,92.733
	c-22.742-6.418-43.297-14.557-60.877-23.998C145.89,217.759,184.444,193.761,227.788,181.065z M367.492,181.065
	c43.344,12.696,81.898,36.693,112.035,68.736c-17.58,9.441-38.137,17.58-60.877,23.998C406,235.105,388.466,203.202,367.492,181.065
	z M35.717,373.323l30.229,95.245h27.718l25.207-71.201l25.207,71.201h27.113l30.787-95.245h-25.764l-19.44,66.55l-22.23-66.55
	h-30.369l-23.16,65.434L61.9,373.323H35.717z M214.487,373.323l30.276,95.245h27.764l25.113-71.201l25.252,71.201h27.113
	l30.787-95.245h-25.811l-19.393,66.55l-22.23-66.55h-30.415l-23.16,65.434l-19.068-65.434H214.487z M392.699,373.323l30.322,95.245
	h27.857l25.252-71.201l25.348,71.201h27.205l30.881-95.245h-25.857l-19.533,66.55l-22.277-66.55h-30.508l-23.252,65.434
	l-19.207-65.434H392.699z M33.298,492.379C64.83,608.83,171.375,694.775,297.64,694.775c126.264,0,232.811-85.945,264.342-202.396
	h-24.881c-8.883,29.811-23.346,57.156-41.902,81.153c-20.322-11.44-43.855-21.021-69.898-28.369
	c4.371-16.695,7.951-34.274,10.463-52.784h-24.275c-2.418,16.37-5.721,31.996-9.627,46.878
	c-28.695-6.324-59.715-10.092-92.314-10.789v-36.089h-23.812v36.089c-32.601,0.697-63.621,4.418-92.315,10.789
	c-3.906-14.882-7.208-30.508-9.626-46.878h-24.276c2.511,18.51,6.092,36.089,10.464,52.784
	c-26.043,7.349-49.576,16.929-69.899,28.369c-18.556-23.997-33.02-51.343-41.949-81.153H33.298z M285.734,552.278v117.243
	c-34.973-7.721-65.992-48.739-85.571-107.29C226.671,556.464,255.459,552.977,285.734,552.278z M309.546,552.278
	c30.275,0.698,59.063,4.186,85.57,9.953c-19.578,58.551-50.598,99.569-85.57,107.29V552.278z M176.677,568.091
	c12.65,38.693,30.136,70.597,51.11,92.688c-43.344-12.651-81.897-36.648-112.034-68.691
	C133.333,582.601,153.889,574.509,176.677,568.091z M418.65,568.091c22.74,6.418,43.297,14.557,60.877,23.997
	c-30.137,32.043-68.691,56.04-112.035,68.691C388.466,638.688,406,606.784,418.65,568.091z"/>
</svg>
