<?xml version="1.0" encoding="utf-8"?>
<!-- Generator: Adobe Illustrator 16.0.0, SVG Export Plug-In . SVG Version: 6.00 Build 0)  -->
<!DOCTYPE svg PUBLIC "-//W3C//DTD SVG 1.1//EN" "http://www.w3.org/Graphics/SVG/1.1/DTD/svg11.dtd">
<svg version="1.1" id="Layer_1" xmlns="http://www.w3.org/2000/svg" xmlns:xlink="http://www.w3.org/1999/xlink" x="0px" y="0px"
	 width="20px" height="20px" viewBox="0 0 20 20" enable-background="new 0 0 20 20" xml:space="preserve">
<g>
	<path fill="#FFFFFF" d="M4.239,16.234c-0.019-0.02-0.038-0.039-0.058-0.06c-0.003,0.005-0.006,0.009-0.01,0.013
		C4.194,16.203,4.217,16.22,4.239,16.234c0.015,0.02,0.028,0.039,0.046,0.056c0.215,0.2,0.44,0.39,0.676,0.563
		c1.491,1.116,3.167,1.715,5.027,1.795c0.821,0.035,1.629-0.045,2.428-0.235c1.078-0.258,2.072-0.702,2.984-1.33
		c0.016-0.009,0.026-0.021,0.039-0.031c-0.088-0.254-0.174-0.503-0.263-0.758c-0.021,0.015-0.038,0.029-0.059,0.044
		c-0.458,0.371-0.949,0.689-1.474,0.96c-1.06,0.543-2.185,0.849-3.372,0.925c-0.38,0.022-0.76,0.021-1.139-0.009
		c-0.4-0.028-0.796-0.082-1.188-0.167c-1.36-0.296-2.575-0.888-3.649-1.771C4.28,16.261,4.259,16.249,4.239,16.234z M1.352,9.592
		c-0.005,0.007-0.009,0.01-0.01,0.014C1.341,9.624,1.341,9.642,1.34,9.659c-0.006,0.641,0.058,1.274,0.201,1.899
		c0.422,1.84,1.353,3.375,2.797,4.586c1.464,1.229,3.161,1.873,5.072,1.949c0.641,0.026,1.275-0.025,1.904-0.146
		c1.246-0.242,2.375-0.745,3.394-1.5c0.131-0.098,0.255-0.201,0.382-0.303c0.016-0.013,0.041-0.021,0.033-0.05
		c-0.008-0.001-0.014-0.003-0.016-0.002c-0.016,0.011-0.029,0.021-0.045,0.03c-1.319,0.995-2.809,1.533-4.457,1.616
		c-0.579,0.028-1.152-0.009-1.724-0.105c-0.884-0.151-1.724-0.438-2.504-0.88c-1.85-1.045-3.107-2.58-3.766-4.602
		c-0.179-0.549-0.286-1.114-0.337-1.69c-0.002-0.024-0.013-0.052-0.029-0.07C1.996,10.1,1.717,9.839,1.4,9.62
		C1.385,9.61,1.368,9.601,1.352,9.592z M0,6.026C0.01,6.045,0.014,6.053,0.019,6.06c0.276,0.421,0.652,0.711,1.136,0.857
		c0.415,0.125,0.837,0.13,1.262,0.075c0.37-0.047,0.729-0.138,1.082-0.256c0.723-0.243,1.403-0.575,2.05-0.975
		c0.527-0.326,1.1-0.506,1.714-0.563c0.46-0.042,0.919-0.022,1.375,0.061c0.071,0.015,0.142,0.03,0.221,0.045
		C8.851,5.286,8.847,5.274,8.84,5.263C8.658,4.97,8.451,4.694,8.2,4.456C8,4.266,7.778,4.107,7.521,4.002
		c-0.246-0.099-0.5-0.133-0.758-0.083C6.599,3.95,6.438,3.992,6.279,4.043c-0.716,0.23-1.388,0.56-2.031,0.949
		c-0.37,0.223-0.715,0.481-1.059,0.742c-0.47,0.356-1.001,0.555-1.59,0.595C1.161,6.358,0.734,6.297,0.32,6.151
		C0.216,6.114,0.114,6.071,0,6.026z M9.425,9.31c0.028-0.012,0.041-0.016,0.053-0.022c0.42-0.2,0.782-0.475,1.071-0.842
		c0.426-0.541,0.6-1.153,0.5-1.837c-0.104-0.711-0.422-1.304-0.982-1.763c-0.54-0.442-1.159-0.71-1.839-0.848
		c-0.013-0.003-0.027,0-0.042,0c0.002,0.006,0.001,0.01,0.003,0.011C8.204,4.022,8.22,4.034,8.236,4.046
		c0.523,0.406,0.947,0.897,1.256,1.486c0.412,0.784,0.533,1.612,0.372,2.482C9.785,8.438,9.643,8.842,9.46,9.231
		C9.449,9.252,9.44,9.274,9.425,9.31z M11.35,3.789c0.002-0.01,0.004-0.012,0.004-0.014c0-0.033,0-0.066,0-0.1
		c0.013-0.398,0.19-0.688,0.563-0.846c0.091-0.039,0.149-0.101,0.185-0.189c0.043-0.109,0.063-0.223,0.065-0.339
		c0.013-0.384-0.069-0.751-0.213-1.105c-0.118-0.295-0.28-0.565-0.513-0.789c-0.355-0.344-0.78-0.469-1.269-0.38
		c-0.248,0.045-0.477,0.14-0.696,0.261C9.167,0.46,8.89,0.674,8.63,0.912C8.624,0.917,8.621,0.925,8.61,0.939
		C8.64,0.93,8.661,0.922,8.683,0.918c0.104-0.021,0.208-0.05,0.314-0.057c0.536-0.038,1.01,0.123,1.417,0.47
		c0.271,0.231,0.449,0.521,0.514,0.875c0.032,0.183,0.055,0.369,0.079,0.554c0.022,0.171,0.042,0.344,0.068,0.515
		c0.018,0.114,0.051,0.225,0.106,0.328C11.223,3.677,11.271,3.741,11.35,3.789z M6.032,2.2C5.479,2.47,4.96,2.801,4.476,3.188
		C3.99,3.579,3.553,4.018,3.164,4.504c-0.363,0.455-0.952,1.402-0.975,1.57c0.016-0.004,0.03-0.007,0.044-0.012
		c0.32-0.104,0.615-0.256,0.885-0.457c0.179-0.133,0.356-0.267,0.533-0.402c0.022-0.017,0.043-0.039,0.06-0.062
		C4.44,4.119,5.357,3.308,6.462,2.71C6.477,2.702,6.49,2.692,6.499,2.686C6.343,2.525,6.189,2.364,6.032,2.2z M4.021,0.86
		C4.047,0.855,4.06,0.854,4.072,0.851c0.131-0.026,0.26-0.06,0.392-0.077c0.364-0.047,0.685,0.047,0.944,0.314
		C5.506,1.19,5.595,1.303,5.68,1.417c0.108,0.149,0.208,0.305,0.312,0.458c0.148,0.217,0.31,0.423,0.504,0.603
		c0.158,0.146,0.34,0.248,0.548,0.306c0.25,0.07,0.505,0.071,0.76,0.032C8.167,2.759,8.508,2.632,8.831,2.46
		C8.848,2.452,8.863,2.44,8.89,2.422C8.781,2.434,8.688,2.447,8.592,2.453C8.178,2.481,7.803,2.381,7.48,2.11
		C7.333,1.987,7.205,1.845,7.095,1.687C6.958,1.485,6.826,1.279,6.693,1.073C6.616,0.953,6.532,0.839,6.428,0.74
		C6.226,0.546,5.987,0.428,5.709,0.39C5.467,0.355,5.23,0.379,4.995,0.438c-0.333,0.083-0.64,0.228-0.938,0.394
		C4.048,0.838,4.041,0.845,4.021,0.86z M10.773,3.305c0.002,0,0.004,0,0.006-0.001c0-0.043,0.004-0.088,0-0.132
		c-0.012-0.122-0.022-0.244-0.041-0.364c-0.039-0.26-0.109-0.512-0.225-0.751c-0.062-0.129-0.137-0.249-0.228-0.36
		c-0.222-0.274-0.519-0.415-0.86-0.479C9.144,1.165,8.857,1.152,8.571,1.142c-0.21-0.008-0.421-0.017-0.63-0.057
		C7.587,1.016,7.323,0.827,7.153,0.507C7.082,0.375,7.028,0.236,6.987,0.093C6.979,0.066,6.971,0.04,6.962,0.013
		C6.953,0.074,6.957,0.132,6.96,0.191c0.012,0.231,0.042,0.46,0.096,0.686c0.06,0.25,0.149,0.488,0.296,0.702
		c0.151,0.223,0.35,0.389,0.602,0.488C8.14,2.14,8.332,2.168,8.529,2.169C8.828,2.17,9.125,2.172,9.422,2.207
		c0.2,0.022,0.396,0.061,0.583,0.133c0.392,0.151,0.642,0.429,0.741,0.838C10.756,3.22,10.764,3.263,10.773,3.305z M12.01,0.947
		c0.012,0.027,0.02,0.045,0.025,0.063c0.054,0.144,0.107,0.287,0.158,0.432c0.014,0.041,0.031,0.06,0.072,0.073
		c1.402,0.437,2.613,1.185,3.637,2.239c0.014,0.014,0.027,0.026,0.048,0.043c0.006-0.016,0.01-0.025,0.013-0.035
		c0.081-0.259,0.141-0.523,0.18-0.792c0.004-0.037-0.015-0.053-0.037-0.071c-0.129-0.103-0.254-0.209-0.385-0.308
		c-1.074-0.809-2.271-1.349-3.586-1.622C12.098,0.96,12.057,0.955,12.01,0.947z M1.371,9.088c0.305,0.038,0.595,0.125,0.886,0.238
		c0.022-0.388,0.068-0.762,0.142-1.133c0.073-0.37,0.174-0.732,0.297-1.091C2.529,7.12,2.373,7.141,2.216,7.15
		C2.06,7.16,1.902,7.158,1.745,7.162C1.603,7.457,1.35,8.752,1.371,9.088z M15.854,4.063c-0.037-0.112-0.66-0.69-1.063-0.999
		c-0.763-0.581-1.601-1.021-2.521-1.317c0.008,0.087,0.017,0.164,0.024,0.24c0.002,0.015,0.007,0.03,0.011,0.048
		C13.662,2.404,14.843,3.084,15.854,4.063z"/>
	<path fill="#FFFFFF" d="M18.35,20c-0.009-0.004-0.016-0.01-0.023-0.012c-0.579-0.178-1.068-0.5-1.486-0.934
		c-0.371-0.382-0.662-0.818-0.906-1.289c-0.309-0.592-0.533-1.217-0.707-1.859c-0.147-0.543-0.259-1.096-0.33-1.653
		c-0.025-0.207-0.045-0.415-0.057-0.624c-0.012-0.229-0.117-0.391-0.313-0.502c-0.139-0.081-0.291-0.119-0.449-0.132
		c-0.278-0.024-0.557-0.021-0.834-0.009c-0.266,0.015-0.528,0.027-0.793,0.048c-0.262,0.021-0.521,0.047-0.784,0.071
		c-0.424,0.045-0.849,0.054-1.27-0.019c-0.049-0.008-0.072,0.011-0.098,0.045c-0.378,0.517-0.778,1.013-1.213,1.481
		c-0.327,0.35-0.67,0.683-1.053,0.973c-0.238,0.182-0.488,0.341-0.766,0.456c-0.231,0.097-0.472,0.144-0.723,0.123
		c-0.356-0.026-0.667-0.159-0.931-0.401c-0.184-0.169-0.328-0.367-0.45-0.584c-0.151-0.266-0.265-0.548-0.374-0.832
		c-0.045-0.119-0.086-0.238-0.136-0.354c-0.047-0.108-0.101-0.213-0.155-0.316c-0.129-0.241-0.262-0.479-0.391-0.722
		c-0.327-0.607-0.669-1.205-1.063-1.771c-0.292-0.422-0.607-0.825-0.971-1.188C1.866,9.79,1.646,9.598,1.398,9.443
		C1.274,9.365,1.142,9.3,1.013,9.229C1,9.223,0.987,9.217,0.962,9.206c0.078,0,0.142-0.005,0.204,0.001
		C1.546,9.239,1.909,9.34,2.258,9.49c0.484,0.207,0.923,0.488,1.337,0.81c0.584,0.454,1.105,0.974,1.589,1.529
		c0.535,0.612,1.019,1.264,1.457,1.948c0.012,0.02,0.024,0.037,0.042,0.061c0.034-0.036,0.065-0.066,0.094-0.1
		c0.215-0.242,0.397-0.508,0.575-0.777c0.25-0.379,0.496-0.759,0.748-1.137c0.17-0.256,0.355-0.5,0.559-0.73
		c0.016-0.018,0.03-0.039,0.037-0.063c0.12-0.439,0.338-0.826,0.633-1.169c0.383-0.445,0.852-0.771,1.401-0.979
		c0.021-0.008,0.043-0.023,0.057-0.042c0.302-0.415,0.512-0.871,0.592-1.378c0.156-0.99-0.12-1.859-0.775-2.607
		C10.069,4.245,9.388,3.883,8.59,3.739C8.282,3.683,7.971,3.675,7.659,3.691c-0.012,0.001-0.024,0-0.051,0
		C7.63,3.676,7.642,3.667,7.654,3.659c0.37-0.234,0.773-0.379,1.207-0.437c0.792-0.108,1.518,0.083,2.189,0.503
		c0.22,0.137,0.423,0.295,0.615,0.468c0.021,0.019,0.044,0.039,0.067,0.053c0.646,0.377,1.315,0.697,2.031,0.917
		c0.307,0.095,0.619,0.164,0.938,0.189c0.118,0.009,0.235,0.006,0.354,0.004c0.069-0.001,0.135-0.03,0.188-0.073
		c0.071-0.056,0.144-0.115,0.203-0.182c0.149-0.164,0.261-0.354,0.358-0.552c0.248-0.503,0.406-1.033,0.473-1.59
		c0.031-0.257,0.035-0.515-0.004-0.771c-0.029-0.199-0.086-0.391-0.198-0.561C16.043,1.571,16,1.521,15.956,1.463
		c0.022-0.009,0.046-0.002,0.067,0.003c0.146,0.03,0.271,0.099,0.384,0.193c0.131,0.11,0.235,0.242,0.323,0.388
		c0.172,0.28,0.278,0.585,0.349,0.904c0.086,0.391,0.112,0.788,0.08,1.187c-0.056,0.671-0.253,1.293-0.642,1.849
		c-0.127,0.179-0.271,0.343-0.427,0.495c-0.039,0.037-0.081,0.061-0.131,0.077c-0.153,0.049-0.312,0.073-0.472,0.092
		c-0.354,0.041-0.711,0.044-1.065,0.023c-0.507-0.029-1.007-0.106-1.487-0.281c-0.006-0.002-0.014-0.003-0.027-0.007
		c0.01,0.064,0.018,0.125,0.025,0.184c0.053,0.366,0.06,0.731,0.026,1.099c-0.088,1.016-0.407,1.963-0.864,2.868
		c-0.012,0.023-0.022,0.047-0.037,0.078c0.075,0.01,0.146,0.02,0.215,0.025c0.244,0.019,0.488,0.037,0.731,0.055
		c0.41,0.029,0.821,0.054,1.231,0.085c0.488,0.036,0.953,0.165,1.388,0.397c0.246,0.135,0.468,0.301,0.644,0.521
		c0.188,0.236,0.299,0.508,0.346,0.806c0.046,0.287,0.035,0.573-0.008,0.858c-0.045,0.295-0.051,0.593-0.039,0.891
		c0.017,0.381,0.055,0.76,0.113,1.135c0.187,1.182,0.486,2.332,0.988,3.422c0.188,0.408,0.409,0.799,0.688,1.155
		c0.008,0.011,0.013,0.023,0.019,0.034C18.366,20,18.357,20,18.35,20z"/>
	<path fill="#FFFFFF" d="M19.27,10.016c-0.004,0.025-0.008,0.052-0.01,0.078c-0.039,1.245-0.347,2.424-0.889,3.542
		c-0.369,0.761-0.842,1.454-1.409,2.081c-0.019,0.021-0.039,0.042-0.065,0.07c-0.01-0.049-0.021-0.086-0.025-0.125
		c-0.045-0.314-0.089-0.633-0.135-0.95c-0.008-0.06,0.004-0.108,0.041-0.161c0.678-0.979,1.132-2.051,1.361-3.22
		c0.123-0.633,0.176-1.272,0.153-1.917c-0.05-1.467-0.446-2.833-1.194-4.097c-0.02-0.03-0.033-0.057-0.019-0.098
		c0.122-0.341,0.192-0.693,0.217-1.055c0-0.008,0.002-0.016,0.006-0.037c0.021,0.024,0.035,0.04,0.05,0.056
		c0.625,0.794,1.105,1.669,1.438,2.626c0.188,0.541,0.32,1.096,0.398,1.664c0.039,0.286,0.07,0.573,0.072,0.863
		c0,0.031,0.006,0.062,0.01,0.091C19.27,9.624,19.27,9.819,19.27,10.016z"/>
	<path fill="#FFFFFF" d="M1.352,9.592C1.368,9.601,1.385,9.61,1.401,9.621c0.316,0.219,0.595,0.48,0.846,0.772
		c0.016,0.019,0.027,0.046,0.029,0.07c0.051,0.576,0.158,1.143,0.337,1.689c0.658,2.021,1.916,3.558,3.766,4.603
		c0.781,0.44,1.62,0.728,2.504,0.88c0.57,0.098,1.145,0.135,1.723,0.105c1.649-0.083,3.139-0.621,4.459-1.616
		c0.015-0.01,0.028-0.021,0.045-0.03c0.002-0.001,0.007,0.001,0.015,0.002c0.008,0.027-0.019,0.037-0.033,0.049
		c-0.127,0.103-0.251,0.207-0.382,0.304c-1.018,0.755-2.146,1.258-3.393,1.5c-0.631,0.122-1.265,0.174-1.905,0.146
		c-1.911-0.077-3.607-0.722-5.072-1.948c-1.445-1.213-2.375-2.748-2.797-4.588C1.398,10.934,1.334,10.3,1.34,9.659
		c0-0.018,0.001-0.036,0.002-0.053C1.343,9.602,1.347,9.599,1.352,9.592z"/>
	<path fill="#FFFFFF" d="M0,6.026c0.115,0.045,0.216,0.088,0.32,0.125c0.414,0.146,0.841,0.207,1.279,0.178
		c0.588-0.04,1.12-0.239,1.589-0.594c0.344-0.261,0.689-0.52,1.059-0.742c0.644-0.389,1.315-0.718,2.031-0.949
		c0.159-0.051,0.32-0.094,0.484-0.125c0.26-0.049,0.514-0.016,0.759,0.083C7.778,4.107,8,4.266,8.2,4.456
		C8.451,4.694,8.658,4.97,8.841,5.263c0.006,0.011,0.01,0.023,0.019,0.041c-0.079-0.015-0.15-0.03-0.222-0.043
		C8.182,5.177,7.723,5.158,7.263,5.2C6.648,5.256,6.076,5.436,5.549,5.762c-0.647,0.399-1.327,0.732-2.05,0.975
		C3.146,6.854,2.787,6.946,2.417,6.993C1.992,7.047,1.57,7.042,1.155,6.917C0.671,6.771,0.295,6.481,0.019,6.06
		C0.014,6.053,0.01,6.045,0,6.026z"/>
	<path fill="#FFFFFF" d="M9.425,9.31C9.44,9.274,9.449,9.252,9.46,9.231c0.183-0.39,0.325-0.793,0.402-1.218
		c0.161-0.87,0.041-1.699-0.372-2.482c-0.309-0.588-0.733-1.08-1.256-1.486C8.219,4.033,8.203,4.021,8.188,4.008
		c-0.002-0.001-0.001-0.004-0.003-0.01c0.015,0,0.029-0.002,0.042,0c0.68,0.138,1.299,0.406,1.839,0.848
		c0.561,0.458,0.879,1.052,0.982,1.763c0.099,0.684-0.075,1.296-0.5,1.837c-0.288,0.367-0.651,0.641-1.07,0.842
		C9.465,9.293,9.453,9.298,9.425,9.31z"/>
	<path fill="#FFFFFF" d="M11.35,3.789c-0.078-0.048-0.127-0.112-0.166-0.185c-0.058-0.103-0.091-0.214-0.107-0.328
		c-0.026-0.171-0.045-0.344-0.068-0.515c-0.025-0.185-0.047-0.371-0.078-0.554c-0.063-0.354-0.242-0.643-0.515-0.875
		c-0.408-0.348-0.882-0.508-1.417-0.47C8.891,0.869,8.787,0.898,8.683,0.919C8.661,0.923,8.64,0.931,8.61,0.939
		c0.011-0.015,0.014-0.022,0.02-0.027C8.89,0.674,9.167,0.46,9.477,0.289c0.219-0.121,0.448-0.216,0.696-0.261
		c0.487-0.089,0.912,0.036,1.269,0.38c0.231,0.223,0.395,0.493,0.513,0.789c0.144,0.354,0.226,0.721,0.213,1.104
		c-0.004,0.116-0.022,0.23-0.065,0.339c-0.035,0.088-0.094,0.15-0.185,0.189c-0.372,0.158-0.551,0.447-0.563,0.846
		c0,0.033,0,0.066,0,0.1C11.354,3.777,11.352,3.779,11.35,3.789z"/>
	<path fill="#FFFFFF" d="M4.239,16.234c0.02,0.015,0.041,0.025,0.06,0.041c1.074,0.884,2.289,1.476,3.649,1.771
		c0.392,0.085,0.788,0.139,1.188,0.167c0.379,0.028,0.759,0.031,1.139,0.009c1.188-0.076,2.313-0.382,3.372-0.925
		c0.523-0.271,1.016-0.589,1.474-0.96c0.021-0.015,0.038-0.029,0.06-0.044c0.088,0.255,0.174,0.504,0.262,0.758
		c-0.012,0.011-0.023,0.022-0.039,0.031c-0.911,0.628-1.906,1.072-2.984,1.33c-0.799,0.19-1.607,0.271-2.428,0.235
		c-1.859-0.08-3.536-0.679-5.027-1.795C4.726,16.68,4.5,16.49,4.285,16.29C4.268,16.273,4.254,16.254,4.239,16.234L4.239,16.234z"/>
	<path fill="#FFFFFF" d="M6.032,2.2C6.19,2.365,6.344,2.525,6.499,2.687C6.491,2.693,6.477,2.703,6.462,2.711
		C5.357,3.308,4.441,4.119,3.711,5.142c-0.016,0.023-0.037,0.044-0.06,0.062C3.475,5.338,3.298,5.472,3.119,5.605
		c-0.27,0.201-0.565,0.353-0.885,0.457C2.22,6.066,2.205,6.069,2.189,6.074C2.212,5.906,2.801,4.96,3.164,4.505
		C3.553,4.018,3.99,3.579,4.476,3.188C4.96,2.801,5.479,2.47,6.032,2.2z"/>
	<path fill="#FFFFFF" d="M4.021,0.86c0.02-0.015,0.027-0.022,0.036-0.028c0.298-0.167,0.605-0.311,0.938-0.394
		C5.23,0.379,5.467,0.355,5.709,0.39c0.277,0.039,0.516,0.156,0.719,0.35c0.104,0.1,0.188,0.213,0.265,0.333
		c0.133,0.206,0.265,0.412,0.402,0.614c0.109,0.158,0.238,0.3,0.385,0.423c0.323,0.271,0.698,0.371,1.112,0.343
		c0.095-0.006,0.189-0.02,0.297-0.031C8.863,2.439,8.848,2.451,8.831,2.459c-0.324,0.173-0.664,0.3-1.027,0.356
		c-0.255,0.04-0.51,0.039-0.76-0.032c-0.208-0.059-0.39-0.161-0.548-0.306C6.301,2.298,6.14,2.092,5.991,1.875
		C5.887,1.723,5.788,1.566,5.68,1.417C5.595,1.303,5.506,1.19,5.408,1.088c-0.259-0.267-0.58-0.361-0.944-0.314
		C4.333,0.791,4.203,0.825,4.072,0.851C4.06,0.854,4.047,0.855,4.021,0.86z"/>
	<path fill="#FFFFFF" d="M10.773,3.305c-0.01-0.042-0.019-0.084-0.028-0.127c-0.101-0.409-0.349-0.687-0.741-0.838
		C9.817,2.267,9.622,2.229,9.422,2.207C9.125,2.172,8.828,2.17,8.529,2.169C8.332,2.168,8.14,2.14,7.955,2.067
		C7.703,1.968,7.504,1.802,7.353,1.579C7.206,1.365,7.117,1.127,7.057,0.877C7.002,0.651,6.972,0.422,6.96,0.191
		C6.957,0.132,6.953,0.074,6.962,0.013c0.009,0.026,0.017,0.053,0.024,0.08c0.042,0.143,0.095,0.282,0.166,0.414
		c0.17,0.32,0.435,0.509,0.788,0.578c0.209,0.04,0.42,0.049,0.63,0.057c0.286,0.01,0.572,0.023,0.855,0.076
		c0.342,0.063,0.638,0.204,0.86,0.479c0.091,0.111,0.166,0.23,0.229,0.36c0.113,0.239,0.185,0.491,0.223,0.751
		c0.02,0.121,0.029,0.243,0.043,0.364c0.003,0.043,0,0.088,0,0.132C10.777,3.304,10.775,3.305,10.773,3.305z"/>
	<path fill="#FFFFFF" d="M12.01,0.947c0.047,0.008,0.088,0.013,0.125,0.021c1.315,0.273,2.512,0.813,3.586,1.622
		c0.131,0.099,0.256,0.205,0.385,0.308c0.022,0.019,0.041,0.034,0.037,0.071c-0.039,0.269-0.099,0.533-0.18,0.792
		c-0.003,0.01-0.007,0.021-0.013,0.035c-0.021-0.017-0.034-0.029-0.048-0.043C14.88,2.7,13.669,1.952,12.268,1.515
		c-0.041-0.013-0.061-0.033-0.074-0.073c-0.049-0.145-0.104-0.288-0.157-0.432C12.027,0.992,12.021,0.974,12.01,0.947z"/>
	<path fill="#FFFFFF" d="M1.371,9.088C1.35,8.752,1.603,7.457,1.745,7.162C1.902,7.158,2.06,7.16,2.216,7.15
		c0.157-0.009,0.313-0.03,0.479-0.048C2.572,7.461,2.472,7.824,2.398,8.193c-0.073,0.371-0.12,0.745-0.142,1.133
		C1.966,9.213,1.676,9.126,1.371,9.088z"/>
	<path fill="#FFFFFF" d="M15.854,4.063c-1.011-0.978-2.19-1.658-3.549-2.028c-0.004-0.018-0.009-0.033-0.011-0.048
		c-0.009-0.076-0.017-0.153-0.024-0.24c0.92,0.297,1.758,0.736,2.521,1.317C15.193,3.372,15.816,3.951,15.854,4.063z"/>
	<path fill="#FFFFFF" d="M4.239,16.236c-0.022-0.018-0.045-0.033-0.067-0.049c0.003-0.004,0.006-0.008,0.01-0.013
		C4.201,16.195,4.22,16.216,4.239,16.236L4.239,16.236z"/>
</g>
</svg>
