<?xml version="1.0" encoding="utf-8"?>
<!-- Generator: Adobe Illustrator 16.0.0, SVG Export Plug-In . SVG Version: 6.00 Build 0)  -->
<!DOCTYPE svg PUBLIC "-//W3C//DTD SVG 1.1//EN" "http://www.w3.org/Graphics/SVG/1.1/DTD/svg11.dtd">
<svg version="1.1" id="Layer_1" xmlns="http://www.w3.org/2000/svg" xmlns:xlink="http://www.w3.org/1999/xlink" x="0px" y="0px"
	 width="20px" height="20px" viewBox="0 0 20 20" enable-background="new 0 0 20 20" xml:space="preserve">
<g>
	<path fill-rule="evenodd" clip-rule="evenodd" fill="#DCDCDC" d="M4.239,16.235c-0.019-0.02-0.038-0.039-0.058-0.06
		c-0.003,0.004-0.006,0.008-0.01,0.012C4.194,16.203,4.217,16.22,4.239,16.235c0.015,0.019,0.028,0.039,0.046,0.055
		c0.215,0.2,0.44,0.389,0.676,0.564c1.491,1.116,3.167,1.715,5.027,1.794c0.82,0.035,1.629-0.045,2.428-0.235
		c1.078-0.258,2.073-0.702,2.985-1.33c0.015-0.009,0.026-0.021,0.038-0.031c-0.088-0.254-0.174-0.503-0.262-0.758
		c-0.021,0.015-0.039,0.029-0.059,0.044c-0.458,0.371-0.949,0.69-1.474,0.96c-1.059,0.543-2.184,0.848-3.371,0.924
		c-0.38,0.023-0.76,0.021-1.139-0.008c-0.4-0.028-0.796-0.082-1.188-0.167c-1.36-0.296-2.575-0.888-3.649-1.771
		C4.28,16.261,4.259,16.249,4.239,16.235z M1.352,9.592c-0.005,0.007-0.009,0.01-0.01,0.014C1.341,9.624,1.341,9.642,1.34,9.659
		c-0.006,0.641,0.058,1.274,0.201,1.899c0.422,1.84,1.353,3.375,2.797,4.587c1.464,1.228,3.161,1.872,5.072,1.949
		c0.641,0.026,1.275-0.025,1.905-0.147c1.245-0.242,2.375-0.745,3.393-1.5c0.131-0.097,0.255-0.201,0.382-0.303
		c0.016-0.012,0.041-0.021,0.033-0.049c-0.008-0.001-0.013-0.003-0.015-0.002c-0.016,0.01-0.03,0.021-0.045,0.03
		c-1.32,0.995-2.809,1.533-4.458,1.616c-0.578,0.029-1.152-0.008-1.723-0.105c-0.884-0.152-1.724-0.438-2.504-0.88
		c-1.85-1.045-3.107-2.58-3.766-4.602c-0.179-0.549-0.286-1.114-0.337-1.69c-0.002-0.024-0.013-0.052-0.029-0.07
		c-0.25-0.292-0.529-0.553-0.846-0.772C1.385,9.61,1.368,9.601,1.352,9.592z M0,6.026C0.01,6.045,0.014,6.053,0.019,6.06
		c0.276,0.421,0.652,0.711,1.136,0.857c0.415,0.125,0.837,0.13,1.262,0.075c0.37-0.047,0.729-0.138,1.082-0.256
		c0.723-0.243,1.403-0.575,2.05-0.975c0.527-0.326,1.1-0.506,1.714-0.563c0.46-0.042,0.919-0.022,1.375,0.061
		C8.709,5.274,8.78,5.289,8.859,5.304c-0.008-0.018-0.012-0.03-0.019-0.041C8.658,4.97,8.451,4.694,8.2,4.456
		C8,4.266,7.778,4.107,7.521,4.002c-0.246-0.099-0.5-0.133-0.758-0.083C6.599,3.95,6.438,3.992,6.279,4.043
		c-0.716,0.23-1.388,0.56-2.031,0.949c-0.37,0.223-0.715,0.481-1.059,0.742C2.719,6.09,2.188,6.289,1.599,6.329
		C1.161,6.358,0.734,6.297,0.32,6.151C0.216,6.114,0.114,6.071,0,6.026z M9.425,9.31c0.028-0.012,0.041-0.016,0.053-0.022
		c0.42-0.2,0.782-0.475,1.071-0.842c0.425-0.541,0.599-1.153,0.5-1.837c-0.104-0.711-0.422-1.304-0.982-1.763
		c-0.54-0.442-1.159-0.71-1.839-0.848c-0.013-0.003-0.027,0-0.042,0c0.002,0.006,0.001,0.01,0.003,0.011
		c0.015,0.013,0.031,0.025,0.047,0.037c0.523,0.406,0.947,0.897,1.256,1.486c0.412,0.784,0.533,1.612,0.372,2.482
		C9.785,8.438,9.643,8.842,9.46,9.231C9.449,9.252,9.44,9.274,9.425,9.31z M11.349,3.789c0.003-0.01,0.005-0.012,0.005-0.014
		c0-0.033-0.001-0.066,0-0.1c0.012-0.398,0.19-0.688,0.563-0.846c0.091-0.039,0.149-0.101,0.184-0.189
		c0.044-0.109,0.063-0.223,0.066-0.339c0.012-0.384-0.069-0.751-0.213-1.105c-0.118-0.295-0.28-0.565-0.512-0.789
		c-0.356-0.344-0.781-0.469-1.269-0.38c-0.248,0.045-0.477,0.14-0.696,0.261C9.167,0.46,8.89,0.674,8.63,0.912
		C8.624,0.917,8.621,0.925,8.61,0.939c0.03-0.009,0.051-0.017,0.073-0.021c0.104-0.021,0.208-0.05,0.314-0.057
		c0.536-0.038,1.01,0.123,1.417,0.47c0.271,0.231,0.45,0.521,0.514,0.875c0.032,0.183,0.054,0.369,0.079,0.554
		c0.023,0.171,0.042,0.344,0.068,0.515c0.018,0.114,0.051,0.225,0.107,0.328C11.222,3.677,11.271,3.741,11.349,3.789z M6.032,2.2
		C5.479,2.47,4.96,2.801,4.476,3.188C3.99,3.579,3.553,4.018,3.164,4.504C2.801,4.959,2.212,5.906,2.189,6.074
		c0.016-0.004,0.03-0.007,0.044-0.012c0.32-0.104,0.615-0.256,0.885-0.457c0.179-0.133,0.356-0.267,0.533-0.402
		c0.022-0.017,0.043-0.039,0.06-0.062c0.729-1.022,1.646-1.833,2.751-2.431c0.015-0.008,0.028-0.018,0.037-0.024
		C6.343,2.525,6.189,2.364,6.032,2.2z M4.021,0.86C4.047,0.855,4.06,0.854,4.072,0.851c0.131-0.026,0.26-0.06,0.392-0.077
		c0.364-0.047,0.685,0.047,0.944,0.314C5.506,1.19,5.595,1.303,5.68,1.417c0.108,0.149,0.208,0.305,0.312,0.458
		c0.148,0.217,0.31,0.423,0.504,0.603c0.158,0.146,0.34,0.248,0.548,0.306c0.25,0.07,0.505,0.071,0.76,0.032
		c0.363-0.057,0.704-0.184,1.027-0.356c0.017-0.008,0.032-0.02,0.059-0.038C8.781,2.434,8.688,2.447,8.592,2.453
		C8.178,2.481,7.803,2.381,7.48,2.11C7.333,1.987,7.205,1.845,7.095,1.687C6.958,1.485,6.826,1.279,6.693,1.073
		C6.616,0.953,6.532,0.839,6.428,0.74C6.226,0.546,5.987,0.428,5.709,0.39C5.467,0.355,5.23,0.379,4.995,0.438
		c-0.333,0.083-0.64,0.228-0.938,0.394C4.048,0.838,4.041,0.845,4.021,0.86z M10.773,3.305c0.003,0,0.005,0,0.007-0.001
		c0-0.043,0.003-0.088,0-0.132c-0.013-0.122-0.023-0.244-0.042-0.364c-0.039-0.26-0.109-0.512-0.224-0.751
		c-0.062-0.129-0.137-0.249-0.228-0.36c-0.222-0.274-0.519-0.415-0.86-0.479C9.144,1.165,8.857,1.152,8.571,1.142
		c-0.21-0.008-0.421-0.017-0.63-0.057C7.587,1.016,7.323,0.827,7.153,0.507C7.082,0.375,7.028,0.236,6.987,0.093
		C6.979,0.066,6.971,0.04,6.962,0.013C6.953,0.074,6.957,0.132,6.96,0.191c0.012,0.231,0.042,0.46,0.096,0.686
		c0.06,0.25,0.149,0.488,0.296,0.702c0.151,0.223,0.35,0.389,0.602,0.488C8.14,2.14,8.332,2.168,8.529,2.169
		C8.828,2.17,9.125,2.172,9.422,2.207c0.2,0.022,0.396,0.061,0.583,0.133c0.392,0.151,0.641,0.429,0.741,0.838
		C10.756,3.22,10.764,3.263,10.773,3.305z M12.01,0.947c0.011,0.027,0.019,0.045,0.025,0.063c0.054,0.144,0.108,0.287,0.158,0.432
		c0.014,0.041,0.032,0.06,0.073,0.073c1.402,0.437,2.613,1.185,3.636,2.239c0.014,0.014,0.028,0.026,0.048,0.043
		c0.006-0.016,0.01-0.025,0.013-0.035c0.081-0.259,0.14-0.523,0.18-0.792c0.004-0.037-0.015-0.053-0.037-0.071
		c-0.129-0.103-0.255-0.209-0.386-0.308c-1.073-0.809-2.27-1.349-3.585-1.622C12.097,0.96,12.057,0.955,12.01,0.947z M1.371,9.088
		c0.305,0.038,0.595,0.125,0.886,0.238c0.022-0.388,0.068-0.762,0.142-1.133c0.073-0.37,0.174-0.732,0.297-1.091
		C2.529,7.12,2.373,7.141,2.216,7.15C2.06,7.16,1.902,7.158,1.745,7.162C1.603,7.457,1.35,8.752,1.371,9.088z M15.854,4.063
		c-0.037-0.112-0.66-0.69-1.064-0.999c-0.763-0.581-1.6-1.021-2.521-1.317c0.009,0.087,0.017,0.164,0.025,0.24
		c0.002,0.015,0.007,0.03,0.01,0.048C13.662,2.404,14.843,3.084,15.854,4.063z"/>
	<path fill-rule="evenodd" clip-rule="evenodd" fill="#DCDCDC" d="M18.349,20c-0.008-0.004-0.015-0.01-0.023-0.012
		c-0.579-0.178-1.068-0.5-1.486-0.933c-0.371-0.382-0.662-0.818-0.906-1.289c-0.309-0.592-0.533-1.217-0.708-1.86
		c-0.147-0.543-0.258-1.095-0.329-1.653c-0.026-0.207-0.045-0.415-0.057-0.624c-0.012-0.228-0.118-0.391-0.312-0.502
		c-0.139-0.081-0.292-0.119-0.45-0.132c-0.278-0.024-0.557-0.021-0.834-0.008c-0.265,0.014-0.528,0.027-0.793,0.047
		c-0.262,0.021-0.522,0.047-0.784,0.072c-0.424,0.044-0.848,0.053-1.27-0.019c-0.049-0.008-0.072,0.011-0.098,0.045
		c-0.378,0.516-0.778,1.013-1.213,1.481c-0.327,0.35-0.67,0.683-1.053,0.973c-0.238,0.181-0.488,0.341-0.766,0.456
		c-0.231,0.097-0.472,0.143-0.723,0.123c-0.356-0.026-0.667-0.159-0.931-0.401c-0.184-0.169-0.328-0.368-0.45-0.584
		c-0.151-0.266-0.265-0.548-0.374-0.833c-0.045-0.118-0.086-0.237-0.136-0.354c-0.047-0.108-0.101-0.213-0.155-0.316
		c-0.129-0.241-0.262-0.48-0.391-0.722c-0.327-0.607-0.669-1.205-1.063-1.772c-0.292-0.421-0.607-0.824-0.971-1.187
		C1.866,9.79,1.646,9.598,1.398,9.443C1.274,9.365,1.142,9.3,1.013,9.229C1,9.223,0.987,9.217,0.962,9.206
		c0.078,0,0.142-0.005,0.204,0.001C1.546,9.239,1.909,9.34,2.258,9.49c0.484,0.207,0.923,0.488,1.337,0.81
		c0.584,0.454,1.105,0.973,1.589,1.529c0.535,0.613,1.019,1.264,1.457,1.949c0.012,0.019,0.024,0.036,0.042,0.06
		c0.034-0.036,0.065-0.066,0.094-0.1c0.215-0.242,0.397-0.508,0.575-0.777c0.25-0.379,0.496-0.759,0.748-1.137
		c0.17-0.256,0.355-0.5,0.559-0.73c0.016-0.018,0.03-0.04,0.037-0.063c0.12-0.439,0.338-0.826,0.633-1.169
		c0.383-0.445,0.852-0.771,1.401-0.979c0.022-0.008,0.044-0.023,0.057-0.042c0.302-0.415,0.512-0.871,0.592-1.378
		c0.156-0.99-0.12-1.859-0.775-2.607c-0.535-0.611-1.216-0.973-2.014-1.117C8.282,3.683,7.971,3.675,7.659,3.691
		c-0.012,0.001-0.024,0-0.051,0C7.63,3.676,7.642,3.667,7.654,3.659c0.37-0.234,0.773-0.379,1.207-0.437
		c0.792-0.108,1.518,0.083,2.189,0.503c0.22,0.137,0.423,0.295,0.615,0.468c0.021,0.019,0.044,0.039,0.068,0.053
		c0.645,0.377,1.315,0.697,2.031,0.917c0.307,0.095,0.619,0.164,0.938,0.189c0.118,0.009,0.236,0.006,0.354,0.004
		c0.07-0.001,0.135-0.03,0.189-0.073c0.071-0.056,0.143-0.115,0.203-0.182c0.149-0.164,0.261-0.354,0.358-0.552
		c0.248-0.503,0.407-1.033,0.473-1.59c0.031-0.257,0.036-0.515-0.003-0.771c-0.03-0.199-0.086-0.391-0.199-0.561
		C16.043,1.571,16,1.521,15.956,1.463c0.023-0.009,0.046-0.002,0.068,0.003c0.146,0.03,0.271,0.099,0.383,0.193
		c0.131,0.11,0.235,0.242,0.324,0.388c0.171,0.28,0.278,0.585,0.348,0.904c0.086,0.391,0.113,0.788,0.08,1.187
		c-0.056,0.671-0.253,1.293-0.642,1.849c-0.126,0.179-0.27,0.343-0.426,0.495c-0.039,0.037-0.081,0.061-0.131,0.077
		c-0.153,0.049-0.312,0.073-0.471,0.092c-0.354,0.041-0.711,0.044-1.066,0.023c-0.507-0.029-1.007-0.106-1.487-0.281
		c-0.007-0.002-0.014-0.003-0.028-0.007c0.01,0.064,0.018,0.125,0.026,0.184c0.052,0.366,0.059,0.731,0.026,1.099
		c-0.088,1.016-0.407,1.963-0.864,2.868c-0.012,0.024-0.023,0.047-0.038,0.078c0.076,0.01,0.146,0.02,0.216,0.025
		c0.244,0.019,0.488,0.038,0.731,0.055c0.41,0.029,0.821,0.054,1.231,0.085c0.489,0.036,0.953,0.166,1.388,0.398
		c0.246,0.134,0.468,0.3,0.644,0.521c0.188,0.237,0.298,0.508,0.345,0.806c0.046,0.287,0.035,0.573-0.007,0.858
		c-0.045,0.295-0.052,0.593-0.04,0.891c0.017,0.381,0.055,0.76,0.114,1.135c0.186,1.182,0.486,2.332,0.988,3.422
		c0.188,0.408,0.409,0.799,0.688,1.155c0.007,0.01,0.012,0.023,0.018,0.034C18.366,20,18.358,20,18.349,20z"/>
	<path fill-rule="evenodd" clip-rule="evenodd" fill="#DCDCDC" d="M19.27,10.016c-0.004,0.025-0.009,0.052-0.01,0.078
		c-0.039,1.245-0.347,2.423-0.889,3.542c-0.369,0.761-0.841,1.454-1.409,2.081c-0.019,0.021-0.039,0.042-0.066,0.07
		c-0.01-0.049-0.021-0.086-0.025-0.125c-0.045-0.315-0.089-0.633-0.134-0.95c-0.009-0.06,0.003-0.109,0.04-0.161
		c0.678-0.979,1.132-2.051,1.361-3.22c0.123-0.633,0.176-1.272,0.154-1.917c-0.05-1.467-0.446-2.833-1.195-4.097
		c-0.019-0.03-0.032-0.057-0.018-0.098c0.122-0.341,0.192-0.693,0.217-1.055c0-0.008,0.002-0.016,0.006-0.037
		c0.021,0.024,0.035,0.04,0.049,0.056c0.626,0.794,1.106,1.669,1.438,2.626c0.188,0.541,0.32,1.096,0.398,1.664
		c0.04,0.286,0.071,0.573,0.073,0.863c0,0.031,0.006,0.062,0.01,0.091C19.27,9.624,19.27,9.819,19.27,10.016z"/>
	<path fill-rule="evenodd" clip-rule="evenodd" fill="#DCDCDC" d="M1.352,9.592C1.368,9.601,1.385,9.61,1.401,9.621
		c0.316,0.219,0.595,0.48,0.846,0.772c0.016,0.019,0.027,0.046,0.029,0.07c0.051,0.576,0.158,1.142,0.337,1.69
		c0.658,2.021,1.916,3.557,3.766,4.602c0.781,0.441,1.62,0.728,2.504,0.88c0.57,0.098,1.145,0.135,1.723,0.105
		c1.649-0.083,3.138-0.621,4.458-1.616c0.015-0.01,0.029-0.021,0.045-0.03c0.002-0.001,0.007,0.001,0.015,0.002
		c0.008,0.027-0.018,0.037-0.033,0.049c-0.127,0.102-0.251,0.206-0.382,0.303c-1.018,0.755-2.147,1.258-3.393,1.5
		c-0.63,0.122-1.264,0.174-1.905,0.147c-1.911-0.077-3.607-0.722-5.072-1.949c-1.445-1.212-2.375-2.747-2.797-4.587
		C1.398,10.934,1.334,10.3,1.34,9.659c0-0.018,0.001-0.036,0.002-0.053C1.343,9.602,1.347,9.599,1.352,9.592z"/>
	<path fill-rule="evenodd" clip-rule="evenodd" fill="#DCDCDC" d="M0,6.026c0.115,0.045,0.216,0.088,0.32,0.125
		c0.414,0.146,0.841,0.207,1.279,0.178c0.588-0.04,1.12-0.239,1.589-0.594c0.344-0.261,0.689-0.52,1.059-0.742
		c0.644-0.389,1.315-0.718,2.031-0.949c0.159-0.051,0.32-0.094,0.484-0.125C7.022,3.87,7.276,3.903,7.521,4.002
		C7.778,4.107,8,4.266,8.2,4.456C8.451,4.694,8.658,4.97,8.841,5.263c0.006,0.011,0.01,0.023,0.019,0.041
		c-0.079-0.015-0.15-0.03-0.222-0.043C8.182,5.177,7.723,5.158,7.263,5.2C6.648,5.256,6.076,5.436,5.549,5.762
		c-0.647,0.399-1.327,0.732-2.05,0.975C3.146,6.854,2.787,6.946,2.417,6.993C1.992,7.047,1.57,7.042,1.155,6.917
		C0.671,6.771,0.295,6.481,0.019,6.06C0.014,6.053,0.01,6.045,0,6.026z"/>
	<path fill-rule="evenodd" clip-rule="evenodd" fill="#DCDCDC" d="M9.425,9.31C9.44,9.274,9.449,9.252,9.46,9.231
		c0.183-0.39,0.325-0.793,0.402-1.218c0.161-0.87,0.041-1.699-0.372-2.482c-0.309-0.588-0.733-1.08-1.256-1.486
		C8.219,4.033,8.203,4.021,8.188,4.008C8.186,4.007,8.187,4.004,8.185,3.998c0.015,0,0.029-0.002,0.042,0
		c0.68,0.138,1.299,0.406,1.839,0.848c0.561,0.458,0.879,1.052,0.982,1.763c0.099,0.684-0.075,1.296-0.5,1.837
		C10.26,8.813,9.897,9.087,9.478,9.288C9.465,9.293,9.453,9.298,9.425,9.31z"/>
	<path fill-rule="evenodd" clip-rule="evenodd" fill="#DCDCDC" d="M11.349,3.789c-0.077-0.048-0.127-0.112-0.166-0.185
		c-0.057-0.103-0.09-0.214-0.107-0.328c-0.026-0.171-0.045-0.344-0.068-0.515c-0.025-0.185-0.047-0.371-0.079-0.554
		c-0.063-0.354-0.242-0.643-0.514-0.875c-0.408-0.348-0.882-0.508-1.417-0.47C8.891,0.869,8.787,0.898,8.683,0.919
		C8.661,0.923,8.64,0.931,8.61,0.939c0.011-0.015,0.014-0.022,0.02-0.027C8.89,0.674,9.167,0.46,9.477,0.289
		c0.219-0.121,0.448-0.216,0.696-0.261c0.487-0.089,0.912,0.036,1.269,0.38c0.231,0.223,0.394,0.493,0.512,0.789
		c0.144,0.354,0.225,0.721,0.213,1.105c-0.004,0.116-0.022,0.23-0.066,0.339c-0.034,0.088-0.093,0.15-0.184,0.189
		c-0.372,0.158-0.551,0.447-0.563,0.846c-0.001,0.033,0,0.066,0,0.1C11.354,3.777,11.352,3.779,11.349,3.789z"/>
	<path fill-rule="evenodd" clip-rule="evenodd" fill="#DCDCDC" d="M4.239,16.235c0.02,0.014,0.041,0.025,0.06,0.041
		c1.074,0.883,2.289,1.475,3.649,1.771c0.392,0.085,0.788,0.139,1.188,0.167c0.379,0.028,0.759,0.031,1.139,0.008
		c1.188-0.076,2.313-0.381,3.371-0.924c0.524-0.27,1.016-0.589,1.474-0.96c0.02-0.015,0.038-0.029,0.059-0.044
		c0.088,0.255,0.174,0.504,0.262,0.758c-0.012,0.01-0.023,0.022-0.038,0.031c-0.912,0.628-1.907,1.072-2.985,1.33
		c-0.799,0.19-1.608,0.271-2.428,0.235c-1.859-0.079-3.536-0.678-5.027-1.794C4.726,16.679,4.5,16.49,4.285,16.29
		C4.268,16.274,4.254,16.254,4.239,16.235L4.239,16.235z"/>
	<path fill-rule="evenodd" clip-rule="evenodd" fill="#DCDCDC" d="M6.032,2.2c0.158,0.165,0.312,0.325,0.467,0.487
		C6.491,2.693,6.477,2.703,6.462,2.711C5.357,3.308,4.441,4.119,3.711,5.142c-0.016,0.023-0.037,0.044-0.06,0.062
		C3.475,5.338,3.298,5.472,3.119,5.605c-0.27,0.201-0.565,0.353-0.885,0.457C2.22,6.066,2.205,6.069,2.189,6.074
		c0.023-0.168,0.612-1.114,0.975-1.569C3.553,4.018,3.99,3.579,4.476,3.188C4.96,2.801,5.479,2.47,6.032,2.2z"/>
	<path fill-rule="evenodd" clip-rule="evenodd" fill="#DCDCDC" d="M4.021,0.86c0.02-0.015,0.027-0.022,0.036-0.028
		c0.298-0.167,0.605-0.311,0.938-0.394C5.23,0.379,5.467,0.355,5.709,0.39c0.277,0.039,0.516,0.156,0.719,0.35
		c0.104,0.1,0.188,0.213,0.265,0.333c0.133,0.206,0.265,0.412,0.402,0.614c0.109,0.158,0.238,0.3,0.385,0.423
		c0.323,0.271,0.698,0.371,1.112,0.343c0.095-0.006,0.189-0.02,0.297-0.031C8.863,2.439,8.848,2.451,8.831,2.459
		c-0.324,0.173-0.664,0.3-1.027,0.356c-0.255,0.04-0.51,0.039-0.76-0.032c-0.208-0.059-0.39-0.161-0.548-0.306
		C6.301,2.298,6.14,2.092,5.991,1.875C5.887,1.723,5.788,1.566,5.68,1.417C5.595,1.303,5.506,1.19,5.408,1.088
		c-0.259-0.267-0.58-0.361-0.944-0.314C4.333,0.791,4.203,0.825,4.072,0.851C4.06,0.854,4.047,0.855,4.021,0.86z"/>
	<path fill-rule="evenodd" clip-rule="evenodd" fill="#DCDCDC" d="M10.773,3.305c-0.01-0.042-0.018-0.084-0.028-0.127
		c-0.1-0.409-0.349-0.687-0.741-0.838C9.817,2.267,9.622,2.229,9.422,2.207C9.125,2.172,8.828,2.17,8.529,2.169
		C8.332,2.168,8.14,2.14,7.955,2.067C7.703,1.968,7.504,1.802,7.353,1.579C7.206,1.365,7.117,1.127,7.057,0.877
		C7.002,0.651,6.972,0.422,6.96,0.191C6.957,0.132,6.953,0.074,6.962,0.013c0.009,0.026,0.017,0.053,0.024,0.08
		c0.042,0.143,0.095,0.282,0.166,0.414c0.17,0.32,0.435,0.509,0.788,0.578c0.209,0.04,0.42,0.049,0.63,0.057
		c0.286,0.01,0.572,0.023,0.855,0.076c0.342,0.063,0.638,0.204,0.86,0.479c0.091,0.111,0.166,0.231,0.228,0.36
		c0.114,0.239,0.185,0.491,0.224,0.751c0.019,0.121,0.029,0.243,0.042,0.364c0.003,0.043,0,0.088,0,0.132
		C10.778,3.304,10.776,3.305,10.773,3.305z"/>
	<path fill-rule="evenodd" clip-rule="evenodd" fill="#DCDCDC" d="M12.01,0.947c0.047,0.008,0.087,0.013,0.125,0.021
		c1.315,0.273,2.512,0.813,3.585,1.622c0.131,0.099,0.257,0.205,0.386,0.308c0.022,0.019,0.041,0.034,0.037,0.071
		c-0.04,0.269-0.099,0.533-0.18,0.792c-0.003,0.01-0.007,0.02-0.013,0.035c-0.02-0.017-0.034-0.029-0.048-0.043
		C14.88,2.7,13.669,1.952,12.267,1.515c-0.041-0.013-0.06-0.033-0.073-0.073c-0.05-0.145-0.104-0.288-0.158-0.432
		C12.028,0.992,12.021,0.974,12.01,0.947z"/>
	<path fill-rule="evenodd" clip-rule="evenodd" fill="#DCDCDC" d="M1.371,9.088C1.35,8.752,1.603,7.457,1.745,7.162
		C1.902,7.158,2.06,7.16,2.216,7.15c0.157-0.009,0.313-0.03,0.479-0.048C2.572,7.461,2.472,7.824,2.398,8.193
		c-0.073,0.371-0.12,0.745-0.142,1.133C1.966,9.213,1.676,9.126,1.371,9.088z"/>
	<path fill-rule="evenodd" clip-rule="evenodd" fill="#DCDCDC" d="M15.854,4.063c-1.011-0.978-2.191-1.658-3.55-2.028
		c-0.003-0.018-0.008-0.033-0.01-0.048c-0.009-0.076-0.017-0.153-0.025-0.24c0.921,0.297,1.758,0.736,2.521,1.317
		C15.193,3.372,15.816,3.951,15.854,4.063z"/>
	<path fill-rule="evenodd" clip-rule="evenodd" fill="#DCDCDC" d="M4.239,16.236c-0.022-0.017-0.045-0.033-0.067-0.049
		c0.003-0.004,0.006-0.008,0.01-0.012C4.201,16.196,4.22,16.216,4.239,16.236L4.239,16.236z"/>
</g>
</svg>
