<?xml version="1.0" encoding="utf-8"?>
<!-- Generator: Adobe Illustrator 16.0.0, SVG Export Plug-In . SVG Version: 6.00 Build 0)  -->
<!DOCTYPE svg PUBLIC "-//W3C//DTD SVG 1.1//EN" "http://www.w3.org/Graphics/SVG/1.1/DTD/svg11.dtd">
<svg version="1.1" id="Layer_1" xmlns="http://www.w3.org/2000/svg" xmlns:xlink="http://www.w3.org/1999/xlink" x="0px" y="0px"
	 width="590.392px" height="197.394px" viewBox="0 0 590.392 197.394" enable-background="new 0 0 590.392 197.394"
	 xml:space="preserve">
<g>
	<path fill="#FFFFFF" d="M363.067,41.451c0,0.276-0.082,0.536-0.246,0.778c-0.164,0.244-0.371,0.46-0.621,0.651
		c-0.248,0.191-0.529,0.341-0.836,0.453c-0.311,0.112-0.604,0.167-0.877,0.167c-0.236,0-0.447-0.039-0.633-0.118
		c-0.184-0.078-0.348-0.181-0.49-0.305c-0.146-0.125-0.271-0.263-0.375-0.414c-0.107-0.151-0.211-0.298-0.316-0.443
		c-0.879-1.274-1.74-2.44-2.582-3.498c-0.84-1.058-1.684-2.04-2.531-2.946c-0.848-0.907-1.715-1.75-2.602-2.533
		c-0.887-0.781-1.816-1.526-2.787-2.236v10.365c0,0.776-0.184,1.317-0.553,1.626c-0.367,0.308-0.934,0.463-1.695,0.463
		c-0.775,0-1.346-0.155-1.713-0.463c-0.369-0.309-0.553-0.85-0.553-1.626v-24.06c0-0.381,0.047-0.696,0.139-0.946
		c0.09-0.249,0.232-0.447,0.422-0.591c0.191-0.145,0.428-0.247,0.711-0.306c0.283-0.059,0.613-0.088,0.994-0.088
		s0.713,0.029,0.996,0.088c0.283,0.059,0.516,0.161,0.699,0.306c0.184,0.144,0.322,0.342,0.414,0.591
		c0.092,0.25,0.139,0.565,0.139,0.946v9.458c0.906-0.735,1.744-1.451,2.512-2.148c0.77-0.696,1.523-1.435,2.266-2.216
		c0.742-0.782,1.488-1.633,2.236-2.552c0.75-0.92,1.543-1.964,2.385-3.133c0.172-0.25,0.322-0.46,0.453-0.631
		c0.133-0.171,0.268-0.308,0.404-0.414c0.137-0.105,0.287-0.181,0.443-0.226c0.158-0.046,0.348-0.069,0.57-0.069
		c0.277,0,0.561,0.059,0.85,0.177c0.289,0.118,0.557,0.279,0.807,0.483c0.25,0.203,0.453,0.436,0.611,0.699
		c0.158,0.263,0.236,0.539,0.236,0.828c0,0.237-0.049,0.476-0.148,0.719c-0.098,0.244-0.24,0.496-0.422,0.759
		c-1.395,1.97-2.859,3.76-4.396,5.369c-1.537,1.61-3.219,3.052-5.045,4.326c0.975,0.683,1.943,1.455,2.908,2.315
		c0.965,0.861,1.902,1.774,2.807,2.739c0.906,0.966,1.771,1.974,2.594,3.025c0.818,1.051,1.57,2.109,2.256,3.173
		c0.182,0.289,0.324,0.549,0.424,0.778C363.019,41.001,363.067,41.228,363.067,41.451"/>
	<path fill="#FFFFFF" d="M376.804,43.54c-3.797,0-6.801-1.34-9.008-4.02c-2.207-2.68-3.309-6.056-3.309-10.128
		c0-4.073,1.105-7.439,3.32-10.1c2.213-2.66,5.213-3.99,8.996-3.99c3.771,0,6.742,1.33,8.916,3.99
		c2.176,2.661,3.262,6.027,3.262,10.1c0,4.098-1.086,7.481-3.262,10.148C383.546,42.207,380.575,43.54,376.804,43.54
		 M376.804,19.499c-2.418,0-4.32,0.963-5.707,2.887c-1.385,1.925-2.078,4.26-2.078,7.006c0,2.772,0.693,5.123,2.078,7.054
		c1.387,1.931,3.289,2.897,5.707,2.897c2.363,0,4.232-0.972,5.605-2.917c1.373-1.944,2.059-4.289,2.059-7.034
		c0-2.759-0.682-5.098-2.049-7.016S379.181,19.499,376.804,19.499"/>
	<path fill="#FFFFFF" d="M419.249,41.53c0,0.67-0.152,1.159-0.463,1.468c-0.309,0.308-0.895,0.463-1.764,0.463
		c-0.789,0-1.328-0.148-1.617-0.443c-0.289-0.296-0.432-0.792-0.432-1.488V23.085l-5.814,10.326
		c-0.393,0.697-0.785,1.133-1.172,1.31c-0.387,0.178-0.832,0.267-1.33,0.267c-0.512,0-0.967-0.096-1.359-0.286
		c-0.395-0.191-0.775-0.608-1.145-1.252l-5.771-10.207V41.53c0,0.683-0.146,1.176-0.436,1.478c-0.289,0.302-0.84,0.453-1.654,0.453
		c-0.854,0-1.434-0.155-1.732-0.463c-0.303-0.309-0.455-0.798-0.455-1.468V18.119c0-1.825,0.875-2.738,2.623-2.738
		c0.641,0,1.152,0.118,1.527,0.354c0.371,0.236,0.736,0.67,1.094,1.301l7.309,13.124l7.467-13.42
		c0.266-0.446,0.578-0.785,0.947-1.015c0.367-0.23,0.9-0.344,1.596-0.344c0.854,0,1.498,0.213,1.934,0.64
		c0.432,0.427,0.648,1.127,0.648,2.098V41.53z"/>
	<path fill="#FFFFFF" d="M447.427,41.373c0,0.709-0.174,1.235-0.52,1.576c-0.35,0.342-0.918,0.513-1.707,0.513
		c-0.695,0-1.234-0.171-1.615-0.513c-0.381-0.341-0.57-0.867-0.57-1.576V22.81l-11.291,19.134c-0.328,0.526-0.709,0.91-1.145,1.153
		c-0.432,0.243-0.965,0.365-1.596,0.365c-0.525,0-0.986-0.076-1.379-0.227c-0.395-0.151-0.721-0.358-0.977-0.621
		c-0.256-0.262-0.445-0.568-0.57-0.916s-0.188-0.712-0.188-1.094V17.469c0-0.709,0.174-1.235,0.523-1.576
		c0.348-0.342,0.916-0.513,1.703-0.513c0.684,0,1.215,0.171,1.598,0.513c0.381,0.341,0.57,0.867,0.57,1.576v18.445l11.271-19.036
		c0.301-0.499,0.666-0.874,1.094-1.124c0.428-0.249,0.988-0.374,1.686-0.374c0.445,0,0.859,0.066,1.24,0.197
		c0.381,0.131,0.711,0.322,0.984,0.572c0.277,0.249,0.494,0.561,0.652,0.936c0.158,0.374,0.234,0.805,0.234,1.29V41.373z"/>
	<path fill="#FFFFFF" d="M469.499,15.696c0.695,0,1.188,0.155,1.479,0.463c0.289,0.309,0.432,0.857,0.432,1.646
		c0,0.801-0.146,1.349-0.441,1.645s-0.785,0.443-1.469,0.443h-6.01v21.598c0,0.696-0.184,1.199-0.553,1.507
		c-0.367,0.309-0.953,0.464-1.752,0.464c-0.803,0-1.371-0.155-1.707-0.464c-0.334-0.308-0.5-0.811-0.5-1.507V19.893h-5.932
		c-0.725,0-1.236-0.17-1.537-0.512c-0.305-0.341-0.453-0.867-0.453-1.576c0-0.749,0.148-1.288,0.453-1.616
		c0.301-0.328,0.813-0.493,1.537-0.493H469.499z"/>
	<path fill="#FFFFFF" d="M479.548,26.77h8.08c0.803,0,1.404,0.128,1.814,0.384c0.406,0.257,0.609,0.812,0.609,1.665
		c0,0.815-0.178,1.377-0.531,1.685c-0.355,0.309-0.986,0.463-1.893,0.463h-8.08v7.331c0,0.433,0.191,0.65,0.572,0.65h8.709
		c0.867,0,1.494,0.138,1.883,0.414s0.58,0.821,0.58,1.636c0,0.814-0.176,1.376-0.529,1.685c-0.357,0.308-1,0.462-1.934,0.462
		h-10.207c-1.131,0-2.01-0.298-2.639-0.896c-0.631-0.598-0.947-1.429-0.947-2.493V19.459c0-2.509,1.275-3.764,3.824-3.764h10.049
		c0.867,0,1.48,0.138,1.842,0.414s0.541,0.828,0.541,1.656c0,0.867-0.186,1.438-0.561,1.714c-0.373,0.276-0.982,0.414-1.822,0.414
		h-8.672c-0.197,0-0.361,0.072-0.492,0.216c-0.131,0.145-0.197,0.329-0.197,0.552V26.77z"/>
	<path fill="#FFFFFF" d="M511.669,15.696c0.695,0,1.188,0.155,1.479,0.463c0.289,0.309,0.432,0.857,0.432,1.646
		c0,0.801-0.146,1.349-0.441,1.645s-0.785,0.443-1.469,0.443h-6.01v21.598c0,0.696-0.184,1.199-0.553,1.507
		c-0.367,0.309-0.953,0.464-1.752,0.464c-0.803,0-1.371-0.155-1.707-0.464c-0.334-0.308-0.5-0.811-0.5-1.507V19.893h-5.934
		c-0.723,0-1.234-0.17-1.535-0.512c-0.305-0.341-0.453-0.867-0.453-1.576c0-0.749,0.148-1.288,0.453-1.616
		c0.301-0.328,0.813-0.493,1.535-0.493H511.669z"/>
	<path fill="#FFFFFF" d="M547.907,41.373c0,0.775-0.184,1.317-0.551,1.625c-0.367,0.309-0.932,0.464-1.695,0.464
		c-0.773,0-1.346-0.155-1.713-0.464c-0.367-0.308-0.553-0.85-0.553-1.625V20.662c0-0.223-0.061-0.407-0.186-0.552
		c-0.125-0.144-0.293-0.216-0.504-0.216h-10.938c-0.197,0-0.361,0.072-0.492,0.216c-0.131,0.145-0.195,0.329-0.195,0.552v20.711
		c0,0.775-0.186,1.317-0.553,1.625c-0.369,0.309-0.932,0.464-1.693,0.464c-0.777,0-1.35-0.155-1.717-0.464
		c-0.367-0.308-0.551-0.85-0.551-1.625V19.459c0-0.551,0.088-1.061,0.266-1.527c0.178-0.466,0.428-0.864,0.75-1.192
		c0.32-0.328,0.715-0.585,1.182-0.769c0.465-0.183,0.98-0.276,1.547-0.276h13.854c0.576,0,1.098,0.093,1.557,0.276
		c0.459,0.184,0.854,0.441,1.182,0.769c0.328,0.328,0.578,0.726,0.748,1.192c0.172,0.466,0.256,0.976,0.256,1.527V41.373z"/>
	<path fill="#FFFFFF" d="M565.347,43.54c-3.797,0-6.799-1.34-9.006-4.02c-2.207-2.68-3.309-6.056-3.309-10.128
		c0-4.073,1.105-7.439,3.32-10.1c2.213-2.66,5.213-3.99,8.994-3.99c3.771,0,6.742,1.33,8.918,3.99
		c2.174,2.661,3.262,6.027,3.262,10.1c0,4.098-1.088,7.481-3.262,10.148C572.089,42.207,569.118,43.54,565.347,43.54
		 M565.347,19.499c-2.416,0-4.318,0.963-5.705,2.887c-1.385,1.925-2.076,4.26-2.076,7.006c0,2.772,0.691,5.123,2.076,7.054
		c1.387,1.931,3.289,2.897,5.705,2.897c2.365,0,4.234-0.972,5.607-2.917c1.373-1.944,2.059-4.289,2.059-7.034
		c0-2.759-0.684-5.098-2.049-7.016C569.597,20.458,567.726,19.499,565.347,19.499"/>
	<path fill="#FFFFFF" d="M366.298,74.223c0,1.274-0.215,2.51-0.648,3.705c-0.434,1.195-1.08,2.263-1.941,3.202
		c-0.859,0.939-1.926,1.701-3.191,2.286c-1.27,0.584-2.742,0.91-4.426,0.975v1.971c0,0.775-0.184,1.32-0.551,1.635
		c-0.369,0.316-0.939,0.474-1.715,0.474s-1.346-0.158-1.713-0.474c-0.369-0.315-0.553-0.86-0.553-1.635v-1.971
		c-1.682-0.065-3.16-0.391-4.434-0.975c-1.273-0.585-2.34-1.347-3.191-2.286c-0.855-0.939-1.498-2.007-1.934-3.202
		c-0.432-1.195-0.648-2.431-0.648-3.705c0-1.313,0.219-2.564,0.66-3.754c0.439-1.188,1.094-2.24,1.961-3.153
		c0.865-0.913,1.934-1.655,3.201-2.226c1.268-0.572,2.73-0.904,4.385-0.995v-2.03c0-0.774,0.184-1.317,0.553-1.626
		c0.367-0.308,0.938-0.463,1.713-0.463s1.346,0.155,1.715,0.463c0.367,0.309,0.551,0.852,0.551,1.626v2.03
		c1.643,0.091,3.098,0.426,4.365,1.004c1.27,0.579,2.336,1.324,3.203,2.237s1.523,1.964,1.969,3.153
		C366.075,71.678,366.298,72.923,366.298,74.223 M345.884,74.223c0,0.736,0.107,1.459,0.324,2.168s0.553,1.35,1.006,1.921
		c0.453,0.572,1.041,1.044,1.764,1.419c0.723,0.374,1.584,0.595,2.582,0.66V68.075c-0.998,0.079-1.859,0.312-2.582,0.7
		c-0.723,0.387-1.311,0.87-1.764,1.448c-0.453,0.578-0.789,1.215-1.006,1.911C345.991,72.831,345.884,73.527,345.884,74.223
		 M356.091,80.391c1.014-0.065,1.875-0.292,2.592-0.68c0.717-0.387,1.305-0.87,1.764-1.448c0.459-0.578,0.795-1.219,1.006-1.921
		c0.209-0.703,0.314-1.409,0.314-2.119c0-0.644-0.102-1.313-0.305-2.01c-0.205-0.696-0.529-1.336-0.975-1.921
		c-0.449-0.585-1.033-1.081-1.754-1.488c-0.725-0.407-1.605-0.65-2.643-0.729V80.391z"/>
	<path fill="#FFFFFF" d="M392.173,86.165c0,0.709-0.174,1.235-0.521,1.576c-0.348,0.342-0.916,0.513-1.705,0.513
		c-0.695,0-1.234-0.171-1.615-0.513c-0.381-0.341-0.572-0.867-0.572-1.576V67.602l-11.291,19.134
		c-0.328,0.526-0.709,0.91-1.143,1.153c-0.432,0.243-0.965,0.365-1.596,0.365c-0.525,0-0.986-0.076-1.381-0.227
		s-0.719-0.358-0.975-0.621c-0.258-0.262-0.447-0.568-0.572-0.916s-0.188-0.712-0.188-1.094V62.262c0-0.709,0.174-1.235,0.523-1.576
		c0.348-0.342,0.916-0.513,1.705-0.513c0.684,0,1.215,0.171,1.596,0.513c0.381,0.341,0.572,0.867,0.572,1.576v18.445l11.271-19.036
		c0.301-0.499,0.666-0.874,1.094-1.125c0.428-0.249,0.988-0.374,1.686-0.374c0.445,0,0.859,0.066,1.24,0.197
		c0.381,0.131,0.711,0.322,0.984,0.572c0.277,0.249,0.494,0.562,0.652,0.937c0.156,0.374,0.234,0.805,0.234,1.29V86.165z"/>
	<path fill="#FFFFFF" d="M415.407,80.115c0,1.117-0.201,2.174-0.602,3.173c-0.4,0.998-1.031,1.872-1.891,2.62
		c-0.861,0.749-1.961,1.34-3.303,1.774c-1.34,0.433-2.955,0.65-4.848,0.65c-0.826,0-1.611-0.059-2.354-0.177
		c-0.742-0.118-1.434-0.282-2.068-0.493c-0.639-0.21-1.219-0.449-1.746-0.719c-0.525-0.269-0.984-0.555-1.377-0.857
		c-0.225-0.184-0.408-0.397-0.553-0.64c-0.145-0.244-0.217-0.529-0.217-0.858c0-0.236,0.049-0.489,0.146-0.758
		c0.1-0.27,0.238-0.523,0.414-0.759c0.178-0.237,0.387-0.434,0.631-0.591c0.244-0.158,0.516-0.237,0.818-0.237
		c0.25,0,0.518,0.06,0.807,0.178c0.289,0.118,0.639,0.289,1.045,0.512c0.592,0.328,1.271,0.611,2.039,0.848
		c0.77,0.236,1.627,0.354,2.574,0.354c1.102,0,2.031-0.115,2.787-0.345s1.367-0.535,1.832-0.916
		c0.467-0.381,0.801-0.815,1.006-1.301c0.203-0.485,0.305-0.985,0.305-1.498c0-0.735-0.129-1.369-0.385-1.901
		c-0.254-0.532-0.65-0.969-1.182-1.31c-0.531-0.342-1.213-0.591-2.039-0.749c-0.828-0.158-1.82-0.237-2.977-0.237
		c-0.893,0-1.525-0.174-1.9-0.522s-0.563-0.877-0.563-1.586c0-0.71,0.188-1.235,0.563-1.576c0.375-0.342,1.008-0.513,1.9-0.513
		c0.775,0,1.508-0.052,2.197-0.158c0.689-0.105,1.297-0.302,1.824-0.591c0.523-0.289,0.941-0.68,1.25-1.172
		c0.309-0.493,0.465-1.12,0.465-1.882c0-1.064-0.375-1.928-1.125-2.592c-0.748-0.663-1.852-0.995-3.311-0.995
		c-0.445,0-0.883,0.043-1.311,0.129c-0.426,0.085-0.82,0.194-1.182,0.325s-0.689,0.263-0.986,0.394
		c-0.295,0.131-0.535,0.249-0.719,0.354c-0.381,0.211-0.729,0.392-1.043,0.542c-0.316,0.152-0.645,0.227-0.986,0.227
		c-0.303,0-0.578-0.069-0.828-0.207c-0.25-0.138-0.465-0.322-0.65-0.552c-0.184-0.229-0.324-0.482-0.424-0.758
		c-0.098-0.276-0.146-0.552-0.146-0.828c0-0.315,0.07-0.591,0.215-0.827c0.145-0.237,0.33-0.454,0.553-0.651
		c0.355-0.275,0.795-0.552,1.32-0.826c0.525-0.276,1.113-0.529,1.764-0.76c0.65-0.23,1.354-0.414,2.109-0.552
		c0.754-0.138,1.553-0.207,2.393-0.207c1.498,0,2.807,0.188,3.922,0.562c1.117,0.375,2.047,0.897,2.789,1.566
		c0.742,0.67,1.293,1.465,1.654,2.385c0.363,0.92,0.543,1.931,0.543,3.034c0,0.631-0.086,1.245-0.256,1.843
		c-0.17,0.598-0.434,1.15-0.789,1.655c-0.355,0.506-0.797,0.953-1.33,1.34c-0.531,0.388-1.166,0.699-1.902,0.936
		c0.75,0.224,1.439,0.522,2.07,0.897c0.631,0.374,1.172,0.837,1.625,1.389c0.453,0.552,0.805,1.192,1.055,1.921
		S415.407,79.182,415.407,80.115"/>
	<path fill="#FFFFFF" d="M442.106,86.165c0,0.709-0.174,1.235-0.52,1.576c-0.35,0.342-0.918,0.513-1.707,0.513
		c-0.695,0-1.234-0.171-1.615-0.513c-0.381-0.341-0.57-0.867-0.57-1.576V67.602l-11.291,19.134c-0.328,0.526-0.709,0.91-1.145,1.153
		c-0.432,0.243-0.965,0.365-1.596,0.365c-0.525,0-0.986-0.076-1.379-0.227c-0.395-0.151-0.721-0.358-0.977-0.621
		c-0.256-0.262-0.445-0.568-0.57-0.916s-0.188-0.712-0.188-1.094V62.262c0-0.709,0.174-1.235,0.523-1.576
		c0.348-0.342,0.916-0.513,1.703-0.513c0.684,0,1.215,0.171,1.598,0.513c0.381,0.341,0.57,0.867,0.57,1.576v18.445l11.271-19.036
		c0.301-0.499,0.666-0.874,1.094-1.125c0.428-0.249,0.988-0.374,1.686-0.374c0.445,0,0.859,0.066,1.24,0.197
		c0.381,0.131,0.711,0.322,0.984,0.572c0.277,0.249,0.494,0.562,0.652,0.937c0.158,0.374,0.234,0.805,0.234,1.29V86.165z"/>
	<path fill="#FFFFFF" d="M466.286,86.165c0,0.775-0.184,1.317-0.553,1.625c-0.367,0.309-0.938,0.464-1.713,0.464
		s-1.346-0.155-1.715-0.464c-0.369-0.308-0.551-0.85-0.551-1.625v-7.863c-0.686,0.263-1.531,0.516-2.543,0.759
		c-1.012,0.243-2.154,0.365-3.43,0.365c-1.59,0-2.93-0.227-4.018-0.68c-1.092-0.454-1.971-1.055-2.641-1.803
		c-0.672-0.749-1.154-1.603-1.449-2.562s-0.445-1.944-0.445-2.956v-9.163c0-0.762,0.186-1.301,0.553-1.616
		c0.367-0.315,0.939-0.473,1.715-0.473s1.348,0.158,1.715,0.473c0.367,0.315,0.553,0.854,0.553,1.616v8.966
		c0,0.552,0.07,1.081,0.215,1.586c0.145,0.506,0.395,0.95,0.748,1.33c0.355,0.382,0.832,0.684,1.43,0.907s1.357,0.335,2.275,0.335
		c0.816,0,1.678-0.089,2.592-0.266c0.912-0.178,1.824-0.45,2.73-0.818v-12.04c0-0.762,0.182-1.301,0.551-1.616
		c0.369-0.315,0.939-0.473,1.715-0.473s1.346,0.158,1.713,0.473c0.369,0.315,0.553,0.854,0.553,1.616V86.165z"/>
	<path fill="#FFFFFF" d="M477.421,71.563h8.078c0.803,0,1.406,0.128,1.814,0.384c0.406,0.257,0.611,0.812,0.611,1.665
		c0,0.815-0.178,1.377-0.533,1.685c-0.355,0.309-0.986,0.463-1.893,0.463h-8.078v7.331c0,0.433,0.189,0.65,0.57,0.65h8.711
		c0.867,0,1.494,0.138,1.881,0.414c0.389,0.276,0.582,0.821,0.582,1.636c0,0.814-0.178,1.376-0.531,1.685
		c-0.355,0.308-0.998,0.462-1.932,0.462h-10.207c-1.131,0-2.012-0.298-2.641-0.896c-0.631-0.598-0.947-1.429-0.947-2.493V64.252
		c0-2.51,1.275-3.765,3.824-3.765h10.049c0.869,0,1.482,0.138,1.842,0.414c0.361,0.276,0.543,0.828,0.543,1.656
		c0,0.867-0.186,1.438-0.561,1.714c-0.375,0.276-0.984,0.414-1.824,0.414h-8.67c-0.197,0-0.361,0.072-0.492,0.216
		c-0.133,0.145-0.197,0.329-0.197,0.552V71.563z"/>
	<path fill="#FFFFFF" d="M504.831,88.332c-3.783,0-6.77-1.241-8.957-3.724s-3.279-5.879-3.279-10.188
		c0-4.388,1.188-7.873,3.566-10.454c2.377-2.582,5.426-3.873,9.145-3.873c1.232,0,2.398,0.134,3.496,0.404
		c1.096,0.269,2.072,0.683,2.926,1.242s1.416,1.015,1.686,1.37c0.27,0.354,0.404,0.748,0.404,1.182c0,0.539-0.217,1.051-0.65,1.537
		c-0.434,0.486-0.9,0.729-1.398,0.729c-0.488,0-1.064-0.229-1.734-0.689c-0.803-0.604-1.578-1.018-2.326-1.242
		c-0.748-0.223-1.604-0.335-2.563-0.335c-2.363,0-4.293,0.903-5.783,2.709c-1.49,1.807-2.236,4.254-2.236,7.341
		c0,3.179,0.703,5.606,2.109,7.282c1.406,1.674,3.428,2.512,6.07,2.512c0.971,0,1.848-0.151,2.629-0.453
		c0.783-0.303,1.73-0.828,2.848-1.577c0.42-0.276,0.867-0.414,1.34-0.414c0.514,0,0.973,0.221,1.379,0.661
		c0.408,0.439,0.611,0.89,0.611,1.349c0,1.091-0.959,2.135-2.877,3.133C509.317,87.833,507.183,88.332,504.831,88.332"/>
	<path fill="#FFFFFF" d="M537.8,86.244c0,0.276-0.082,0.536-0.246,0.778c-0.164,0.244-0.371,0.46-0.621,0.651
		s-0.529,0.341-0.838,0.453s-0.602,0.167-0.877,0.167c-0.236,0-0.445-0.039-0.631-0.118c-0.184-0.078-0.348-0.181-0.492-0.305
		c-0.145-0.125-0.27-0.263-0.375-0.414s-0.209-0.298-0.314-0.443c-0.879-1.274-1.742-2.44-2.582-3.498
		c-0.84-1.058-1.684-2.04-2.531-2.946c-0.848-0.907-1.715-1.75-2.602-2.533c-0.887-0.781-1.816-1.526-2.789-2.236v10.365
		c0,0.776-0.186,1.317-0.551,1.626c-0.369,0.308-0.934,0.463-1.695,0.463c-0.775,0-1.348-0.155-1.715-0.463
		c-0.369-0.309-0.551-0.85-0.551-1.626v-24.06c0-0.381,0.045-0.696,0.137-0.946c0.092-0.249,0.234-0.447,0.424-0.591
		c0.191-0.145,0.426-0.247,0.709-0.306c0.283-0.059,0.615-0.088,0.996-0.088s0.711,0.029,0.996,0.088
		c0.281,0.059,0.514,0.161,0.699,0.306c0.182,0.144,0.32,0.342,0.414,0.591c0.092,0.25,0.137,0.565,0.137,0.946v9.458
		c0.906-0.735,1.746-1.451,2.514-2.148c0.77-0.696,1.523-1.435,2.266-2.216c0.742-0.782,1.488-1.633,2.236-2.552
		c0.748-0.92,1.543-1.964,2.385-3.133c0.172-0.25,0.322-0.461,0.453-0.632s0.268-0.308,0.404-0.414
		c0.137-0.105,0.285-0.181,0.443-0.226c0.156-0.046,0.348-0.069,0.57-0.069c0.277,0,0.561,0.059,0.85,0.177
		c0.289,0.118,0.557,0.279,0.807,0.483c0.248,0.203,0.453,0.437,0.611,0.699s0.236,0.539,0.236,0.828
		c0,0.237-0.051,0.476-0.148,0.719c-0.098,0.244-0.24,0.496-0.422,0.759c-1.395,1.97-2.859,3.76-4.396,5.369
		c-1.537,1.61-3.219,3.052-5.045,4.326c0.973,0.683,1.943,1.455,2.906,2.315c0.967,0.861,1.904,1.774,2.809,2.739
		c0.906,0.966,1.771,1.974,2.592,3.025c0.82,1.051,1.572,2.109,2.258,3.173c0.182,0.289,0.324,0.549,0.424,0.778
		C537.751,85.793,537.8,86.021,537.8,86.244"/>
	<path fill="#FFFFFF" d="M551.534,88.332c-3.797,0-6.799-1.34-9.006-4.02c-2.207-2.68-3.311-6.056-3.311-10.128
		c0-4.073,1.107-7.439,3.32-10.1c2.215-2.661,5.213-3.991,8.996-3.991c3.771,0,6.742,1.33,8.916,3.991
		c2.176,2.661,3.262,6.027,3.262,10.1c0,4.098-1.086,7.481-3.262,10.148C558.276,86.999,555.306,88.332,551.534,88.332
		 M551.534,64.291c-2.418,0-4.318,0.963-5.705,2.887c-1.387,1.925-2.078,4.26-2.078,7.006c0,2.772,0.691,5.123,2.078,7.054
		s3.287,2.897,5.705,2.897c2.365,0,4.232-0.972,5.605-2.917c1.373-1.944,2.061-4.289,2.061-7.034c0-2.759-0.684-5.098-2.051-7.016
		C555.784,65.25,553.911,64.291,551.534,64.291"/>
	<path fill="#FFFFFF" d="M590.394,86.165c0,0.709-0.174,1.235-0.521,1.576c-0.35,0.342-0.918,0.513-1.705,0.513
		c-0.695,0-1.234-0.171-1.615-0.513c-0.383-0.341-0.572-0.867-0.572-1.576V67.602l-11.291,19.134
		c-0.328,0.526-0.709,0.91-1.143,1.153c-0.434,0.243-0.967,0.365-1.598,0.365c-0.523,0-0.984-0.076-1.379-0.227
		c-0.393-0.151-0.719-0.358-0.975-0.621c-0.256-0.263-0.447-0.568-0.572-0.916c-0.125-0.348-0.188-0.712-0.188-1.094V62.262
		c0-0.71,0.176-1.235,0.523-1.577c0.348-0.341,0.916-0.512,1.705-0.512c0.682,0,1.213,0.171,1.596,0.512
		c0.381,0.342,0.57,0.867,0.57,1.577v18.444l11.271-19.035c0.303-0.499,0.668-0.874,1.096-1.125
		c0.426-0.249,0.986-0.374,1.684-0.374c0.447,0,0.861,0.066,1.24,0.197c0.381,0.131,0.711,0.322,0.986,0.572
		c0.275,0.249,0.492,0.562,0.65,0.937c0.158,0.374,0.236,0.804,0.236,1.29V86.165z M579.792,57.552
		c-1.537,0-2.916-0.476-4.139-1.429c-1.221-0.952-1.832-1.967-1.832-3.044c0-0.434,0.195-0.831,0.58-1.193
		c0.389-0.36,0.826-0.541,1.311-0.541c0.566,0,1.025,0.302,1.381,0.906c0.709,1.248,1.609,1.872,2.699,1.872
		c1.129,0,2.051-0.617,2.76-1.852c0.354-0.617,0.82-0.926,1.398-0.926c0.473,0,0.9,0.184,1.281,0.552
		c0.381,0.367,0.572,0.761,0.572,1.182c0,1.103-0.609,2.125-1.824,3.064C582.765,57.083,581.368,57.552,579.792,57.552"/>
	<path fill="#FFFFFF" d="M363.067,131.035c0,0.276-0.082,0.536-0.246,0.778c-0.164,0.244-0.371,0.46-0.621,0.651
		c-0.248,0.19-0.529,0.342-0.836,0.452c-0.311,0.112-0.604,0.169-0.877,0.169c-0.236,0-0.447-0.039-0.633-0.118
		c-0.184-0.079-0.348-0.182-0.49-0.307c-0.146-0.125-0.271-0.263-0.375-0.414c-0.107-0.149-0.211-0.298-0.316-0.442
		c-0.879-1.274-1.74-2.44-2.582-3.498c-0.84-1.058-1.684-2.04-2.531-2.946s-1.715-1.75-2.602-2.532
		c-0.887-0.78-1.816-1.526-2.787-2.235v10.364c0,0.775-0.184,1.316-0.553,1.625c-0.367,0.309-0.934,0.465-1.695,0.465
		c-0.775,0-1.346-0.156-1.713-0.465c-0.369-0.309-0.553-0.85-0.553-1.625v-24.061c0-0.381,0.047-0.695,0.139-0.945
		c0.09-0.25,0.232-0.447,0.422-0.592c0.191-0.145,0.428-0.247,0.711-0.305c0.283-0.061,0.613-0.09,0.994-0.09
		s0.713,0.029,0.996,0.09c0.283,0.058,0.516,0.16,0.699,0.305s0.322,0.342,0.414,0.592s0.139,0.564,0.139,0.945v9.458
		c0.906-0.735,1.744-1.451,2.512-2.147c0.77-0.695,1.523-1.436,2.266-2.217s1.488-1.633,2.236-2.552
		c0.75-0.92,1.543-1.964,2.385-3.133c0.172-0.249,0.322-0.46,0.453-0.63c0.133-0.172,0.268-0.31,0.404-0.414
		c0.137-0.106,0.287-0.182,0.443-0.227c0.158-0.047,0.348-0.07,0.57-0.07c0.277,0,0.561,0.06,0.85,0.178
		c0.289,0.119,0.557,0.279,0.807,0.482c0.25,0.205,0.453,0.437,0.611,0.699c0.158,0.264,0.236,0.539,0.236,0.828
		c0,0.237-0.049,0.478-0.148,0.719c-0.098,0.244-0.24,0.496-0.422,0.76c-1.395,1.97-2.859,3.76-4.396,5.369
		s-3.219,3.053-5.045,4.325c0.975,0.685,1.943,1.455,2.908,2.315s1.902,1.773,2.807,2.74c0.906,0.966,1.771,1.973,2.594,3.023
		c0.818,1.052,1.57,2.11,2.256,3.173c0.182,0.289,0.324,0.549,0.424,0.778C363.019,130.587,363.067,130.813,363.067,131.035"/>
	<path fill="#FFFFFF" d="M385.632,106.62c0,0.25-0.029,0.591-0.09,1.024c-0.059,0.434-0.16,0.954-0.305,1.557
		c-0.197,0.855-0.469,1.859-0.818,3.017c-0.348,1.155-0.766,2.39-1.252,3.703c-0.484,1.314-1.037,2.675-1.654,4.079
		c-0.617,1.406-1.301,2.785-2.049,4.14c-0.906,1.642-1.787,3.034-2.641,4.177s-1.715,2.069-2.582,2.779
		c-0.867,0.709-1.752,1.224-2.652,1.546c-0.898,0.321-1.854,0.482-2.865,0.482c-0.816,0-1.564-0.107-2.246-0.324
		c-0.686-0.218-1.27-0.495-1.754-0.838c-0.225-0.157-0.414-0.342-0.572-0.552s-0.236-0.485-0.236-0.828
		c0-0.288,0.057-0.578,0.166-0.866c0.113-0.288,0.264-0.546,0.455-0.77c0.189-0.222,0.4-0.406,0.629-0.552
		c0.23-0.144,0.463-0.216,0.701-0.216c0.301,0,0.559,0.049,0.77,0.147c0.209,0.1,0.422,0.204,0.639,0.315s0.457,0.217,0.719,0.315
		c0.264,0.099,0.6,0.147,1.006,0.147c0.67,0,1.316-0.2,1.941-0.602c0.623-0.4,1.283-1.047,1.98-1.94
		c-0.867-1.169-1.68-2.473-2.436-3.912c-0.754-1.438-1.447-2.935-2.078-4.492c-0.631-1.557-1.195-3.14-1.695-4.749
		c-0.498-1.608-0.92-3.176-1.26-4.7c-0.041-0.156-0.08-0.332-0.119-0.522s-0.07-0.377-0.098-0.562
		c-0.027-0.184-0.049-0.354-0.07-0.512c-0.018-0.158-0.027-0.283-0.027-0.375c0-0.302,0.074-0.564,0.225-0.788
		c0.152-0.224,0.352-0.407,0.602-0.552s0.529-0.253,0.838-0.325c0.309-0.071,0.627-0.108,0.957-0.108
		c0.563,0,0.99,0.102,1.279,0.306s0.492,0.614,0.611,1.231c0.5,2.443,1.188,5.042,2.07,7.794c0.881,2.753,2.074,5.6,3.586,8.542
		c0.539-0.959,1.051-1.967,1.537-3.024s0.934-2.119,1.34-3.183c0.406-1.064,0.781-2.105,1.123-3.122
		c0.342-1.02,0.641-1.969,0.896-2.849s0.467-1.665,0.631-2.354c0.164-0.69,0.285-1.238,0.365-1.646
		c0.105-0.603,0.307-1.036,0.611-1.3c0.301-0.262,0.768-0.395,1.398-0.395c0.289,0,0.578,0.023,0.867,0.069
		c0.287,0.046,0.547,0.128,0.779,0.246c0.229,0.118,0.416,0.286,0.561,0.502C385.56,106,385.632,106.278,385.632,106.62"/>
	<path fill="#FFFFFF" d="M406.026,130.957c0,0.801-0.189,1.351-0.57,1.646c-0.381,0.294-0.947,0.442-1.695,0.442
		c-0.775,0-1.348-0.154-1.715-0.464c-0.369-0.309-0.551-0.85-0.551-1.625v-20.711c0-0.224-0.064-0.407-0.189-0.552
		s-0.285-0.216-0.48-0.216h-5.578c-0.209,0-0.371,0.064-0.482,0.196s-0.18,0.296-0.207,0.492c-0.025,0.236-0.049,0.453-0.068,0.65
		c-0.021,0.198-0.039,0.385-0.061,0.562c-0.018,0.179-0.043,0.358-0.066,0.542c-0.027,0.185-0.055,0.395-0.08,0.632
		c-0.133,1.103-0.295,2.259-0.492,3.467c-0.199,1.209-0.418,2.424-0.66,3.646c-0.244,1.223-0.512,2.432-0.809,3.626
		c-0.297,1.195-0.609,2.332-0.945,3.409c-0.334,1.077-0.688,2.079-1.055,3.005c-0.367,0.927-0.756,1.731-1.162,2.414
		c-0.225,0.368-0.445,0.621-0.66,0.759c-0.217,0.139-0.496,0.207-0.838,0.207c-0.236,0-0.51-0.036-0.818-0.107
		c-0.309-0.073-0.607-0.182-0.896-0.326s-0.531-0.332-0.729-0.562s-0.295-0.503-0.295-0.817c0-0.158,0.021-0.338,0.068-0.542
		s0.141-0.437,0.285-0.7c0.475-0.853,0.945-1.976,1.42-3.369c0.473-1.392,0.926-3.002,1.357-4.828
		c0.436-1.826,0.838-3.849,1.213-6.068c0.375-2.221,0.699-4.585,0.977-7.095c0.117-1.064,0.467-1.896,1.045-2.492
		c0.578-0.599,1.451-0.897,2.621-0.897h8.354c0.578,0,1.102,0.092,1.566,0.276c0.467,0.184,0.859,0.439,1.182,0.768
		c0.322,0.329,0.572,0.727,0.75,1.193c0.176,0.466,0.266,0.975,0.266,1.526V130.957z"/>
	<path fill="#FFFFFF" d="M431.013,124.414c0,1.274-0.203,2.429-0.609,3.459c-0.408,1.031-1.014,1.904-1.814,2.62
		c-0.801,0.717-1.793,1.27-2.975,1.655c-1.184,0.388-2.549,0.582-4.1,0.582h-4.906c-1.393,0-2.4-0.276-3.025-0.828
		c-0.623-0.551-0.936-1.405-0.936-2.561v-22.287c0-0.762,0.184-1.301,0.553-1.617c0.365-0.314,0.938-0.473,1.715-0.473
		c0.76,0,1.326,0.158,1.693,0.473c0.367,0.316,0.553,0.855,0.553,1.617v9.201h4.078c1.721,0,3.195,0.204,4.424,0.611
		s2.24,0.974,3.035,1.694c0.795,0.723,1.379,1.584,1.754,2.582C430.827,122.143,431.013,123.232,431.013,124.414 M426.44,124.414
		c0-0.563-0.088-1.083-0.266-1.557c-0.176-0.472-0.463-0.88-0.857-1.221c-0.395-0.342-0.908-0.608-1.547-0.799
		c-0.637-0.19-1.416-0.285-2.334-0.285h-4.275v7.213c0,0.223,0.064,0.406,0.195,0.551c0.133,0.145,0.297,0.217,0.492,0.217h3.627
		c1.746,0,3.012-0.365,3.793-1.094C426.05,126.71,426.44,125.702,426.44,124.414"/>
	<path fill="#FFFFFF" d="M447.19,105.281c0.697,0,1.189,0.153,1.479,0.463c0.289,0.308,0.434,0.856,0.434,1.645
		c0,0.802-0.146,1.35-0.443,1.646c-0.295,0.296-0.785,0.443-1.469,0.443h-6.01v21.598c0,0.696-0.184,1.198-0.551,1.508
		c-0.369,0.308-0.953,0.464-1.754,0.464s-1.371-0.156-1.705-0.464c-0.334-0.31-0.502-0.812-0.502-1.508v-21.598h-5.932
		c-0.723,0-1.234-0.171-1.537-0.512s-0.453-0.868-0.453-1.577c0-0.749,0.15-1.287,0.453-1.616c0.303-0.328,0.814-0.491,1.537-0.491
		H447.19z"/>
	<path fill="#FFFFFF" d="M471.37,106.62c0,0.25-0.027,0.591-0.088,1.024c-0.059,0.434-0.162,0.954-0.307,1.557
		c-0.195,0.855-0.469,1.859-0.816,3.017c-0.35,1.155-0.766,2.39-1.252,3.703c-0.484,1.314-1.037,2.675-1.654,4.079
		c-0.617,1.406-1.301,2.785-2.051,4.14c-0.904,1.642-1.785,3.034-2.641,4.177c-0.852,1.143-1.713,2.069-2.58,2.779
		c-0.867,0.709-1.752,1.224-2.65,1.546c-0.9,0.321-1.855,0.482-2.867,0.482c-0.816,0-1.564-0.107-2.246-0.324
		c-0.684-0.218-1.27-0.495-1.754-0.838c-0.225-0.157-0.414-0.342-0.572-0.552s-0.236-0.485-0.236-0.828
		c0-0.288,0.057-0.578,0.168-0.866s0.264-0.546,0.453-0.77c0.191-0.222,0.4-0.406,0.629-0.552c0.232-0.144,0.465-0.216,0.701-0.216
		c0.301,0,0.557,0.049,0.77,0.147c0.209,0.1,0.424,0.204,0.641,0.315c0.215,0.111,0.455,0.217,0.717,0.315
		c0.264,0.099,0.6,0.147,1.006,0.147c0.67,0,1.318-0.2,1.941-0.602c0.625-0.4,1.285-1.047,1.98-1.94
		c-0.867-1.169-1.68-2.473-2.434-3.912c-0.756-1.438-1.449-2.935-2.08-4.492c-0.631-1.557-1.195-3.14-1.693-4.749
		c-0.5-1.608-0.92-3.176-1.262-4.7c-0.039-0.156-0.08-0.332-0.119-0.522s-0.07-0.377-0.098-0.562
		c-0.027-0.184-0.049-0.354-0.07-0.512c-0.018-0.158-0.027-0.283-0.027-0.375c0-0.302,0.074-0.564,0.225-0.788
		c0.152-0.224,0.352-0.407,0.602-0.552s0.529-0.253,0.838-0.325c0.309-0.071,0.629-0.108,0.955-0.108
		c0.564,0,0.992,0.102,1.281,0.306s0.492,0.614,0.611,1.231c0.5,2.443,1.188,5.042,2.07,7.794c0.879,2.753,2.074,5.6,3.586,8.542
		c0.539-0.959,1.051-1.967,1.537-3.024c0.484-1.058,0.932-2.119,1.34-3.183c0.406-1.064,0.781-2.105,1.123-3.122
		c0.342-1.02,0.639-1.969,0.896-2.849c0.256-0.88,0.465-1.665,0.629-2.354c0.166-0.69,0.287-1.238,0.365-1.646
		c0.105-0.603,0.309-1.036,0.611-1.3c0.303-0.262,0.768-0.395,1.398-0.395c0.289,0,0.578,0.023,0.867,0.069s0.549,0.128,0.779,0.246
		c0.229,0.118,0.418,0.286,0.561,0.502C471.3,106,471.37,106.278,471.37,106.62"/>
	<path fill="#FFFFFF" d="M478.878,122.838v8.277c0,0.683-0.174,1.175-0.521,1.477c-0.348,0.303-0.924,0.454-1.725,0.454
		c-0.803,0-1.381-0.151-1.734-0.454c-0.355-0.302-0.533-0.794-0.533-1.477v-22.032c0-1.221,0.328-2.16,0.986-2.817
		c0.658-0.656,1.602-0.984,2.838-0.984h4.848c2.824,0,5.025,0.777,6.602,2.335c1.576,1.556,2.363,3.74,2.363,6.551
		c0,2.563-0.848,4.647-2.541,6.257c-1.693,1.61-3.928,2.414-6.699,2.414H478.878z M478.878,118.641h4.039
		c1.379,0,2.482-0.417,3.313-1.251c0.826-0.834,1.24-1.908,1.24-3.223c0-1.563-0.377-2.735-1.133-3.517s-1.883-1.173-3.381-1.173
		h-3.389c-0.223,0-0.393,0.079-0.512,0.236c-0.117,0.158-0.178,0.335-0.178,0.532V118.641z"/>
	<path fill="#FFFFFF" d="M500.79,116.354h8.08c0.803,0,1.404,0.128,1.814,0.386c0.406,0.256,0.609,0.811,0.609,1.664
		c0,0.814-0.178,1.376-0.531,1.685c-0.355,0.309-0.986,0.463-1.893,0.463h-8.08v7.331c0,0.434,0.191,0.651,0.572,0.651h8.709
		c0.867,0,1.494,0.137,1.883,0.412c0.389,0.276,0.58,0.821,0.58,1.637c0,0.814-0.176,1.376-0.529,1.685
		c-0.357,0.31-1,0.463-1.934,0.463h-10.207c-1.131,0-2.01-0.299-2.639-0.896c-0.631-0.598-0.947-1.429-0.947-2.493v-20.297
		c0-2.509,1.275-3.763,3.824-3.763h10.049c0.867,0,1.48,0.137,1.842,0.414c0.361,0.274,0.541,0.826,0.541,1.654
		c0,0.867-0.186,1.439-0.561,1.714c-0.373,0.276-0.982,0.414-1.822,0.414h-8.672c-0.197,0-0.361,0.072-0.492,0.217
		s-0.197,0.328-0.197,0.553V116.354z"/>
	<path fill="#FFFFFF" d="M365.216,175.75c0,0.709-0.176,1.235-0.521,1.576c-0.35,0.342-0.916,0.513-1.707,0.513
		c-0.695,0-1.234-0.171-1.615-0.513c-0.381-0.341-0.57-0.867-0.57-1.576v-18.563l-11.293,19.134
		c-0.326,0.526-0.709,0.91-1.143,1.154c-0.432,0.241-0.965,0.363-1.596,0.363c-0.525,0-0.984-0.075-1.379-0.227
		s-0.721-0.358-0.977-0.621c-0.256-0.262-0.445-0.568-0.57-0.916c-0.125-0.347-0.188-0.713-0.188-1.094v-23.135
		c0-0.709,0.174-1.235,0.523-1.576c0.348-0.342,0.916-0.514,1.703-0.514c0.684,0,1.217,0.172,1.598,0.514
		c0.381,0.341,0.57,0.867,0.57,1.576v18.443l11.271-19.035c0.303-0.499,0.666-0.874,1.094-1.123c0.426-0.25,0.988-0.375,1.686-0.375
		c0.445,0,0.859,0.066,1.24,0.197c0.383,0.132,0.709,0.322,0.986,0.571c0.275,0.25,0.492,0.562,0.65,0.937
		c0.158,0.374,0.236,0.806,0.236,1.29V175.75z"/>
	<path fill="#FFFFFF" d="M391.937,177.918c-3.781,0-6.768-1.242-8.955-3.725c-2.188-2.484-3.281-5.88-3.281-10.189
		c0-4.387,1.189-7.872,3.566-10.453s5.426-3.871,9.145-3.871c1.232,0,2.398,0.134,3.498,0.402c1.094,0.271,2.07,0.685,2.924,1.242
		s1.418,1.015,1.686,1.369c0.271,0.354,0.404,0.749,0.404,1.183c0,0.538-0.215,1.052-0.648,1.537c-0.436,0.485-0.9,0.729-1.4,0.729
		c-0.488,0-1.064-0.23-1.734-0.69c-0.803-0.604-1.578-1.017-2.326-1.241c-0.746-0.224-1.602-0.335-2.561-0.335
		c-2.365,0-4.293,0.903-5.783,2.709c-1.492,1.808-2.236,4.254-2.236,7.341c0,3.179,0.701,5.606,2.107,7.281
		c1.406,1.676,3.428,2.514,6.07,2.514c0.971,0,1.848-0.152,2.631-0.453c0.781-0.303,1.729-0.829,2.846-1.578
		c0.42-0.275,0.867-0.414,1.34-0.414c0.514,0,0.975,0.221,1.381,0.661c0.406,0.439,0.609,0.89,0.609,1.351
		c0,1.09-0.959,2.135-2.877,3.133S394.29,177.918,391.937,177.918"/>
	<path fill="#FFFFFF" d="M426.835,175.75c0,0.775-0.184,1.317-0.553,1.626c-0.367,0.31-0.932,0.463-1.693,0.463
		c-0.775,0-1.348-0.153-1.715-0.463c-0.367-0.309-0.551-0.851-0.551-1.626v-20.712c0-0.223-0.063-0.407-0.188-0.552
		s-0.293-0.216-0.502-0.216h-10.938c-0.197,0-0.361,0.071-0.492,0.216c-0.133,0.145-0.197,0.329-0.197,0.552v20.712
		c0,0.775-0.186,1.317-0.553,1.626c-0.367,0.31-0.932,0.463-1.693,0.463c-0.775,0-1.348-0.153-1.715-0.463
		c-0.367-0.309-0.553-0.851-0.553-1.626v-21.914c0-0.552,0.09-1.061,0.268-1.526c0.178-0.467,0.426-0.864,0.748-1.192
		s0.717-0.585,1.182-0.768c0.467-0.186,0.982-0.277,1.547-0.277h13.855c0.576,0,1.096,0.092,1.555,0.277
		c0.459,0.183,0.855,0.439,1.182,0.768c0.328,0.328,0.578,0.726,0.75,1.192c0.17,0.466,0.256,0.975,0.256,1.526V175.75z"/>
	<path fill="#FFFFFF" d="M444.274,177.918c-3.797,0-6.799-1.341-9.006-4.02c-2.207-2.682-3.309-6.058-3.309-10.13
		c0-4.073,1.105-7.439,3.32-10.1c2.213-2.66,5.213-3.989,8.994-3.989c3.771,0,6.742,1.329,8.918,3.989
		c2.174,2.66,3.262,6.026,3.262,10.1c0,4.098-1.088,7.481-3.262,10.147C451.017,176.584,448.046,177.918,444.274,177.918
		 M444.274,153.876c-2.416,0-4.318,0.962-5.703,2.888c-1.387,1.925-2.078,4.259-2.078,7.005c0,2.771,0.691,5.124,2.078,7.054
		c1.385,1.932,3.287,2.898,5.703,2.898c2.365,0,4.234-0.973,5.607-2.917c1.373-1.945,2.059-4.289,2.059-7.035
		c0-2.76-0.684-5.098-2.049-7.016C448.524,154.835,446.653,153.876,444.274,153.876"/>
	<path fill="#FFFFFF" d="M466.011,167.63v8.278c0,0.683-0.174,1.175-0.521,1.478c-0.35,0.302-0.924,0.453-1.725,0.453
		c-0.803,0-1.381-0.151-1.734-0.453c-0.355-0.303-0.533-0.795-0.533-1.478v-22.032c0-1.221,0.328-2.161,0.986-2.818
		c0.656-0.655,1.602-0.984,2.838-0.984h4.848c2.824,0,5.025,0.777,6.602,2.335c1.576,1.556,2.363,3.74,2.363,6.552
		c0,2.562-0.848,4.647-2.541,6.256c-1.693,1.61-3.928,2.414-6.699,2.414H466.011z M466.011,163.433h4.039
		c1.379,0,2.482-0.417,3.313-1.251c0.826-0.834,1.24-1.908,1.24-3.222c0-1.563-0.377-2.736-1.133-3.518
		c-0.756-0.78-1.883-1.173-3.381-1.173H466.7c-0.223,0-0.395,0.079-0.512,0.236c-0.117,0.158-0.178,0.335-0.178,0.532V163.433z"/>
	<path fill="#FFFFFF" d="M498.86,150.072c0.695,0,1.188,0.154,1.479,0.463c0.289,0.31,0.432,0.857,0.432,1.646
		c0,0.802-0.146,1.351-0.441,1.646c-0.295,0.296-0.785,0.443-1.469,0.443h-6.01v21.599c0,0.696-0.184,1.199-0.553,1.509
		c-0.367,0.308-0.953,0.463-1.752,0.463c-0.803,0-1.371-0.155-1.707-0.463c-0.334-0.31-0.5-0.813-0.5-1.509V154.27h-5.934
		c-0.723,0-1.234-0.17-1.535-0.511c-0.305-0.342-0.453-0.868-0.453-1.578c0-0.748,0.148-1.287,0.453-1.615
		c0.301-0.328,0.813-0.493,1.535-0.493H498.86z"/>
	<path fill="#FFFFFF" d="M523.04,151.412c0,0.25-0.029,0.592-0.09,1.025c-0.059,0.434-0.16,0.953-0.307,1.557
		c-0.195,0.854-0.469,1.858-0.816,3.016c-0.35,1.155-0.766,2.391-1.252,3.704c-0.484,1.313-1.037,2.674-1.654,4.079
		s-1.301,2.785-2.051,4.139c-0.904,1.642-1.785,3.035-2.641,4.178c-0.852,1.143-1.713,2.07-2.58,2.779
		c-0.867,0.71-1.752,1.225-2.65,1.546c-0.9,0.322-1.855,0.483-2.867,0.483c-0.816,0-1.564-0.108-2.246-0.324
		c-0.684-0.218-1.27-0.496-1.754-0.839c-0.225-0.156-0.414-0.342-0.572-0.552s-0.236-0.484-0.236-0.827
		c0-0.289,0.057-0.579,0.168-0.866c0.111-0.289,0.264-0.547,0.453-0.77c0.191-0.223,0.4-0.408,0.629-0.553
		c0.232-0.145,0.465-0.215,0.701-0.215c0.301,0,0.559,0.047,0.77,0.146c0.209,0.1,0.424,0.203,0.641,0.314
		c0.215,0.111,0.455,0.217,0.717,0.316c0.264,0.1,0.6,0.146,1.006,0.146c0.67,0,1.318-0.199,1.941-0.6
		c0.625-0.402,1.285-1.049,1.98-1.942c-0.867-1.169-1.68-2.472-2.434-3.911c-0.756-1.438-1.449-2.936-2.08-4.493
		c-0.631-1.557-1.195-3.14-1.693-4.749c-0.5-1.608-0.92-3.176-1.262-4.7c-0.039-0.156-0.08-0.331-0.119-0.521
		s-0.07-0.378-0.098-0.563c-0.027-0.184-0.049-0.354-0.07-0.512c-0.018-0.158-0.027-0.282-0.027-0.375
		c0-0.302,0.074-0.563,0.225-0.788c0.152-0.223,0.354-0.407,0.604-0.552c0.248-0.145,0.527-0.253,0.836-0.325
		c0.309-0.071,0.629-0.107,0.957-0.107c0.563,0,0.99,0.102,1.279,0.305c0.289,0.204,0.492,0.615,0.611,1.231
		c0.5,2.443,1.188,5.042,2.07,7.794c0.879,2.753,2.074,5.6,3.586,8.542c0.539-0.958,1.051-1.967,1.537-3.024
		c0.484-1.057,0.932-2.118,1.34-3.182c0.406-1.065,0.781-2.106,1.123-3.123c0.342-1.02,0.639-1.969,0.896-2.849
		c0.256-0.88,0.465-1.665,0.629-2.354c0.166-0.691,0.287-1.239,0.365-1.646c0.105-0.604,0.311-1.038,0.611-1.301
		c0.303-0.262,0.768-0.394,1.398-0.394c0.289,0,0.578,0.022,0.867,0.068s0.549,0.128,0.779,0.246
		c0.229,0.118,0.418,0.286,0.561,0.503C522.968,150.792,523.04,151.071,523.04,151.412"/>
</g>
<path fill="#FFFFFF" d="M102.552,37.76c0.283-0.132,0.372-0.314,0.371-0.623c-0.01-2.775,0.003-5.551-0.01-8.326
	c-0.003-0.545,0.193-0.885,0.687-1.142c0.988-0.513,1.943-1.09,2.915-1.633c1.082-0.606,2.157-1.226,3.257-1.797
	c0.757-0.394,1.624-0.134,2.188,0.516c0.971,1.118,1.965,2.216,2.965,3.309c0.111,0.121,0.324,0.203,0.493,0.21
	c0.683,0.025,1.368,0.002,2.052,0.02c0.271,0.007,0.417-0.105,0.531-0.334c1.024-2.079,2.05-4.156,3.082-6.231
	c0.725-1.46,2.617-1.829,3.787-0.719c0.289,0.274,0.513,0.626,0.732,0.964c0.846,1.306,1.664,2.63,2.519,3.93
	c0.565,0.86,0.871,1.749,0.832,2.811c-0.071,1.873,0.002,3.751-0.033,5.627c-0.012,0.609,0.106,1.066,0.654,1.402
	c0.49,0.3,0.937,0.669,1.485,1.067v-0.459c0-5.348-0.001-10.696-0.002-16.045c0-0.583,0.01-1.166-0.015-1.748
	c-0.09-1.989-1.824-3.643-3.818-3.651c-0.634-0.003-1.267-0.002-1.901-0.002c-6.843,0-13.686-0.002-20.529,0.001
	c-0.342,0-0.694-0.019-1.022,0.056c-1.942,0.439-3.194,2.012-3.195,3.994c-0.003,6.438-0.002,12.876-0.001,19.314
	c0,0.133,0.016,0.265,0.028,0.451C101.29,38.381,101.915,38.058,102.552,37.76z M119.585,15.841
	c1.645-0.015,2.878,1.269,2.854,2.816c-0.023,1.483-1.295,2.697-2.768,2.646c-1.558,0.027-2.719-1.251-2.747-2.751
	C116.899,17.172,118.227,15.853,119.585,15.841z M115.58,21.322c1.312-0.019,2.715,0.975,2.755,2.746
	c0.031,1.346-1.164,2.627-2.46,2.718c-1.852,0.13-3.029-1.344-3.03-2.652C112.783,22.644,114.016,21.344,115.58,21.322z"/>
<path fill="#FFFFFF" d="M104.789,11.194c7.059,0.002,14.115,0.005,21.173-0.005c0.669,0,1.347-0.021,2.004-0.131
	c1.439-0.243,2.611-1.43,2.923-2.854c0.022-0.1,0.142-0.179,0.216-0.267V5.278c-4.453-1.546-9.051-2.781-13.768-3.681
	c0,1.426,0.003,2.851,0.001,4.277c0,0.24-0.017,0.482-0.056,0.719c-0.177,1.068-1.454,1.615-2.361,1.03
	c-0.603-0.389-0.78-0.956-0.778-1.629c0.004-1.652,0.003-3.303,0.008-4.954c-1.17-0.184-2.348-0.345-3.531-0.487
	c0.577,1.064,1.157,2.127,1.713,3.203c0.216,0.416,0.433,0.88,0.462,1.334c0.047,0.736-0.677,1.53-1.69,1.518
	c-3.144-0.037-6.286-0.014-9.427-0.013c-0.279,0-0.561-0.022-0.835,0.015c-0.104,0.015-0.275,0.177-0.267,0.258
	c0.048,0.552,0.047,1.131,0.226,1.643C101.414,10.263,102.836,11.194,104.789,11.194z"/>
<path fill="#FFFFFF" d="M100.696,76.287c0.01,0.062,0.027,0.124,0.043,0.185c0.47,1.87,2.025,3.018,4.088,3.018
	c7.135,0,14.269-0.001,21.403-0.002c0.355,0,0.71,0.01,1.064-0.005c2.147-0.094,3.79-1.779,3.799-3.925
	c0.012-3.155,0-6.311,0.009-9.467c0-0.264-0.077-0.423-0.323-0.528c-1.116-0.477-2.228-0.965-3.34-1.45
	c-1.753-0.763-3.504-1.527-5.256-2.292c-0.995-0.435-1.989-0.873-3.088-1.355c-0.053,1.104-0.107,2.11-0.14,3.119
	c-0.003,0.082,0.131,0.211,0.227,0.248c1.302,0.491,2.601,0.993,3.915,1.446c1.028,0.354,1.366,1.04,0.934,2.035
	c-0.057,0.132-0.092,0.272-0.156,0.465c0.836,0.042,1.557,0.242,2.108,0.833c0.542,0.58,0.839,1.253,0.801,2.064
	c-0.057,1.255-0.944,2.275-2.254,2.569c-1.085,0.243-2.409-0.417-2.938-1.5c-0.356-0.728-0.386-1.494-0.068-2.244
	c0.31-0.734,0.853-1.258,1.666-1.581c-1.317-0.494-2.548-0.953-3.777-1.416c-0.935-0.352-1.868-0.709-2.802-1.063
	c-0.407-0.155-0.528-0.446-0.49-0.872c0.066-0.731,0.087-1.466,0.122-2.2c0.003-0.065-0.03-0.134-0.058-0.25
	c-1.516,1.006-2.995,1.988-4.497,2.984c0.103,0.126,0.159,0.209,0.229,0.278c0.866,0.853,1.726,1.713,2.604,2.553
	c0.72,0.688,0.611,1.704-0.219,2.214c-1.433,0.88-2.844,1.797-4.269,2.691c-0.76,0.478-1.519,0.962-2.299,1.404
	c-0.568,0.322-1.297,0.053-1.582-0.527c-0.326-0.663-0.134-1.273,0.594-1.743c1.19-0.769,2.394-1.516,3.593-2.274
	c0.443-0.28,0.883-0.564,1.27-0.811c-0.748-0.788-1.467-1.545-2.217-2.335c-0.025,0.101-0.047,0.145-0.049,0.19
	c-0.048,0.834-0.099,1.668-0.139,2.503c-0.021,0.426-0.205,0.764-0.561,0.979c-0.77,0.464-1.549,0.911-2.332,1.352
	c-1.554,0.875-3.124,1.722-4.668,2.616C100.462,74.875,100.464,74.927,100.696,76.287z"/>
<path fill="#FFFFFF" d="M127.081,49.077c-7.602,0.06-15.206,0.031-22.809,0.036c-1.083,0.001-1.941,0.461-2.65,1.258
	c-0.73,0.821-1.009,1.786-1.008,2.867c0.007,6.07,0.003,12.141,0.005,18.21c0,0.105,0.019,0.21,0.033,0.345
	c0.269-0.143,0.493-0.256,0.711-0.379c1.676-0.946,3.354-1.887,5.02-2.851c0.139-0.081,0.259-0.313,0.269-0.481
	c0.072-1.265,0.11-2.531,0.17-3.796c0.026-0.561,0.24-1.004,0.748-1.324c1.167-0.734,2.312-1.503,3.461-2.266
	c1.74-1.155,3.48-2.309,5.208-3.481c0.591-0.401,1.166-0.538,1.844-0.215c0.867,0.413,1.759,0.774,2.64,1.159
	c2.702,1.182,5.404,2.366,8.106,3.547c0.727,0.317,1.456,0.628,2.226,0.96c0.019-0.151,0.042-0.246,0.042-0.341
	c0.001-3.105-0.02-6.21,0.006-9.315C131.12,51.052,129.572,49.057,127.081,49.077z M119.781,57.251
	c-1.346,0.104-2.682-1.21-2.715-2.602c-0.04-1.649,1.34-2.858,2.683-2.844c1.556,0.017,2.767,1.183,2.773,2.715
	C122.528,56.06,121.333,57.25,119.781,57.251z"/>
<path fill="#FFFFFF" d="M104.555,39.346c-1.202,0.598-2.395,1.215-3.606,1.795c-0.312,0.149-0.399,0.333-0.361,0.65
	c0.262,2.136,2.059,3.559,3.936,3.551c7.528-0.032,15.056-0.038,22.584,0.004c1.765,0.01,3.674-1.328,3.891-3.384
	c0.055-0.515,0.014-1.039,0.068-1.554c0.044-0.422-0.124-0.678-0.451-0.913c-1.08-0.775-2.138-1.579-3.216-2.356
	c-0.492-0.355-0.725-0.794-0.713-1.416c0.029-1.507,0.012-3.016,0.013-4.524v-0.458c-0.136,0.076-0.204,0.103-0.259,0.146
	c-1.177,0.92-2.341,1.856-3.533,2.755c-0.335,0.253-0.437,0.523-0.434,0.925c0.018,2.396,0.01,4.791,0.011,7.186
	c0,0.153,0.002,0.305-0.01,0.456c-0.058,0.758-0.692,1.235-1.429,1.08c-0.596-0.126-0.943-0.599-0.944-1.332
	c-0.005-2.814,0.001-5.627-0.004-8.441c-0.001-0.511,0.206-0.9,0.602-1.207c1.192-0.921,2.376-1.852,3.577-2.762
	c0.228-0.172,0.242-0.308,0.101-0.531c-0.659-1.036-1.31-2.077-1.964-3.116c-0.052-0.083-0.104-0.167-0.179-0.286
	c-0.089,0.143-0.125,0.193-0.153,0.248c-0.616,1.235-1.231,2.471-1.847,3.707c-0.331,0.664-0.797,1.045-1.61,1.014
	c-1.354-0.051-2.712-0.016-4.068-0.013c-0.346,0.001-0.639-0.096-0.877-0.366c-0.461-0.523-0.942-1.027-1.402-1.55
	c-0.162-0.186-0.303-0.215-0.521-0.089c-0.855,0.495-1.719,0.975-2.58,1.459c-0.548,0.308-1.097,0.614-1.692,0.946
	c0.564,0.534,1.092,1.019,1.605,1.521c0.685,0.669,1.431,1.269,1.938,2.117c1.374,2.305,2.789,4.586,4.192,6.873
	c0.384,0.626,0.229,1.371-0.384,1.753c-0.49,0.306-1.218,0.09-1.575-0.491c-1.159-1.887-2.298-3.788-3.47-5.667
	c-0.406-0.651-0.839-1.298-1.345-1.87c-0.552-0.623-1.203-1.157-1.811-1.731c-0.39-0.368-0.78-0.735-1.209-1.141
	c-0.025,0.125-0.042,0.172-0.042,0.219c0.01,1.798,0.019,3.597,0.033,5.396C105.424,38.599,105.138,39.057,104.555,39.346z"/>
<path fill="#FFFFFF" d="M139.162,10.808c0.423,0.152,0.883,0.282,1.325,0.283c1.348,0.003,2.695,0.001,4.042,0.002
	c-2.548-1.337-5.16-2.568-7.833-3.683C136.859,9.131,137.858,10.337,139.162,10.808z"/>
<path fill="#FFFFFF" d="M101.151,3.522c2.357,0.001,4.714,0.002,7.071,0.002c0.096,0,0.191-0.018,0.339-0.032
	c-0.115-0.242-0.202-0.449-0.308-0.645c-0.482-0.893-0.964-1.787-1.446-2.68c-2.05-0.166-4.118-0.269-6.202-0.308
	c-0.001,1.042-0.004,2.083-0.004,3.125C100.601,3.521,100.596,3.522,101.151,3.522z"/>
<path fill="#FFFFFF" d="M127.081,185.918c-7.602,0.06-15.206,0.03-22.809,0.036c-1.083,0-1.941,0.461-2.65,1.258
	c-0.73,0.821-1.009,1.786-1.008,2.867c0.003,2.392,0.001,4.783,0.002,7.174c4.181-0.078,8.298-0.418,12.337-1.001
	c1.097-0.729,2.196-1.457,3.286-2.196c0.591-0.4,1.166-0.537,1.844-0.215c0.772,0.368,1.564,0.696,2.351,1.035
	c3.635-0.816,7.193-1.833,10.664-3.038c0.002-0.662,0-1.324,0.005-1.986C131.12,187.893,129.572,185.899,127.081,185.918z
	 M119.781,194.092c-1.346,0.104-2.682-1.21-2.715-2.602c-0.04-1.649,1.34-2.859,2.683-2.844c1.556,0.017,2.767,1.183,2.773,2.715
	C122.528,192.902,121.333,194.09,119.781,194.092z"/>
<path fill="#FFFFFF" d="M57.752,126.208c-0.005,0.695,0.004,1.393-0.008,2.09c-0.011,0.603-0.293,0.884-0.888,0.897
	c-0.442,0.011-0.885,0.005-1.328,0.005c-0.833,0-1.084-0.25-1.086-1.092c-0.001-0.722,0.009-1.443,0-2.167
	c-0.005-0.485-0.162-0.626-0.641-0.625c-0.836,0-1.673-0.003-2.509-0.004h-0.598c0.37,0.992,0.717,1.913,1.054,2.838
	c0.148,0.403,0.327,0.806,0.4,1.225c0.124,0.722-0.4,1.497-1.095,1.718c-0.783,0.25-1.52-0.055-1.964-0.812
	c-0.123-0.211-0.257-0.414-0.387-0.62c-0.075,0.765-0.09,1.497-0.068,2.227c0.01,0.297,0.054,0.61,0.16,0.884
	c0.536,1.38,1.093,2.752,1.651,4.124c0.908,2.229,1.822,4.453,2.735,6.679c0.254,0.616,0.168,1.191-0.212,1.725
	c-0.414,0.583-1.023,0.84-1.692,0.726c-0.697-0.118-1.17-0.606-1.439-1.276c-0.956-2.373-1.917-4.745-2.877-7.117
	c-0.261-0.646-0.525-1.29-0.789-1.935c-0.102-0.25-0.288-0.419-0.555-0.353c-0.169,0.041-0.388,0.17-0.449,0.316
	c-0.771,1.845-1.517,3.7-2.272,5.553c-0.559,1.371-1.106,2.747-1.696,4.105c-0.247,0.566-0.736,0.917-1.359,0.967
	c-1.396,0.107-2.331-1.146-1.809-2.451c1.132-2.833,2.265-5.667,3.46-8.475c1.043-2.449,1.08-2.435,1.096-5.114
	c0.001-0.089,0.005-0.179,0.001-0.268c-0.005-0.105-0.018-0.213-0.033-0.38c-0.286,0.384-0.509,0.734-0.781,1.039
	c-0.552,0.621-1.316,0.736-1.992,0.332c-0.63-0.375-0.921-1.235-0.659-1.964c0.239-0.668,0.486-1.333,0.722-2.001
	c0.188-0.532,0.365-1.069,0.567-1.665c-0.217-0.011-0.363-0.025-0.509-0.026c-0.938-0.002-1.876-0.001-2.813-0.002
	c-0.473,0-0.575,0.092-0.58,0.575c-0.008,0.684,0.009,1.367-0.007,2.051c-0.006,0.249-0.058,0.501-0.118,0.744
	c-0.083,0.338-0.344,0.515-0.667,0.532c-0.567,0.032-1.138,0.039-1.707,0.014c-0.546-0.022-0.819-0.331-0.834-0.877
	c-0.011-0.392-0.019-0.786-0.006-1.179c0.021-0.595,0.063-1.194-0.447-1.64c-0.103-0.091-0.231-0.206-0.35-0.212
	c-0.595-0.021-1.191,0.002-1.787-0.013c-0.269-0.007-0.359,0.097-0.348,0.356c0.02,0.467,0.03,0.936,0.031,1.403
	c0.002,3.079,0.006,6.159-0.001,9.238c-0.005,2.458-0.011,4.916-0.045,7.374c-0.028,2.026,1.053,3.442,2.496,3.962
	c0.423,0.152,0.883,0.283,1.325,0.284c7.591,0.017,15.182,0.005,22.771,0.016c1.632,0.002,3.354-1.25,3.716-2.837
	c0.034-0.147,0.158-0.276,0.24-0.415v-19.393c-0.709,0.006-1.418,0.013-2.127,0.016C58.067,125.314,57.755,125.622,57.752,126.208z"
	/>
<path fill="#FFFFFF" d="M60.648,178.765c0.055-0.516,0.014-1.039,0.068-1.555c0.044-0.422-0.124-0.678-0.451-0.913
	c-1.08-0.774-2.138-1.58-3.216-2.355c-0.492-0.355-0.725-0.795-0.713-1.416c0.029-1.508,0.012-3.018,0.013-4.525v-0.458
	c-0.136,0.076-0.204,0.104-0.259,0.146c-1.177,0.92-2.341,1.856-3.533,2.755c-0.335,0.253-0.437,0.522-0.434,0.925
	c0.018,2.397,0.01,4.792,0.011,7.188c0,0.151,0.002,0.304-0.01,0.456c-0.058,0.758-0.692,1.233-1.429,1.078
	c-0.596-0.125-0.943-0.599-0.944-1.332c-0.005-2.813,0.001-5.628-0.004-8.441c-0.001-0.51,0.206-0.9,0.602-1.207
	c1.192-0.921,2.376-1.852,3.577-2.761c0.228-0.174,0.242-0.31,0.101-0.532c-0.659-1.036-1.31-2.077-1.964-3.116
	c-0.052-0.084-0.104-0.167-0.179-0.286c-0.088,0.145-0.125,0.193-0.152,0.248c-0.617,1.235-1.232,2.472-1.848,3.707
	c-0.331,0.664-0.797,1.045-1.61,1.015c-1.354-0.052-2.712-0.017-4.068-0.014c-0.346,0.001-0.639-0.096-0.877-0.366
	c-0.461-0.522-0.942-1.025-1.401-1.55c-0.163-0.185-0.304-0.215-0.522-0.089c-0.855,0.495-1.718,0.975-2.579,1.459
	c-0.548,0.309-1.097,0.614-1.692,0.946c0.564,0.534,1.092,1.019,1.605,1.521c0.684,0.67,1.432,1.27,1.938,2.117
	c1.374,2.306,2.789,4.587,4.192,6.874c0.384,0.626,0.229,1.371-0.383,1.753c-0.491,0.306-1.219,0.091-1.576-0.49
	c-1.159-1.888-2.298-3.788-3.47-5.669c-0.406-0.648-0.838-1.297-1.345-1.87c-0.551-0.623-1.203-1.156-1.811-1.73
	c-0.39-0.368-0.78-0.735-1.209-1.14c-0.023,0.123-0.042,0.172-0.042,0.218c0.009,1.55,0.018,3.101,0.028,4.651
	c3.495,2.952,7.196,5.665,11.082,8.114c3.538,0.001,7.076,0.009,10.614,0.028C58.522,182.158,60.431,180.82,60.648,178.765z"/>
<path fill="#FFFFFF" d="M59.035,118.187c-0.724-0.549-1.57-0.644-2.447-0.642c-3.532,0.007-7.063,0.004-10.594,0.002
	c-4.067-0.001-8.134-0.029-12.202,0.007c-1.897,0.016-3.328,1.633-3.497,3.311c-0.1,0.991-0.044,1.998-0.072,2.997
	c-0.007,0.275,0.11,0.355,0.362,0.345c0.507-0.018,1.013-0.031,1.52-0.024c0.299,0.003,0.576,0.051,0.696-0.34
	c0.081-0.264,0.329-0.494,0.35-0.754c0.053-0.642,0.011-1.291,0.024-1.938c0.012-0.558,0.318-0.86,0.882-0.876
	c0.43-0.012,0.862-0.006,1.292-0.005c0.819,0.002,1.152,0.324,1.156,1.141c0.003,0.684-0.014,1.366-0.023,2.049
	c-0.006,0.438,0.211,0.746,0.546,0.746c1.115,0.003,2.23,0.01,3.345-0.015c0.15-0.003,0.37-0.128,0.435-0.258
	c0.728-1.449,2.824-1.309,3.437-0.021c0.058,0.122,0.26,0.236,0.403,0.246c0.568,0.04,1.139,0.021,1.706,0.055
	c0.325,0.021,0.517-0.101,0.662-0.379c0.343-0.654,0.931-1.01,1.634-1c0.752,0.012,1.4,0.351,1.741,1.087
	c0.095,0.204,0.217,0.272,0.438,0.27c0.95-0.016,1.899-0.009,2.849-0.021c0.513-0.006,0.689-0.172,0.756-0.68
	c0.013-0.1,0.008-0.203,0.008-0.304c0.001-0.659-0.003-1.318,0.003-1.977c0.005-0.648,0.288-0.937,0.923-0.943
	c0.469-0.005,0.937-0.005,1.406,0.002c0.687,0.009,0.97,0.293,0.975,0.971c0.004,0.596-0.051,1.198,0.025,1.784
	c0.048,0.38,0.278,0.739,0.442,1.1c0.022,0.048,0.133,0.076,0.203,0.075c0.784-0.01,1.569-0.026,2.353-0.041v-3.498
	c-0.073-0.09-0.19-0.17-0.213-0.271C60.35,119.442,59.78,118.752,59.035,118.187z M45.572,123.62
	c-1.46-0.029-2.707-1.333-2.669-2.814c0.038-1.487,1.186-2.753,2.766-2.693c1.649,0.065,2.665,1.237,2.656,2.732
	C48.317,122.395,47.254,123.508,45.572,123.62z"/>
<path fill="#FFFFFF" d="M39.421,161.042c0.757-0.395,1.624-0.134,2.188,0.515c0.971,1.118,1.965,2.217,2.965,3.311
	c0.111,0.12,0.324,0.202,0.493,0.21c0.683,0.023,1.368,0.002,2.052,0.019c0.271,0.008,0.418-0.104,0.531-0.334
	c1.024-2.078,2.051-4.155,3.082-6.229c0.725-1.461,2.617-1.829,3.787-0.72c0.289,0.274,0.513,0.625,0.732,0.964
	c0.846,1.307,1.665,2.631,2.519,3.931c0.565,0.859,0.871,1.749,0.832,2.811c-0.071,1.873,0.003,3.751-0.033,5.626
	c-0.012,0.61,0.106,1.067,0.654,1.403c0.49,0.301,0.937,0.67,1.485,1.066v-0.459c0-5.349,0-10.695-0.002-16.045
	c0-0.583,0.01-1.166-0.015-1.748c-0.089-1.988-1.824-3.643-3.818-3.65c-0.633-0.003-1.267-0.002-1.901-0.002
	c-6.843,0-13.686-0.002-20.529,0.001c-0.341,0-0.694-0.02-1.021,0.055c-1.943,0.44-3.195,2.013-3.196,3.994
	c-0.002,4.628-0.001,9.256-0.001,13.884c0.771,0.742,1.551,1.474,2.345,2.19c-0.001-2.073,0.002-4.146-0.007-6.22
	c-0.003-0.545,0.193-0.886,0.687-1.143c0.988-0.512,1.943-1.089,2.915-1.633C37.247,162.232,38.321,161.612,39.421,161.042z
	 M49.234,152.643c1.645-0.014,2.878,1.271,2.854,2.817c-0.023,1.482-1.295,2.697-2.768,2.646c-1.558,0.027-2.719-1.251-2.747-2.752
	C46.548,153.975,47.875,152.654,49.234,152.643z M45.228,158.125c1.312-0.02,2.715,0.974,2.755,2.746
	c0.031,1.345-1.164,2.627-2.46,2.718c-1.852,0.13-3.029-1.344-3.03-2.653C42.432,159.445,43.664,158.146,45.228,158.125z"/>
<path fill="#FFFFFF" d="M56.729,185.918c-1.33,0.011-2.659,0.008-3.988,0.014c2.6,1.371,5.267,2.631,7.998,3.771
	C60.677,187.793,59.156,185.899,56.729,185.918z"/>
<path fill="#FFFFFF" d="M60.751,66.09c0.001-0.264-0.077-0.423-0.323-0.528c-1.116-0.477-2.227-0.965-3.34-1.45
	c-1.752-0.763-3.504-1.527-5.256-2.292c-0.995-0.435-1.989-0.873-3.088-1.355c-0.053,1.104-0.107,2.11-0.14,3.119
	c-0.002,0.082,0.131,0.211,0.227,0.248c1.302,0.491,2.601,0.993,3.915,1.446c1.028,0.354,1.366,1.04,0.934,2.035
	c-0.057,0.132-0.092,0.272-0.156,0.465c0.836,0.042,1.557,0.242,2.109,0.833c0.541,0.58,0.838,1.253,0.801,2.064
	c-0.058,1.255-0.945,2.275-2.255,2.569c-1.085,0.243-2.409-0.417-2.938-1.5c-0.356-0.728-0.386-1.494-0.068-2.244
	c0.31-0.734,0.853-1.258,1.666-1.581c-1.317-0.494-2.547-0.953-3.776-1.416c-0.935-0.352-1.869-0.709-2.803-1.063
	c-0.406-0.155-0.528-0.446-0.489-0.872c0.065-0.731,0.086-1.466,0.121-2.2c0.003-0.065-0.03-0.134-0.058-0.25
	c-1.516,1.006-2.995,1.988-4.497,2.984c0.103,0.126,0.159,0.209,0.229,0.278c0.866,0.853,1.726,1.713,2.604,2.553
	c0.72,0.688,0.612,1.704-0.218,2.214c-1.434,0.88-2.845,1.797-4.27,2.691c-0.76,0.478-1.518,0.962-2.299,1.404
	c-0.568,0.322-1.297,0.053-1.582-0.527c-0.326-0.663-0.133-1.273,0.594-1.743c1.19-0.769,2.394-1.516,3.592-2.274
	c0.443-0.28,0.883-0.564,1.27-0.811c-0.748-0.788-1.466-1.545-2.216-2.335c-0.026,0.101-0.047,0.145-0.049,0.19
	c-0.048,0.834-0.099,1.668-0.139,2.503c-0.021,0.426-0.204,0.764-0.56,0.979c-0.769,0.464-1.549,0.911-2.332,1.352
	c-1.554,0.875-3.125,1.722-4.668,2.616c-1.181,0.684-1.18,0.735-0.948,2.095c0.01,0.062,0.027,0.124,0.043,0.185
	c0.47,1.87,2.025,3.018,4.088,3.018c7.134,0,14.27-0.001,21.403-0.002c0.355,0,0.71,0.01,1.064-0.005
	c2.147-0.094,3.79-1.779,3.799-3.925C60.754,72.402,60.743,69.247,60.751,66.09z"/>
<path fill="#FFFFFF" d="M34.204,39.346c-1.202,0.598-2.395,1.215-3.606,1.795c-0.311,0.149-0.399,0.333-0.361,0.65
	c0.262,2.136,2.059,3.559,3.936,3.551c7.528-0.032,15.056-0.038,22.584,0.004c1.765,0.01,3.674-1.328,3.891-3.384
	c0.055-0.515,0.014-1.039,0.068-1.554c0.044-0.422-0.124-0.678-0.451-0.913c-1.08-0.775-2.138-1.579-3.216-2.356
	c-0.492-0.355-0.725-0.794-0.713-1.416c0.029-1.507,0.012-3.016,0.013-4.524v-0.458c-0.136,0.076-0.204,0.103-0.259,0.146
	c-1.177,0.92-2.341,1.856-3.533,2.755c-0.335,0.253-0.437,0.523-0.434,0.925c0.018,2.396,0.01,4.791,0.011,7.186
	c0,0.153,0.002,0.305-0.01,0.456c-0.058,0.758-0.692,1.235-1.429,1.08c-0.596-0.126-0.943-0.599-0.944-1.332
	c-0.005-2.814,0.001-5.627-0.004-8.441c-0.001-0.511,0.206-0.9,0.602-1.207c1.192-0.921,2.376-1.852,3.577-2.762
	c0.228-0.172,0.242-0.308,0.101-0.531c-0.659-1.036-1.31-2.077-1.964-3.116c-0.052-0.083-0.104-0.167-0.179-0.286
	c-0.088,0.143-0.125,0.193-0.152,0.248c-0.617,1.235-1.232,2.471-1.848,3.707c-0.331,0.664-0.797,1.045-1.61,1.014
	c-1.354-0.051-2.712-0.016-4.068-0.013c-0.346,0.001-0.639-0.096-0.877-0.366c-0.461-0.523-0.942-1.027-1.401-1.55
	c-0.163-0.186-0.304-0.215-0.522-0.089c-0.855,0.495-1.718,0.975-2.579,1.459c-0.548,0.308-1.097,0.614-1.692,0.946
	c0.564,0.534,1.092,1.019,1.605,1.521c0.684,0.669,1.432,1.269,1.938,2.117c1.374,2.305,2.789,4.586,4.192,6.873
	c0.384,0.626,0.229,1.371-0.383,1.753c-0.491,0.306-1.219,0.09-1.576-0.491c-1.159-1.887-2.298-3.788-3.47-5.667
	c-0.406-0.651-0.838-1.298-1.345-1.87c-0.551-0.623-1.203-1.157-1.811-1.731c-0.39-0.368-0.78-0.735-1.209-1.141
	c-0.023,0.125-0.042,0.172-0.042,0.219c0.01,1.798,0.02,3.597,0.033,5.396C35.073,38.599,34.787,39.057,34.204,39.346z"/>
<path fill="#FFFFFF" d="M56.729,49.077c-7.603,0.06-15.206,0.031-22.809,0.036c-1.082,0.001-1.941,0.461-2.649,1.258
	c-0.73,0.821-1.009,1.786-1.009,2.867c0.007,6.07,0.004,12.141,0.006,18.21c0,0.105,0.019,0.21,0.032,0.345
	c0.27-0.143,0.494-0.256,0.712-0.379c1.676-0.946,3.354-1.887,5.02-2.851c0.14-0.081,0.259-0.313,0.269-0.481
	c0.073-1.265,0.111-2.531,0.17-3.796c0.026-0.561,0.24-1.004,0.748-1.324c1.168-0.734,2.313-1.503,3.462-2.266
	c1.739-1.155,3.48-2.309,5.208-3.481c0.591-0.401,1.165-0.538,1.843-0.215c0.868,0.413,1.76,0.774,2.641,1.159
	c2.702,1.182,5.403,2.366,8.105,3.547c0.727,0.317,1.457,0.628,2.226,0.96c0.02-0.151,0.043-0.246,0.043-0.341
	c0.001-3.105-0.02-6.21,0.006-9.315C60.769,51.052,59.22,49.057,56.729,49.077z M49.43,57.251c-1.347,0.104-2.682-1.21-2.715-2.602
	c-0.04-1.649,1.34-2.858,2.683-2.844c1.556,0.017,2.767,1.183,2.773,2.715C52.177,56.06,50.983,57.25,49.43,57.251z"/>
<path fill="#FFFFFF" d="M89.27,6.74c0.253,0.617,0.168,1.192-0.212,1.726c-0.414,0.582-1.023,0.839-1.692,0.725
	c-0.697-0.119-1.17-0.608-1.44-1.278c-0.92-2.285-1.845-4.568-2.77-6.852C82.14,1.222,81.13,1.4,80.125,1.592
	c-0.378,0.929-0.761,1.857-1.14,2.787c-0.56,1.371-1.107,2.747-1.697,4.105c-0.246,0.567-0.735,0.918-1.358,0.967
	C74.534,9.559,73.598,8.306,74.12,7c0.603-1.508,1.208-3.014,1.819-4.518c-3.271,0.773-6.478,1.709-9.615,2.799
	c-0.005,0.521-0.002,1.042-0.009,1.564c-0.029,2.026,1.052,3.442,2.496,3.963c0.423,0.152,0.882,0.282,1.325,0.283
	c7.591,0.016,15.181,0.005,22.771,0.015c1.632,0.003,3.354-1.249,3.716-2.835c0.034-0.15,0.158-0.278,0.24-0.416v-7.996
	c-3.42,0.063-6.797,0.299-10.124,0.702C87.58,2.622,88.424,4.681,89.27,6.74z"/>
<path fill="#FFFFFF" d="M57.614,11.058c1.439-0.243,2.611-1.43,2.923-2.854c0.022-0.1,0.142-0.179,0.216-0.267V7.406
	c-2.741,1.143-5.417,2.408-8.027,3.784c0.961,0,1.923,0.001,2.884,0C56.279,11.189,56.958,11.168,57.614,11.058z"/>
<path fill="#FFFFFF" d="M32.2,37.76c0.283-0.132,0.372-0.314,0.371-0.623c-0.01-2.775,0.003-5.551-0.01-8.326
	c-0.003-0.545,0.193-0.885,0.687-1.142c0.988-0.513,1.943-1.09,2.915-1.633c1.083-0.606,2.157-1.226,3.257-1.797
	c0.757-0.394,1.624-0.134,2.188,0.516c0.971,1.118,1.965,2.216,2.965,3.309c0.111,0.121,0.324,0.203,0.493,0.21
	c0.683,0.025,1.368,0.002,2.052,0.02c0.271,0.007,0.418-0.105,0.531-0.334c1.024-2.079,2.051-4.156,3.082-6.231
	c0.725-1.46,2.617-1.829,3.787-0.719c0.289,0.274,0.513,0.626,0.732,0.964c0.846,1.306,1.665,2.63,2.519,3.93
	c0.565,0.86,0.871,1.749,0.832,2.811c-0.071,1.873,0.003,3.751-0.033,5.627c-0.012,0.609,0.106,1.066,0.654,1.402
	c0.49,0.3,0.937,0.669,1.485,1.067v-0.459c0-5.348,0-10.696-0.002-16.045c0-0.583,0.01-1.166-0.015-1.748
	c-0.089-1.989-1.824-3.643-3.818-3.651c-0.633-0.003-1.267-0.002-1.901-0.002c-2.897,0-5.794,0-8.69,0
	c-5.783,3.633-11.163,7.846-16.057,12.563c0,3.601-0.001,7.202,0,10.802c0,0.133,0.016,0.265,0.028,0.451
	C30.938,38.381,31.563,38.058,32.2,37.76z M49.234,15.841c1.645-0.015,2.878,1.269,2.854,2.816
	c-0.023,1.483-1.295,2.697-2.768,2.646c-1.558,0.027-2.719-1.251-2.747-2.751C46.548,17.172,47.875,15.853,49.234,15.841z
	 M45.228,21.322c1.312-0.019,2.715,0.975,2.755,2.746c0.031,1.346-1.164,2.627-2.46,2.718c-1.852,0.13-3.029-1.344-3.03-2.652
	C42.432,22.644,43.664,21.344,45.228,21.322z"/>
<path fill="#FFFFFF" d="M4.942,106.404c-0.462-0.797-0.882-1.528-1.31-2.256c-1-1.701-2.003-3.4-3.006-5.101
	c-0.278-0.472-0.259-0.943,0.024-1.4c0.179-0.29,0.379-0.568,0.575-0.847c0.929-1.327,1.854-2.656,2.792-3.976
	c0.541-0.763,1.108-1.508,1.655-2.268c0.903-1.251,1.791-2.513,2.7-3.759c0.315-0.432,0.773-0.627,1.3-0.532
	c1.175,0.211,1.601,1.332,0.885,2.354c-1.06,1.513-2.146,3.008-3.22,4.511c-0.543,0.759-1.084,1.519-1.644,2.304
	c0.115,0.072,0.194,0.13,0.28,0.173c1.243,0.627,2.492,1.243,3.728,1.884c0.249,0.129,0.356,0.093,0.511-0.132
	c1.782-2.584,3.575-5.16,5.367-7.738c0.607-0.873,1.21-1.748,1.83-2.612c0.336-0.468,0.813-0.7,1.386-0.602
	c1.198,0.202,1.708,1.43,1.02,2.435c-0.794,1.158-1.605,2.304-2.403,3.459c-1.289,1.862-2.575,3.727-3.86,5.592
	c-0.308,0.448-0.655,0.878-0.9,1.359c-0.39,0.764,0.073,1.543,0.882,1.543c3.409-0.002,6.818-0.015,10.226-0.015
	c0.466,0,0.946-0.021,1.339,0.312c0.409,0.347,0.565,0.927,0.387,1.452c-0.189,0.555-0.696,0.885-1.404,0.885
	c-4.334,0.004-8.668,0.006-13.002-0.008c-0.383-0.001-0.798-0.057-1.143-0.209c-0.923-0.41-1.817-0.887-2.721-1.339
	c-0.743-0.372-1.485-0.748-2.226-1.122c-0.017,0.021-0.035,0.042-0.052,0.064c0.036,0.08,0.063,0.164,0.108,0.238
	c1.014,1.694,2.033,3.385,3.039,5.081c0.135,0.228,0.29,0.304,0.549,0.304c5.779-0.006,11.558-0.008,17.336,0.002
	c0.346,0,0.462-0.098,0.46-0.451c-0.024-6.361-0.034-12.722-0.055-19.083c-0.004-1.573-1.31-3.158-2.857-3.459
	c-0.48-0.093-0.98-0.106-1.472-0.106c-6.959-0.006-13.919-0.006-20.88-0.001c-0.383,2.479-0.676,4.987-0.871,7.523
	c1.229,0.284,2.159,1.4,2.163,2.705c0.003,1.329-1.099,2.495-2.43,2.674c-0.018,0.769-0.029,1.54-0.029,2.313
	c0,2.654,0.108,5.282,0.313,7.882c1.36-0.001,2.721-0.003,4.082-0.003C4.551,106.434,4.708,106.417,4.942,106.404z"/>
<path fill="#FFFFFF" d="M26.492,165.844v-6.522c-1.862-0.001-3.724-0.005-5.586-0.01C22.672,161.571,24.539,163.749,26.492,165.844z
	"/>
<path fill="#FFFFFF" d="M26.491,158.181v-3.345c-0.078-0.08-0.188-0.146-0.23-0.24c-0.091-0.206-0.122-0.442-0.225-0.64
	c-0.794-1.535-2.074-2.249-3.79-2.248c-2.244,0.001-4.487-0.001-6.731,0c1.417,2.215,2.925,4.366,4.51,6.455
	c1.89,0,3.779,0.002,5.669,0.002C25.96,158.165,26.226,158.175,26.491,158.181z"/>
<path fill="#FFFFFF" d="M25.062,44.384c1.019-0.909,1.37-2.075,1.363-3.407c-0.017-3.21-0.005-6.421-0.006-9.631
	c-4.014,4.316-7.651,8.988-10.848,13.971c2.394-0.001,4.788,0.001,7.182-0.001C23.635,45.314,24.405,44.972,25.062,44.384z"/>
<path fill="#FFFFFF" d="M13.25,57.372c0.147,0.219,0.258,0.463,0.381,0.699c0.856,1.636,1.714,3.272,2.566,4.912
	c0.607,1.167,1.199,2.343,1.819,3.504c0.082,0.154,0.279,0.307,0.449,0.346c2.566,0.585,5.08,0.248,7.572-0.459
	c0.331-0.094,0.421-0.251,0.42-0.587c-0.011-4.22-0.001-8.44-0.006-12.66c-0.002-2.354-1.697-4.044-4.056-4.046
	c-3.039-0.005-6.078-0.003-9.117-0.002c-1.755,3.024-3.353,6.15-4.785,9.366c0.98-0.51,1.957-1.024,2.938-1.533
	C12.151,56.54,12.797,56.701,13.25,57.372z M20.083,61.354c1.549-0.012,2.83,1.253,2.814,2.779
	c-0.016,1.495-1.258,2.706-2.767,2.698c-1.437-0.008-2.732-1.253-2.732-2.625C17.398,62.673,18.629,61.364,20.083,61.354z"/>
<path fill="#FFFFFF" d="M8.724,65.341c1.22-0.585,2.441-1.167,3.658-1.758c0.573-0.277,0.741-0.794,0.454-1.363
	c-0.222-0.439-0.453-0.877-0.679-1.315c-0.472-0.917-0.865-1.061-1.805-0.614c-1.105,0.525-2.208,1.057-3.31,1.586
	c-0.671,1.675-1.3,3.371-1.88,5.089c0.349-0.112,0.693-0.243,1.029-0.412C7.026,66.133,7.879,65.745,8.724,65.341z"/>
<path fill="#FFFFFF" d="M129.387,118.187c-0.724-0.549-1.571-0.644-2.448-0.642c-3.531,0.007-7.062,0.004-10.594,0.002
	c-4.067-0.001-8.134-0.029-12.2,0.007c-1.898,0.016-3.329,1.633-3.498,3.311c-0.099,0.991-0.044,1.998-0.072,2.997
	c-0.007,0.275,0.11,0.355,0.363,0.345c0.506-0.018,1.012-0.031,1.519-0.024c0.299,0.003,0.576,0.051,0.696-0.34
	c0.082-0.264,0.329-0.494,0.35-0.754c0.054-0.642,0.012-1.291,0.024-1.938c0.012-0.558,0.318-0.86,0.882-0.876
	c0.431-0.012,0.862-0.006,1.292-0.005c0.82,0.002,1.152,0.324,1.156,1.141c0.003,0.684-0.014,1.366-0.023,2.049
	c-0.006,0.438,0.211,0.746,0.547,0.746c1.114,0.003,2.23,0.01,3.344-0.015c0.151-0.003,0.37-0.128,0.436-0.258
	c0.727-1.449,2.823-1.309,3.436-0.021c0.058,0.122,0.261,0.236,0.404,0.246c0.567,0.04,1.138,0.021,1.706,0.055
	c0.324,0.021,0.516-0.101,0.662-0.379c0.342-0.654,0.93-1.01,1.633-1c0.752,0.012,1.4,0.351,1.742,1.087
	c0.094,0.204,0.216,0.272,0.437,0.27c0.95-0.016,1.9-0.009,2.849-0.021c0.513-0.006,0.689-0.172,0.756-0.68
	c0.013-0.1,0.009-0.203,0.009-0.304c0.001-0.659-0.004-1.318,0.002-1.977c0.005-0.648,0.289-0.937,0.923-0.943
	c0.469-0.005,0.938-0.005,1.407,0.002c0.687,0.009,0.969,0.293,0.974,0.971c0.005,0.596-0.051,1.198,0.025,1.784
	c0.048,0.38,0.278,0.739,0.442,1.1c0.022,0.048,0.134,0.076,0.204,0.075c0.784-0.01,1.568-0.026,2.352-0.041v-3.498
	c-0.073-0.09-0.19-0.17-0.212-0.271C130.701,119.442,130.131,118.752,129.387,118.187z M115.923,123.62
	c-1.46-0.029-2.707-1.333-2.669-2.814c0.038-1.487,1.186-2.753,2.766-2.693c1.649,0.065,2.665,1.237,2.657,2.732
	C118.668,122.395,117.605,123.508,115.923,123.62z"/>
<path fill="#FFFFFF" d="M25.062,147.015c1.019-0.908,1.37-2.075,1.363-3.407c-0.017-3.269-0.005-6.538-0.006-9.807
	c0-0.492-0.002-0.494-0.516-0.494c-2.471-0.001-4.941-0.001-7.412,0c-1.033,0-1.476-0.438-1.481-1.482c-0.001-0.468,0-0.936,0-1.513
	c-0.151,0.133-0.229,0.191-0.295,0.261c-0.848,0.888-1.68,1.793-2.549,2.658c-0.294,0.293-0.292,0.531-0.125,0.869
	c0.321,0.646,0.622,1.302,0.906,1.965c0.381,0.894,0.156,1.517-0.722,1.937c-0.558,0.267-1.144,0.476-1.719,0.706
	c-1.126,0.449-2.253,0.897-3.38,1.347c1.252,2.699,2.619,5.334,4.102,7.894c3.175-0.001,6.35,0.002,9.526-0.002
	C23.635,147.944,24.405,147.602,25.062,147.015z"/>
<path fill="#FFFFFF" d="M22.119,79.555c0.658-0.003,1.367-0.082,1.961-0.338c1.602-0.69,2.365-1.999,2.373-3.734
	c0.011-2.395,0-4.79-0.001-7.185v-0.466c-0.67,0.155-1.258,0.3-1.851,0.427c-1.951,0.416-3.92,0.565-5.879,0.134
	c-1.457-0.321-2.879-0.789-4.324-1.164c-1.047-0.271-2.119-0.412-3.198-0.31c-1.587,0.15-3.085,0.683-4.584,1.185
	c-0.66,0.221-1.327,0.405-2.001,0.546c-1.129,3.556-2.06,7.199-2.785,10.917c1.846,0.001,3.693,0.001,5.539,0.001
	C12.286,79.569,17.202,79.582,22.119,79.555z"/>
<path fill="#FFFFFF" d="M10.681,130.396c0.77-0.904,1.638-1.724,2.461-2.583c0.506-0.527,1.005-1.063,1.552-1.643
	c-0.833-0.544-1.61-1.039-2.373-1.557c-0.217-0.146-0.334-0.107-0.507,0.07c-0.822,0.843-1.656,1.675-2.494,2.504
	c-0.441,0.436-1.095,0.54-1.569,0.271c-0.841-0.474-1.012-1.401-0.341-2.107c1.063-1.12,2.161-2.206,3.241-3.31
	c0.641-0.654,1.131-0.729,1.878-0.243c2.13,1.39,4.259,2.783,6.38,4.188c0.346,0.229,0.595,0.573,0.601,1.007
	c0.014,1.152,0.026,2.306-0.014,3.458c-0.012,0.373,0.087,0.458,0.43,0.457c2.002-0.012,4.004-0.016,6.006,0.001
	c0.392,0.004,0.519-0.102,0.467-0.493c-0.035-0.26,0.019-0.529,0.019-0.796c0.002-2.623,0.01-5.246-0.007-7.868
	c-0.003-0.463-0.069-0.935-0.182-1.384c-0.397-1.586-1.971-2.828-3.592-2.829c-6.936-0.006-13.871-0.003-20.807,0.005
	c1.265,6.492,3.166,12.757,5.636,18.728c0.698-1.348,1.373-2.707,2.083-4.049C9.883,131.589,10.222,130.937,10.681,130.396z
	 M21.636,121.818c1.526,0.076,2.686,1.175,2.696,2.736c0.011,1.533-1.239,2.752-2.756,2.736c-1.527,0.074-2.847-1.369-2.777-2.797
	C18.872,123.006,20.104,121.743,21.636,121.818z"/>
<path fill="#FFFFFF" d="M11.2,113.729c3.726,0,7.452,0.01,11.178-0.003c2.321-0.008,3.996-1.675,4.04-3.994
	c0.011-0.545-0.012-1.09-0.017-1.635c-0.005-0.487-0.004-0.487-0.502-0.487c-4.879,0-9.759,0.002-14.637,0.002
	c-0.66,0-1.319,0.004-1.978-0.004c-0.23-0.002-0.311,0.072-0.28,0.317c0.093,0.75-0.251,1.365-0.866,1.593
	c-0.641,0.236-1.263,0.012-1.705-0.635c-0.171-0.251-0.341-0.508-0.466-0.782c-0.182-0.396-0.482-0.497-0.889-0.494
	c-1.553,0.012-3.107,0.015-4.661,0.021c0.187,2.052,0.431,4.086,0.741,6.1H11.2V113.729z"/>
<path fill="#FFFFFF" d="M30.456,111.227c0.629,1.697,2.047,2.603,3.97,2.604c3.65,0.001,7.3,0,10.95,0
	c3.638,0,7.275,0.002,10.912-0.001c1.201-0.001,2.305-0.262,3.197-1.146c0.864-0.857,1.21-1.899,1.201-3.093
	c-0.008-1.306-0.004-2.611,0.002-3.916c0.002-0.473-0.011-0.496-0.48-0.496c-2.294,0.001-4.588-0.005-6.881,0.006
	c-0.711,0.004-1.286-0.26-1.738-0.786c-0.23-0.266-0.412-0.575-0.606-0.87c-0.581-0.891-1.16-1.783-1.733-2.678
	c-0.146-0.229-0.273-0.193-0.397,0.001c-0.075,0.116-0.128,0.247-0.184,0.374c-0.361,0.811-0.687,1.637-1.089,2.426
	c-0.26,0.512-0.227,0.926,0.149,1.333c0.034,0.037,0.065,0.078,0.094,0.119c0.952,1.358,1.923,2.703,2.848,4.078
	c0.401,0.597,0.453,1.273,0.03,1.897c-0.768,1.134-2.163,1.095-2.965-0.063c-1.224-1.765-2.436-3.541-3.685-5.289
	c-0.461-0.644-0.48-1.284-0.184-1.963c0.565-1.3,1.14-2.597,1.732-3.884c0.127-0.279,0.125-0.52,0.031-0.8
	c-0.608-1.825-1.212-3.652-1.8-5.484c-0.079-0.247-0.223-0.264-0.425-0.264c-4.245,0.002-8.491,0.004-12.738-0.002
	c-0.321,0-0.445,0.097-0.444,0.437c0.007,5.336-0.002,10.672,0.012,16.008C30.237,110.26,30.289,110.775,30.456,111.227z
	 M53.832,106.99c1.512-0.011,2.78,1.273,2.759,2.794c-0.02,1.46-1.278,2.698-2.741,2.701c-1.519,0.004-2.762-1.254-2.768-2.799
	C51.077,108.268,52.369,107.002,53.832,106.99z"/>
<path fill="#FFFFFF" d="M92.747,185.92c-3.738-0.005-7.476-0.001-11.214-0.001v0.007c-3.764,0-7.528-0.01-11.291,0.003
	c-2.19,0.009-3.919,1.774-3.92,3.964c0,0.646,0,1.293,0,1.938c4.066,1.413,8.251,2.572,12.541,3.448
	c0.974-0.51,1.947-1.021,2.923-1.526c0.718-0.372,1.364-0.212,1.817,0.46c0.148,0.221,0.258,0.464,0.381,0.699
	c0.239,0.456,0.477,0.913,0.716,1.369c3.965,0.564,8.006,0.894,12.108,0.972c0-2.428-0.001-4.856-0.003-7.286
	C96.8,187.613,95.105,185.924,92.747,185.92z"/>
<path fill="#FFFFFF" d="M66.577,141.176c1.69-0.681,3.379-1.363,5.07-2.043c1.879-0.756,3.76-1.506,5.636-2.267
	c0.144-0.058,0.311-0.159,0.377-0.287c0.755-1.448,1.477-2.913,2.24-4.356c0.335-0.634,0.674-1.286,1.133-1.827
	c0.769-0.904,1.638-1.724,2.46-2.583c0.507-0.527,1.006-1.063,1.553-1.643c-0.833-0.544-1.61-1.039-2.373-1.557
	c-0.217-0.146-0.335-0.107-0.507,0.07c-0.822,0.843-1.656,1.675-2.494,2.504c-0.441,0.436-1.095,0.54-1.569,0.271
	c-0.842-0.474-1.012-1.401-0.341-2.107c1.063-1.12,2.161-2.206,3.241-3.31c0.641-0.654,1.131-0.729,1.878-0.243
	c2.13,1.39,4.258,2.783,6.379,4.188c0.347,0.229,0.596,0.573,0.602,1.007c0.014,1.152,0.025,2.306-0.014,3.458
	c-0.013,0.373,0.087,0.458,0.43,0.457c2.002-0.012,4.004-0.016,6.006,0.001c0.392,0.004,0.519-0.102,0.466-0.493
	c-0.034-0.26,0.02-0.529,0.02-0.796c0.002-2.623,0.01-5.246-0.008-7.868c-0.002-0.463-0.069-0.935-0.181-1.384
	c-0.397-1.586-1.971-2.828-3.592-2.829c-7.628-0.007-15.256-0.004-22.884,0.005c-0.335,0-0.682,0.058-1.005,0.151
	c-1.585,0.464-2.767,1.896-2.773,3.512c-0.023,6.539-0.01,13.077-0.009,19.616c0,0.131,0.022,0.263,0.036,0.425
	C66.463,141.213,66.521,141.198,66.577,141.176z M91.988,121.818c1.525,0.076,2.685,1.175,2.696,2.736
	c0.011,1.533-1.239,2.752-2.756,2.736c-1.527,0.074-2.847-1.369-2.777-2.797C89.224,123.006,90.456,121.743,91.988,121.818z"/>
<path fill="#FFFFFF" d="M68.499,113.321c0.644,0.348,1.35,0.405,2.066,0.405h10.987v0.002c3.726,0,7.452,0.01,11.178-0.003
	c2.321-0.008,3.996-1.675,4.04-3.994c0.011-0.545-0.012-1.09-0.018-1.635c-0.004-0.487-0.003-0.487-0.501-0.487
	c-4.88,0-9.759,0.002-14.638,0.002c-0.659,0-1.318,0.004-1.977-0.004c-0.23-0.002-0.311,0.072-0.28,0.317
	c0.093,0.75-0.252,1.365-0.866,1.593c-0.642,0.236-1.263,0.012-1.705-0.635c-0.171-0.251-0.341-0.508-0.466-0.782
	c-0.182-0.396-0.482-0.497-0.889-0.494c-2.926,0.022-5.854,0.035-8.78,0.039c-0.261,0-0.329,0.099-0.327,0.333
	c0.005,0.646-0.021,1.293-0.002,1.938C66.366,111.481,67.146,112.589,68.499,113.321z"/>
<path fill="#FFFFFF" d="M104.524,182.146c7.528-0.033,15.056-0.039,22.584,0.003c1.765,0.01,3.674-1.328,3.891-3.384
	c0.055-0.516,0.014-1.039,0.068-1.555c0.044-0.422-0.124-0.678-0.451-0.913c-1.08-0.774-2.138-1.58-3.216-2.355
	c-0.492-0.355-0.725-0.795-0.713-1.416c0.029-1.508,0.012-3.018,0.013-4.525v-0.458c-0.136,0.076-0.204,0.104-0.259,0.146
	c-1.177,0.92-2.341,1.856-3.533,2.755c-0.335,0.253-0.437,0.522-0.434,0.925c0.018,2.397,0.01,4.792,0.011,7.188
	c0,0.151,0.002,0.304-0.01,0.456c-0.058,0.758-0.692,1.233-1.429,1.078c-0.596-0.125-0.943-0.599-0.944-1.332
	c-0.005-2.813,0.001-5.628-0.004-8.441c-0.001-0.51,0.206-0.9,0.602-1.207c1.192-0.921,2.376-1.852,3.577-2.761
	c0.228-0.174,0.242-0.31,0.101-0.532c-0.659-1.036-1.31-2.077-1.964-3.116c-0.052-0.084-0.104-0.167-0.179-0.286
	c-0.089,0.145-0.125,0.193-0.153,0.248c-0.616,1.235-1.231,2.472-1.847,3.707c-0.331,0.664-0.797,1.045-1.61,1.015
	c-1.354-0.052-2.712-0.017-4.068-0.014c-0.346,0.001-0.639-0.096-0.877-0.366c-0.461-0.522-0.942-1.025-1.402-1.55
	c-0.162-0.185-0.303-0.215-0.521-0.089c-0.855,0.495-1.719,0.975-2.58,1.459c-0.548,0.309-1.097,0.614-1.692,0.946
	c0.564,0.534,1.092,1.019,1.605,1.521c0.685,0.67,1.431,1.27,1.938,2.117c1.374,2.306,2.789,4.587,4.192,6.874
	c0.384,0.626,0.229,1.371-0.384,1.753c-0.49,0.306-1.218,0.091-1.575-0.49c-1.159-1.888-2.298-3.788-3.47-5.669
	c-0.406-0.648-0.839-1.297-1.345-1.87c-0.552-0.623-1.203-1.156-1.811-1.73c-0.39-0.368-0.78-0.735-1.209-1.14
	c-0.025,0.123-0.042,0.172-0.042,0.218c0.01,1.798,0.019,3.597,0.033,5.396c0.006,0.651-0.28,1.109-0.863,1.398
	c-1.202,0.598-2.395,1.215-3.606,1.795c-0.312,0.148-0.399,0.333-0.361,0.649C100.85,180.73,102.647,182.152,104.524,182.146z"/>
<path fill="#FFFFFF" d="M129.574,172.547c0.49,0.301,0.937,0.67,1.485,1.066v-0.459c0-5.349-0.001-10.695-0.002-16.045
	c0-0.583,0.01-1.166-0.015-1.748c-0.09-1.988-1.824-3.643-3.818-3.65c-0.634-0.003-1.267-0.002-1.901-0.002
	c-6.843,0-13.686-0.002-20.529,0.001c-0.342,0-0.694-0.02-1.022,0.055c-1.942,0.44-3.194,2.013-3.195,3.994
	c-0.003,6.438-0.002,12.877-0.001,19.316c0,0.133,0.016,0.265,0.028,0.45c0.686-0.341,1.311-0.665,1.948-0.963
	c0.283-0.133,0.372-0.313,0.371-0.623c-0.01-2.774,0.003-5.551-0.01-8.326c-0.003-0.545,0.193-0.886,0.687-1.143
	c0.988-0.512,1.943-1.089,2.915-1.633c1.082-0.605,2.157-1.226,3.257-1.796c0.757-0.395,1.624-0.134,2.188,0.515
	c0.971,1.118,1.965,2.217,2.965,3.311c0.111,0.12,0.324,0.202,0.493,0.21c0.683,0.023,1.368,0.002,2.052,0.019
	c0.271,0.008,0.417-0.104,0.531-0.334c1.024-2.078,2.05-4.155,3.082-6.229c0.725-1.461,2.617-1.829,3.787-0.72
	c0.289,0.274,0.513,0.625,0.732,0.964c0.846,1.307,1.664,2.631,2.519,3.931c0.565,0.859,0.871,1.749,0.832,2.811
	c-0.071,1.873,0.002,3.751-0.033,5.626C128.908,171.754,129.026,172.211,129.574,172.547z M115.875,163.589
	c-1.852,0.13-3.029-1.344-3.03-2.653c-0.061-1.49,1.171-2.79,2.735-2.811c1.312-0.02,2.715,0.974,2.755,2.746
	C118.365,162.216,117.17,163.498,115.875,163.589z M119.671,158.106c-1.558,0.027-2.719-1.251-2.747-2.752
	c-0.025-1.38,1.302-2.7,2.661-2.712c1.645-0.014,2.878,1.271,2.854,2.817C122.417,156.942,121.145,158.157,119.671,158.106z"/>
<path fill="#FFFFFF" d="M128.104,126.208c-0.005,0.695,0.004,1.393-0.008,2.09c-0.011,0.603-0.293,0.884-0.888,0.897
	c-0.442,0.011-0.885,0.005-1.328,0.005c-0.833,0-1.084-0.25-1.086-1.092c-0.002-0.722,0.009-1.443,0-2.167
	c-0.005-0.485-0.162-0.626-0.641-0.625c-0.836,0-1.673-0.003-2.509-0.004h-0.598c0.37,0.992,0.717,1.913,1.054,2.838
	c0.147,0.403,0.327,0.806,0.399,1.225c0.125,0.722-0.4,1.497-1.094,1.718c-0.783,0.25-1.52-0.055-1.964-0.812
	c-0.123-0.211-0.258-0.414-0.387-0.62c-0.075,0.765-0.09,1.497-0.068,2.227c0.009,0.297,0.054,0.61,0.16,0.884
	c0.536,1.38,1.093,2.752,1.651,4.124c0.908,2.229,1.822,4.453,2.735,6.679c0.253,0.616,0.168,1.191-0.212,1.725
	c-0.414,0.583-1.023,0.84-1.692,0.726c-0.697-0.118-1.17-0.606-1.44-1.276c-0.955-2.373-1.916-4.745-2.876-7.117
	c-0.261-0.646-0.525-1.29-0.789-1.935c-0.102-0.25-0.288-0.419-0.555-0.353c-0.169,0.041-0.388,0.17-0.449,0.316
	c-0.772,1.845-1.517,3.7-2.272,5.553c-0.56,1.371-1.107,2.747-1.697,4.105c-0.246,0.566-0.735,0.917-1.358,0.967
	c-1.396,0.107-2.331-1.146-1.809-2.451c1.132-2.833,2.266-5.667,3.46-8.475c1.043-2.449,1.08-2.435,1.096-5.114
	c0.001-0.089,0.005-0.179,0.001-0.268c-0.005-0.105-0.018-0.213-0.033-0.38c-0.286,0.384-0.509,0.734-0.781,1.039
	c-0.552,0.621-1.316,0.736-1.992,0.332c-0.63-0.375-0.921-1.235-0.659-1.964c0.239-0.668,0.486-1.333,0.722-2.001
	c0.188-0.532,0.365-1.069,0.567-1.665c-0.218-0.011-0.364-0.025-0.509-0.026c-0.938-0.002-1.876-0.001-2.814-0.002
	c-0.472,0-0.574,0.092-0.579,0.575c-0.008,0.684,0.009,1.367-0.007,2.051c-0.006,0.249-0.058,0.501-0.118,0.744
	c-0.084,0.338-0.344,0.515-0.667,0.532c-0.567,0.032-1.138,0.039-1.706,0.014c-0.547-0.022-0.819-0.331-0.834-0.877
	c-0.011-0.392-0.02-0.786-0.006-1.179c0.021-0.595,0.062-1.194-0.447-1.64c-0.103-0.091-0.231-0.206-0.35-0.212
	c-0.595-0.021-1.191,0.002-1.787-0.013c-0.269-0.007-0.36,0.097-0.349,0.356c0.021,0.467,0.031,0.936,0.032,1.403
	c0.002,3.079,0.006,6.159-0.001,9.238c-0.006,2.458-0.011,4.916-0.045,7.374c-0.029,2.026,1.053,3.442,2.496,3.962
	c0.423,0.152,0.883,0.283,1.325,0.284c7.591,0.017,15.182,0.005,22.771,0.016c1.632,0.002,3.354-1.25,3.716-2.837
	c0.034-0.147,0.158-0.276,0.24-0.415v-19.393c-0.709,0.006-1.418,0.013-2.128,0.016
	C128.418,125.314,128.106,125.622,128.104,126.208z"/>
<path fill="#FFFFFF" d="M136.691,189.705c2.736-1.141,5.408-2.403,8.013-3.777c-1.371,0-2.741-0.004-4.111,0.001
	C138.467,185.938,136.789,187.605,136.691,189.705z"/>
<path fill="#FFFFFF" d="M96.762,19.122c-0.002-0.462-0.069-0.935-0.181-1.383c-0.397-1.586-1.971-2.828-3.592-2.83
	c-7.628-0.006-15.256-0.003-22.884,0.005c-0.335,0.001-0.682,0.057-1.005,0.151c-1.585,0.465-2.767,1.897-2.773,3.513
	c-0.023,6.538-0.01,13.077-0.009,19.615c0,0.132,0.022,0.263,0.036,0.426c0.109-0.035,0.168-0.05,0.223-0.072
	c1.69-0.681,3.379-1.365,5.07-2.044c1.879-0.756,3.76-1.506,5.636-2.266c0.144-0.058,0.311-0.16,0.377-0.287
	c0.755-1.449,1.477-2.914,2.24-4.358c0.335-0.633,0.674-1.286,1.133-1.826c0.769-0.904,1.638-1.724,2.46-2.583
	c0.507-0.528,1.006-1.063,1.553-1.642c-0.833-0.545-1.61-1.04-2.373-1.557c-0.217-0.147-0.335-0.108-0.507,0.069
	c-0.822,0.844-1.656,1.676-2.494,2.504c-0.441,0.436-1.095,0.54-1.569,0.273c-0.842-0.474-1.012-1.403-0.341-2.109
	c1.063-1.119,2.161-2.206,3.241-3.309c0.641-0.655,1.131-0.73,1.878-0.243c2.13,1.39,4.258,2.784,6.379,4.188
	c0.347,0.229,0.596,0.572,0.602,1.006c0.014,1.153,0.025,2.307-0.014,3.458c-0.013,0.374,0.087,0.459,0.43,0.457
	c2.002-0.011,4.004-0.016,6.006,0.002c0.392,0.004,0.519-0.103,0.466-0.493c-0.034-0.26,0.02-0.53,0.02-0.796
	C96.771,24.368,96.78,21.745,96.762,19.122z M91.928,24.662c-1.527,0.074-2.847-1.37-2.777-2.797
	c0.073-1.489,1.305-2.752,2.837-2.676c1.525,0.075,2.685,1.175,2.696,2.736C94.695,23.458,93.445,24.675,91.928,24.662z"/>
<path fill="#FFFFFF" d="M66.341,75.724c0.031,1.576,0.842,2.716,2.242,3.447c0.691,0.361,1.431,0.395,2.181,0.396
	c2.319,0.004,4.638,0.002,6.956,0.002c4.917,0,9.834,0.013,14.75-0.014c0.658-0.003,1.368-0.082,1.961-0.338
	c1.602-0.69,2.366-1.999,2.373-3.734c0.011-2.395,0-4.79-0.001-7.185v-0.466c-0.669,0.155-1.258,0.3-1.85,0.427
	c-1.951,0.416-3.921,0.565-5.88,0.134c-1.456-0.321-2.879-0.789-4.324-1.164c-1.046-0.271-2.118-0.412-3.198-0.31
	c-1.587,0.15-3.084,0.683-4.584,1.185c-1.476,0.494-2.983,0.842-4.541,0.811c-1.708-0.036-3.406-0.221-5.061-0.69
	c-0.324-0.092-0.653-0.164-0.997-0.25c-0.02,0.114-0.044,0.187-0.044,0.26C66.324,70.731,66.291,73.228,66.341,75.724z"/>
<path fill="#FFFFFF" d="M84.576,138.001c-0.558,0.267-1.144,0.476-1.719,0.706c-2.621,1.045-5.243,2.089-7.865,3.133
	c-0.539,0.215-1.031,0.133-1.422-0.299c-0.157-0.174-0.278-0.161-0.458-0.079c-0.322,0.146-0.651,0.28-0.98,0.412
	c-1.832,0.734-3.663,1.47-5.498,2.198c-0.259,0.104-0.358,0.276-0.295,0.533c0.083,0.344,0.167,0.688,0.283,1.02
	c0.428,1.219,1.968,2.326,3.258,2.326c7.741,0.004,15.482,0.004,23.224-0.006c0.881-0.001,1.652-0.344,2.309-0.931
	c1.019-0.908,1.37-2.075,1.363-3.407c-0.017-3.269-0.005-6.538-0.006-9.807c0-0.492-0.002-0.494-0.516-0.494
	c-2.471-0.001-4.942-0.001-7.412,0c-1.034,0-1.476-0.438-1.481-1.482c-0.002-0.468,0-0.936,0-1.513
	c-0.152,0.133-0.229,0.191-0.295,0.261c-0.849,0.888-1.68,1.793-2.549,2.658c-0.294,0.293-0.292,0.531-0.125,0.869
	c0.321,0.646,0.622,1.302,0.906,1.965C85.679,136.958,85.454,137.581,84.576,138.001z"/>
<path fill="#FFFFFF" d="M96.254,30.676c-2.471,0-4.942-0.001-7.412,0c-1.034,0.001-1.476-0.44-1.481-1.483
	c-0.002-0.468,0-0.935,0-1.512c-0.152,0.133-0.229,0.191-0.295,0.261c-0.849,0.887-1.68,1.792-2.549,2.658
	c-0.294,0.293-0.292,0.531-0.125,0.869c0.321,0.646,0.622,1.302,0.906,1.964c0.381,0.893,0.156,1.517-0.722,1.937
	c-0.558,0.268-1.144,0.476-1.719,0.706c-2.621,1.045-5.243,2.089-7.865,3.133c-0.539,0.215-1.031,0.134-1.422-0.299
	c-0.157-0.174-0.278-0.161-0.458-0.079c-0.322,0.147-0.651,0.279-0.98,0.412c-1.832,0.735-3.663,1.471-5.498,2.199
	c-0.259,0.103-0.358,0.276-0.295,0.533c0.083,0.343,0.167,0.687,0.283,1.02c0.428,1.218,1.968,2.324,3.258,2.325
	c7.741,0.004,15.482,0.004,23.224-0.005c0.881-0.001,1.652-0.344,2.309-0.931c1.019-0.909,1.37-2.075,1.363-3.407
	c-0.017-3.269-0.005-6.538-0.006-9.807C96.771,30.678,96.769,30.677,96.254,30.676z"/>
<path fill="#FFFFFF" d="M56.82,99.556c-0.732,0.346-1.553,0.087-2.002-0.658c-0.633-1.052-1.236-2.122-1.883-3.166
	c-0.141-0.228-0.388-0.421-0.629-0.552c-0.342-0.184-0.724-0.296-1.09-0.438c-0.194-0.076-0.388-0.15-0.582-0.225
	c-0.023,0.031-0.045,0.061-0.068,0.092c0.212,0.607,0.417,1.216,0.638,1.82c0.329,0.904,0.593,1.843,1.027,2.693
	c0.475,0.931,1.105,1.783,1.691,2.655c0.088,0.131,0.299,0.252,0.455,0.254c1.989,0.019,3.979,0.013,5.969,0.021
	c0.24,0,0.347-0.092,0.34-0.338c-0.009-0.34,0-0.682,0-1.023c0-4.461,0.008-8.922-0.004-13.384c-0.006-2.202-1.728-3.956-3.925-3.96
	c-7.49-0.015-14.98-0.007-22.471-0.006c-0.626,0-1.231,0.092-1.804,0.375c-1.179,0.582-2.003,1.485-2.162,2.791
	c-0.139,1.137-0.069,2.3-0.068,3.452c0,0.087,0.181,0.238,0.289,0.249c0.364,0.039,0.732,0.034,1.098,0.034
	c5.044,0.002,10.088,0.007,15.132-0.001c1.116-0.002,2.195,0.017,3.256,0.519c1.393,0.657,2.865,1.144,4.283,1.753
	c0.324,0.139,0.628,0.432,0.827,0.73c0.49,0.737,0.919,1.515,1.361,2.283c0.39,0.678,0.824,1.341,1.13,2.057
	C57.963,98.36,57.569,99.202,56.82,99.556z M45.488,89.835c-1.381-0.065-2.607-1.354-2.577-2.783
	c0.032-1.52,1.284-2.699,2.829-2.666c1.55,0.033,2.689,1.223,2.678,2.759C48.408,88.515,47.204,89.915,45.488,89.835z"/>
<path fill="#FFFFFF" d="M88.625,159.825c-0.005,0.789-0.425,1.217-1.214,1.241c-0.089,0.003-0.178-0.002-0.266-0.002
	c-1.077,0-2.155-0.008-3.231,0.01c-0.146,0.002-0.328,0.095-0.426,0.204c-0.298,0.335-0.509,0.769-0.851,1.04
	c-0.921,0.73-1.893,1.397-2.844,2.09c-0.849,0.618-1.699,1.235-2.546,1.856c-0.222,0.162-0.371,0.696-0.202,0.955
	c0.077,0.118,0.34,0.155,0.519,0.157c1.305,0.013,2.61,0.002,3.915,0.011c0.698,0.006,1.273,0.38,1.476,0.992
	c0.093,0.282,0.118,0.596,0.119,0.896c0.009,2.534,0.006,5.069,0.002,7.604c0,0.24-0.017,0.481-0.056,0.718
	c-0.177,1.069-1.454,1.616-2.361,1.031c-0.603-0.39-0.781-0.957-0.779-1.629c0.006-2.066-0.003-4.132,0.01-6.198
	c0.003-0.337-0.108-0.438-0.437-0.433c-1,0.016-2,0.005-3,0.005h-0.672c0.046,0.144,0.061,0.23,0.101,0.304
	c0.731,1.361,1.479,2.712,2.189,4.081c0.215,0.418,0.433,0.882,0.461,1.336c0.048,0.736-0.676,1.53-1.689,1.518
	c-3.143-0.037-6.285-0.014-9.428-0.014c-0.279,0-0.56-0.021-0.834,0.016c-0.104,0.016-0.275,0.178-0.267,0.259
	c0.048,0.551,0.047,1.131,0.226,1.643c0.612,1.752,2.035,2.684,3.987,2.684c7.058,0.002,14.115,0.006,21.173-0.005
	c0.668,0,1.347-0.021,2.003-0.132c1.439-0.242,2.611-1.43,2.924-2.853c0.022-0.101,0.141-0.179,0.216-0.268v-19.622
	c-2.61-0.002-5.221,0.003-7.831-0.014C88.584,159.305,88.627,159.553,88.625,159.825z"/>
<path fill="#FFFFFF" d="M74.718,60.597c1.356-0.709,2.714-1.415,4.071-2.123c0.998-0.52,1.995-1.044,2.995-1.562
	c0.718-0.372,1.364-0.211,1.817,0.46c0.148,0.219,0.258,0.463,0.381,0.699c0.856,1.636,1.714,3.272,2.566,4.912
	c0.608,1.167,1.199,2.343,1.819,3.504c0.083,0.154,0.279,0.307,0.449,0.346c2.567,0.585,5.08,0.248,7.573-0.459
	c0.33-0.094,0.421-0.251,0.42-0.587c-0.011-4.22-0.002-8.44-0.006-12.66c-0.003-2.354-1.698-4.044-4.057-4.046
	c-3.738-0.006-7.476-0.002-11.214-0.002v0.006c-3.764,0-7.528-0.009-11.291,0.004c-2.19,0.008-3.919,1.774-3.92,3.962
	c0,1.204-0.002,2.408-0.001,3.612c0.001,3.105,0.003,6.21,0.003,9.316c0,0.233-0.014,0.427,0.301,0.515
	c2.07,0.582,4.165,0.994,6.328,0.905c1.246-0.05,2.458-0.273,3.59-0.843c0.836-0.421,1.688-0.809,2.533-1.213
	c1.22-0.585,2.442-1.167,3.659-1.758c0.572-0.277,0.74-0.794,0.454-1.363c-0.223-0.439-0.454-0.877-0.68-1.315
	c-0.472-0.917-0.865-1.061-1.805-0.614c-1.647,0.783-3.283,1.588-4.932,2.363c-0.239,0.112-0.541,0.178-0.797,0.145
	c-0.495-0.066-0.867-0.487-0.927-0.933C73.966,61.253,74.155,60.892,74.718,60.597z M90.434,61.354
	c1.55-0.012,2.83,1.253,2.814,2.779c-0.016,1.495-1.257,2.706-2.767,2.698c-1.436-0.008-2.732-1.253-2.731-2.625
	C87.75,62.673,88.98,61.364,90.434,61.354z"/>
<path fill="#FFFFFF" d="M96.727,86.907c-0.005-1.573-1.31-3.158-2.857-3.459c-0.48-0.093-0.981-0.106-1.472-0.106
	c-7.375-0.007-14.751-0.007-22.126-0.001c-0.402,0-0.818,0.02-1.206,0.118c-1.515,0.384-2.729,1.929-2.732,3.497
	c-0.012,6.349-0.005,12.699-0.018,19.048c-0.001,0.417,0.21,0.438,0.522,0.438c2.637-0.006,5.272-0.004,7.908-0.006
	c0.157-0.002,0.314-0.019,0.548-0.031c-0.463-0.797-0.882-1.528-1.31-2.256c-1-1.701-2.003-3.4-3.006-5.101
	c-0.278-0.472-0.259-0.943,0.023-1.4c0.18-0.29,0.38-0.568,0.576-0.847c0.929-1.327,1.854-2.656,2.791-3.976
	c0.542-0.763,1.109-1.508,1.656-2.268c0.903-1.251,1.791-2.513,2.7-3.759c0.315-0.432,0.773-0.627,1.3-0.532
	c1.175,0.211,1.6,1.332,0.884,2.354c-1.059,1.513-2.145,3.008-3.219,4.511c-0.543,0.759-1.084,1.519-1.644,2.304
	c0.115,0.072,0.194,0.13,0.28,0.173c1.243,0.627,2.492,1.243,3.728,1.884c0.249,0.129,0.356,0.093,0.511-0.132
	c1.782-2.584,3.575-5.16,5.367-7.738c0.607-0.873,1.21-1.748,1.829-2.612c0.336-0.468,0.814-0.7,1.387-0.602
	c1.198,0.202,1.708,1.43,1.02,2.435c-0.794,1.158-1.605,2.304-2.403,3.459c-1.289,1.862-2.575,3.727-3.86,5.592
	c-0.308,0.448-0.655,0.878-0.9,1.359c-0.39,0.764,0.073,1.543,0.882,1.543c3.409-0.002,6.818-0.015,10.226-0.015
	c0.466,0,0.946-0.021,1.339,0.312c0.409,0.347,0.565,0.927,0.387,1.452c-0.189,0.555-0.696,0.885-1.404,0.885
	c-4.334,0.004-8.668,0.006-13.002-0.008c-0.383-0.001-0.798-0.057-1.143-0.209c-0.923-0.41-1.817-0.887-2.722-1.339
	c-0.743-0.372-1.484-0.748-2.225-1.122c-0.018,0.021-0.035,0.042-0.052,0.064c0.035,0.08,0.063,0.164,0.107,0.238
	c1.014,1.694,2.034,3.385,3.04,5.081c0.135,0.228,0.29,0.304,0.549,0.304c5.779-0.006,11.557-0.008,17.336,0.002
	c0.346,0,0.461-0.098,0.46-0.451C96.757,99.629,96.748,93.268,96.727,86.907z M70.025,96.28c-1.535-0.003-2.763-1.226-2.758-2.746
	c-0.054-1.472,1.202-2.734,2.753-2.745c1.528-0.01,2.784,1.261,2.789,2.78C72.813,95.015,71.512,96.283,70.025,96.28z"/>
<path fill="#FFFFFF" d="M72.82,158.701c1.379,1.103,3.14,1.006,4.323-0.23c0.226-0.236,0.457-0.312,0.768-0.312
	c6.045,0.007,12.09,0.005,18.135,0.006c0.266,0,0.532,0.01,0.797,0.016v-3.345c-0.079-0.08-0.188-0.146-0.23-0.24
	c-0.092-0.206-0.122-0.442-0.225-0.64c-0.795-1.535-2.074-2.249-3.79-2.248c-7.427,0.004-14.853,0.004-22.28,0
	c-2.342-0.002-4.017,1.931-3.997,4.032c0.055,6.083,0.02,12.167,0.019,18.252c0,0.535-0.005,0.535,0.55,0.537
	c2.357,0,4.714,0.002,7.071,0c0.096,0,0.191-0.018,0.339-0.029c-0.115-0.244-0.202-0.451-0.308-0.646
	c-0.752-1.392-1.521-2.773-2.253-4.176c-0.183-0.352-0.353-0.761-0.357-1.146c-0.029-2.687-0.025-5.374-0.001-8.061
	c0.006-0.658,0.257-1.256,0.733-1.742C72.351,158.486,72.533,158.472,72.82,158.701z M74.858,153.69
	c1.62,0.014,2.768,1.307,2.805,2.686c0.041,1.476-1.309,2.813-2.741,2.797c-1.606-0.019-2.929-1.335-2.816-2.965
	C72.196,154.891,73.449,153.679,74.858,153.69z"/>
<g>
	<path fill="#FFFFFF" d="M271.307,84.749h-7.767v11.979h7.767c3.348,0,6.016-2.72,6.016-6.016S274.655,84.749,271.307,84.749z"/>
	<path fill="#FFFFFF" d="M227.456,127.391h-7.767v11.979h7.767c3.348,0,6.016-2.72,6.016-6.016S230.804,127.391,227.456,127.391z"/>
	<path fill="#FFFFFF" d="M208.023,47.908c0-3.348-2.667-6.016-5.963-6.016c-3.295,0-6.016,2.668-6.016,6.016v9.914h11.979V47.908z"
		/>
	<path fill="#FFFFFF" d="M181.313,143.085h-7.76v11.979h7.76c3.349,0,6.017-2.668,6.017-5.964S184.662,143.085,181.313,143.085z"/>
	<path fill="#FFFFFF" d="M226.171,1.067c-24.286,0-46.496,8.883-63.563,23.573c-0.108,0.012-0.217,0.022-0.329,0.021
		c-1.526,0.074-2.847-1.37-2.777-2.797c0.016-0.327,0.097-0.64,0.215-0.933c-2.737-2.153-5.594-4.161-8.553-6.02
		c-3.569,0.001-7.139-0.001-10.708,0.002c-0.336,0.001-0.682,0.057-1.005,0.151c-1.585,0.465-2.767,1.897-2.773,3.513
		c-0.023,6.538-0.011,13.077-0.01,19.615c0,0.132,0.022,0.263,0.037,0.426c0.108-0.035,0.167-0.05,0.223-0.072
		c1.69-0.681,3.379-1.365,5.069-2.044c1.879-0.756,3.76-1.506,5.637-2.266c0.143-0.058,0.31-0.16,0.377-0.287
		c0.754-1.449,1.476-2.914,2.24-4.358c0.334-0.633,0.673-1.286,1.132-1.826c0.77-0.904,1.638-1.724,2.461-2.583
		c0.506-0.528,1.005-1.063,1.553-1.642c-0.834-0.545-1.611-1.04-2.373-1.557c-0.218-0.147-0.335-0.108-0.508,0.069
		c-0.822,0.844-1.656,1.676-2.494,2.504c-0.441,0.436-1.094,0.54-1.569,0.273c-0.841-0.474-1.011-1.403-0.341-2.109
		c1.064-1.119,2.161-2.206,3.241-3.309c0.641-0.655,1.131-0.73,1.878-0.243c2.13,1.39,4.259,2.784,6.38,4.188
		c0.346,0.229,0.596,0.572,0.601,1.006c0.009,0.803,0.011,1.606,0.002,2.409c-0.849,0.78-1.682,1.575-2.502,2.384
		c-0.001-0.456,0-0.913,0-1.474c-0.152,0.133-0.229,0.191-0.296,0.261c-0.848,0.887-1.679,1.792-2.548,2.658
		c-0.294,0.293-0.293,0.531-0.125,0.869c0.082,0.165,0.151,0.334,0.23,0.5c-1.576,1.684-3.092,3.423-4.546,5.216
		c-1.695,0.675-3.39,1.35-5.084,2.025c-0.539,0.215-1.031,0.134-1.422-0.299c-0.157-0.174-0.278-0.161-0.458-0.079
		c-0.322,0.147-0.651,0.279-0.98,0.412c-1.832,0.735-3.664,1.471-5.498,2.199c-0.259,0.103-0.358,0.276-0.295,0.533
		c0.083,0.343,0.167,0.687,0.283,1.02c0.428,1.218,1.968,2.324,3.258,2.325c1.421,0.001,2.842-0.001,4.263-0.001
		c-0.808,1.237-1.587,2.493-2.34,3.768c-0.521,0.001-1.042-0.001-1.563,0c-2.19,0.008-3.92,1.774-3.92,3.962
		c-0.001,1.204-0.002,2.408-0.001,3.612c0,1.064,0,2.129,0,3.193c-3.335,7.703-5.705,15.918-6.958,24.499
		c-0.689-0.62-1.592-1.006-2.606-1.008c-7.49-0.015-14.98-0.007-22.471-0.006c-0.626,0-1.231,0.092-1.804,0.375
		c-1.178,0.582-2.003,1.485-2.162,2.791c-0.139,1.137-0.069,2.3-0.068,3.452c0,0.087,0.181,0.238,0.29,0.249
		c0.363,0.039,0.731,0.034,1.097,0.034c5.044,0.002,10.088,0.007,15.132-0.001c1.116-0.002,2.195,0.017,3.256,0.519
		c1.393,0.657,2.866,1.144,4.283,1.753c0.324,0.139,0.629,0.432,0.827,0.73c0.49,0.737,0.919,1.515,1.361,2.283
		c0.39,0.678,0.824,1.341,1.131,2.057c0.334,0.779-0.061,1.62-0.809,1.974c-0.732,0.346-1.553,0.087-2.002-0.658
		c-0.634-1.052-1.237-2.122-1.883-3.166c-0.142-0.228-0.388-0.421-0.63-0.552c-0.342-0.184-0.724-0.296-1.089-0.438
		c-0.194-0.076-0.389-0.15-0.582-0.225c-0.023,0.031-0.046,0.061-0.069,0.092c0.213,0.607,0.418,1.216,0.638,1.82
		c0.33,0.904,0.593,1.843,1.027,2.693c0.476,0.931,1.106,1.783,1.691,2.655c0.088,0.131,0.299,0.252,0.455,0.254
		c1.34,0.013,2.681,0.012,4.022,0.014c0.037,1.05,0.09,2.095,0.16,3.136c-1.744-0.001-3.487-0.004-5.231,0.004
		c-0.711,0.004-1.286-0.26-1.738-0.786c-0.229-0.266-0.412-0.575-0.605-0.87c-0.581-0.891-1.161-1.783-1.734-2.678
		c-0.146-0.229-0.273-0.193-0.397,0.001c-0.074,0.116-0.128,0.247-0.184,0.374c-0.36,0.811-0.687,1.637-1.089,2.426
		c-0.26,0.512-0.226,0.926,0.149,1.333c0.035,0.037,0.065,0.078,0.094,0.119c0.953,1.358,1.923,2.703,2.848,4.078
		c0.402,0.597,0.454,1.273,0.031,1.897c-0.769,1.134-2.164,1.095-2.966-0.063c-1.224-1.765-2.436-3.541-3.685-5.289
		c-0.461-0.644-0.479-1.284-0.184-1.963c0.566-1.3,1.14-2.597,1.732-3.884c0.128-0.279,0.125-0.52,0.031-0.8
		c-0.608-1.825-1.211-3.652-1.799-5.484c-0.08-0.247-0.224-0.264-0.425-0.264c-4.247,0.002-8.493,0.004-12.739-0.002
		c-0.321,0-0.445,0.097-0.444,0.437c0.007,5.336-0.002,10.672,0.012,16.008c0.001,0.486,0.053,1.002,0.22,1.453
		c0.629,1.697,2.047,2.603,3.971,2.604c3.65,0.001,7.299,0,10.949,0c3.638,0,7.275,0.002,10.912-0.001
		c1.149-0.001,2.208-0.246,3.079-1.042c1.253,8.569,3.622,16.774,6.953,24.468c0,1.189-0.002,2.379-0.002,3.568
		c0,0.131,0.022,0.263,0.037,0.425c0.108-0.035,0.167-0.05,0.223-0.072c0.43-0.173,0.859-0.346,1.289-0.52
		c0.393,0.819,0.797,1.633,1.212,2.439c-0.814,0.325-1.628,0.652-2.443,0.977c-0.259,0.104-0.358,0.276-0.295,0.533
		c0.083,0.344,0.167,0.688,0.283,1.02c0.428,1.219,1.968,2.326,3.258,2.326c0.626,0,1.252-0.001,1.878,0
		c0.749,1.271,1.524,2.523,2.328,3.757c-1.256,0-2.513,0.001-3.769,0c-2.343-0.002-4.017,1.931-3.998,4.032
		c0.056,6.083,0.021,12.167,0.02,18.252c0,0.535-0.006,0.535,0.549,0.537c2.358,0,4.715,0.002,7.072,0
		c0.095,0,0.191-0.018,0.338-0.029c-0.114-0.244-0.201-0.451-0.307-0.646c-0.752-1.392-1.521-2.773-2.253-4.176
		c-0.183-0.352-0.353-0.761-0.358-1.146c-0.028-2.687-0.024-5.374-0.001-8.061c0.006-0.658,0.258-1.256,0.734-1.742
		c0.237-0.242,0.419-0.257,0.706-0.027c1.379,1.103,3.14,1.006,4.322-0.23c0.227-0.236,0.458-0.312,0.769-0.312
		c0.254,0,0.509,0,0.763,0c1.166,1.507,2.372,2.98,3.623,4.415c-0.819,0.63-1.667,1.226-2.502,1.834
		c-0.849,0.618-1.7,1.235-2.547,1.856c-0.221,0.162-0.37,0.696-0.201,0.955c0.076,0.118,0.339,0.155,0.518,0.157
		c1.305,0.013,2.61,0.002,3.915,0.011c0.699,0.006,1.273,0.38,1.476,0.992c0.094,0.282,0.118,0.596,0.119,0.896
		c0.009,2.534,0.007,5.069,0.002,7.604c0,0.24-0.016,0.481-0.056,0.718c-0.177,1.069-1.454,1.616-2.361,1.031
		c-0.603-0.39-0.78-0.957-0.778-1.629c0.005-2.066-0.004-4.132,0.01-6.198c0.002-0.337-0.109-0.438-0.438-0.433
		c-0.999,0.016-2,0.005-2.999,0.005h-0.673c0.047,0.144,0.062,0.23,0.101,0.304c0.731,1.361,1.479,2.712,2.189,4.081
		c0.216,0.418,0.433,0.882,0.462,1.336c0.047,0.736-0.677,1.53-1.69,1.518c-3.142-0.037-6.285-0.014-9.427-0.014
		c-0.279,0-0.561-0.021-0.835,0.016c-0.104,0.016-0.274,0.178-0.267,0.259c0.048,0.551,0.047,1.131,0.226,1.643
		c0.612,1.752,2.035,2.684,3.987,2.684c3.431,0.001,6.862-0.002,10.292-0.002c4.309-2.709,8.394-5.74,12.221-9.062
		c16.962,14.292,38.863,22.909,62.779,22.909c53.842,0,97.488-43.646,97.488-97.489C323.659,44.715,280.013,1.067,226.171,1.067z
		 M115.839,89.835c-1.38-0.065-2.607-1.354-2.577-2.783c0.033-1.52,1.284-2.699,2.829-2.666c1.55,0.033,2.689,1.223,2.678,2.759
		C118.759,88.515,117.555,89.915,115.839,89.835z M124.201,112.485c-1.519,0.004-2.762-1.254-2.768-2.799
		c-0.004-1.419,1.287-2.685,2.751-2.696c1.511-0.011,2.779,1.273,2.758,2.794C126.923,111.244,125.665,112.482,124.201,112.485z
		 M145.273,159.173c-1.606-0.019-2.929-1.335-2.816-2.965c0.09-1.317,1.343-2.529,2.752-2.518c0.21,0.002,0.411,0.026,0.604,0.069
		c0.704,1.022,1.423,2.035,2.165,3.029C147.787,158.091,146.57,159.188,145.273,159.173z M261.614,38.231h15.799
		c0.994,0,1.883,0.837,1.883,1.883c0,1.047-0.889,1.884-1.883,1.884h-6.016v29.661c0,1.046-0.837,1.883-1.884,1.883
		c-1.046,0-1.883-0.837-1.883-1.883V41.998h-6.016c-1.046,0-1.883-0.837-1.883-1.884C259.731,39.068,260.568,38.231,261.614,38.231z
		 M237.274,40.271c0-0.994,0.836-1.883,1.882-1.883s1.884,0.889,1.884,1.883v15.636l12.346-16.839
		c0.575-0.837,1.778-1.047,2.616-0.471c0.836,0.575,1.046,1.778,0.47,2.616l-9.887,14.177l9.887,15.223
		c0.576,0.889,0.366,2.041-0.523,2.616c-0.314,0.209-0.68,0.314-1.046,0.314c-0.576,0-1.203-0.314-1.57-0.837l-9.312-14.283
		l-2.981,4.077v9.161c0,1.046-0.838,1.883-1.884,1.883s-1.882-0.837-1.882-1.883V40.271z M192.278,47.908
		c0-5.388,4.394-9.782,9.782-9.782c5.388,0,9.782,4.394,9.782,9.782v23.645c0,1.046-0.889,1.883-1.883,1.883
		c-1.047,0-1.936-0.837-1.936-1.883v-9.964h-11.979v9.964c0,1.046-0.837,1.883-1.883,1.883c-1.046,0-1.883-0.837-1.883-1.883V47.908
		z M169.78,48.014c0-5.388,4.395-9.782,9.782-9.782c5.388,0,9.783,4.394,9.783,9.782c0,1.046-0.89,1.883-1.884,1.883
		c-1.046,0-1.935-0.837-1.935-1.883c0-3.348-2.668-6.016-5.964-6.016c-3.295,0-6.015,2.668-6.015,6.016V63.76
		c0,3.296,2.72,6.016,6.015,6.016c3.296,0,5.964-2.72,5.964-6.016c0-1.046,0.889-1.883,1.935-1.883c0.994,0,1.884,0.837,1.884,1.883
		c0,5.388-4.396,9.783-9.783,9.783c-5.387,0-9.782-4.395-9.782-9.783V48.014z M169.779,82.797c0-1.047,0.837-1.884,1.883-1.884
		h15.799c0.994,0,1.883,0.837,1.883,1.884v31.544c0,1.046-0.889,1.883-1.883,1.883c-1.046,0-1.936-0.837-1.936-1.883V84.647h-11.979
		v29.694c0,1.046-0.837,1.883-1.884,1.883c-1.046,0-1.883-0.837-1.883-1.883V82.797z M181.313,158.882h-9.627
		c-0.003,0-0.005-0.001-0.008-0.001c-0.003,0-0.006,0.001-0.009,0.001c-0.916,0-1.671-0.642-1.845-1.505
		c-0.028-0.128-0.044-0.262-0.044-0.401v-17.658h0.003c-0.002-6.943-0.003-13.392-0.003-13.862c0-1.046,0.837-1.884,1.883-1.884
		h15.801c0.995,0,1.884,0.838,1.884,1.884c0,1.047-0.889,1.883-1.884,1.883h-13.911v11.979h7.472c5.257,0,9.792,4.026,10.059,9.276
		C191.369,154.21,186.87,158.882,181.313,158.882z M192.278,114.341V82.797c0-1.047,0.837-1.884,1.883-1.884h15.798
		c0.994,0,1.884,0.837,1.884,1.884c0,1.046-0.89,1.883-1.884,1.883h-13.915v27.778h13.915c0.994,0,1.884,0.836,1.884,1.883
		c0,1.046-0.89,1.883-1.884,1.883h-15.798C193.115,116.224,192.278,115.387,192.278,114.341z M211.298,95.724l-8.127,8.127
		c-0.74,0.74-1.923,0.74-2.663,0c-0.74-0.74-0.74-1.924-0.001-2.664l8.127-8.126c0.704-0.703,1.924-0.74,2.664-0.001
		C212.038,93.801,212.001,95.021,211.298,95.724z M212.989,133.36v15.733c0,5.368-4.394,9.788-9.73,9.788
		c-5.388,0-9.73-4.42-9.73-9.788c0-1.053,0.837-1.895,1.883-1.895c1.046,0,1.884,0.842,1.884,1.895c0,3.315,2.667,5.999,5.963,5.999
		s5.964-2.684,5.964-5.999v-6.093c-1.674,1.264-3.715,2.053-5.964,2.053c-5.388,0-9.73-4.367-9.73-9.788v-9.8
		c0-1.053,0.837-1.894,1.883-1.894c1.046,0,1.884,0.841,1.884,1.894v9.8c0,3.315,2.667,5.999,5.963,5.999s5.964-2.684,5.964-5.999
		v-9.8c0-1.053,0.837-1.894,1.883-1.894c1.046,0,1.883,0.841,1.883,1.894V133.36z M214.775,40.14c0-1.046,0.838-1.883,1.885-1.883
		c1.046,0,1.882,0.837,1.882,1.883v17.8h11.979v-17.8c0-1.046,0.89-1.883,1.936-1.883c0.994,0,1.883,0.837,1.883,1.883v31.544
		c0,1.046-0.889,1.883-1.883,1.883c-1.046,0-1.936-0.837-1.936-1.883v-9.978h-11.979v9.978c0,1.046-0.836,1.883-1.882,1.883
		c-1.047,0-1.885-0.837-1.885-1.883V40.14z M214.776,82.797c0-1.047,0.837-1.884,1.883-1.884h15.799
		c0.994,0,1.883,0.837,1.883,1.884c0,1.046-0.889,1.883-1.883,1.883h-6.016v29.661c0,1.046-0.837,1.883-1.883,1.883
		c-1.047,0-1.883-0.837-1.883-1.883V84.68h-6.017C215.613,84.68,214.776,83.843,214.776,82.797z M227.168,143.137h-7.479v13.862
		c0,1.047-0.837,1.884-1.883,1.884c-1.046,0-1.883-0.837-1.883-1.884v-13.862v-17.66v-0.022c0-1.046,0.837-1.883,1.883-1.883
		c0.004,0,0.007,0.001,0.011,0.001s0.008-0.001,0.012-0.001h9.627c5.556,0,10.055,4.672,9.77,10.288
		C236.959,139.109,232.425,143.137,227.168,143.137z M237.274,114.341V82.797c0-1.047,0.837-1.884,1.883-1.884h15.798
		c0.994,0,1.884,0.837,1.884,1.884c0,1.046-0.89,1.883-1.884,1.883h-13.914v27.778h13.914c0.994,0,1.884,0.836,1.884,1.883
		c0,1.046-0.89,1.883-1.884,1.883h-15.798C238.112,116.224,237.274,115.387,237.274,114.341z M256.281,103.851
		c-0.74,0.741-1.923,0.741-2.663,0.001l-8.127-8.127c-0.703-0.703-0.74-1.923,0-2.664c0.74-0.739,1.96-0.702,2.664,0.001
		l8.126,8.126C257.021,101.928,257.021,103.111,256.281,103.851z M257.894,127.338h-13.913v29.661c0,1.046-0.837,1.883-1.884,1.883
		c-1.046,0-1.883-0.837-1.883-1.883c0,0-0.006-30.498-0.006-31.545c0-1.046,0.837-1.883,1.883-1.883h15.803
		c0.993,0,1.883,0.837,1.883,1.883C259.777,126.501,258.887,127.338,257.894,127.338z M271.019,100.493h-7.479v13.863
		c0,1.046-0.837,1.883-1.883,1.883c-1.047,0-1.883-0.837-1.883-1.883v-13.863V82.834v-0.022c0-1.046,0.836-1.883,1.883-1.883
		c0.004,0,0.007,0.001,0.011,0.001s0.008-0.001,0.012-0.001h9.627c5.556,0,10.055,4.672,9.77,10.288
		C280.81,96.467,276.276,100.493,271.019,100.493z"/>
</g>
</svg>
