<?xml version="1.0" encoding="utf-8"?>
<!-- Generator: Adobe Illustrator 16.0.0, SVG Export Plug-In . SVG Version: 6.00 Build 0)  -->
<!DOCTYPE svg PUBLIC "-//W3C//DTD SVG 1.1//EN" "http://www.w3.org/Graphics/SVG/1.1/DTD/svg11.dtd">
<svg version="1.1" id="Layer_1" xmlns="http://www.w3.org/2000/svg" xmlns:xlink="http://www.w3.org/1999/xlink" x="0px" y="0px"
	 width="194.978px" height="194.978px" viewBox="0 0 194.978 194.978" enable-background="new 0 0 194.978 194.978"
	 xml:space="preserve">
<path fill="#03A1AD" d="M194.978,97.49c0,53.842-43.646,97.488-97.488,97.488C43.648,194.978,0,151.333,0,97.49
	C0,43.649,43.648,0.001,97.49,0.001C151.332,0.001,194.978,43.649,194.978,97.49"/>
<path fill="#FFFFFF" d="M41.099,62.693V46.947c0-5.388,4.395-9.782,9.782-9.782c5.388,0,9.783,4.394,9.783,9.782
	c0,1.046-0.89,1.883-1.884,1.883c-1.046,0-1.935-0.837-1.935-1.883c0-3.348-2.668-6.016-5.964-6.016
	c-3.295,0-6.015,2.668-6.015,6.016v15.746c0,3.296,2.72,6.016,6.015,6.016c3.296,0,5.964-2.72,5.964-6.016
	c0-1.046,0.889-1.883,1.935-1.883c0.994,0,1.884,0.837,1.884,1.883c0,5.388-4.395,9.783-9.783,9.783
	C45.494,72.476,41.099,68.081,41.099,62.693 M126.222,72.476c0.366,0,0.732-0.105,1.046-0.314c0.89-0.575,1.099-1.727,0.522-2.616
	l-9.887-15.222l9.887-14.177c0.576-0.838,0.367-2.041-0.469-2.616c-0.839-0.576-2.041-0.366-2.617,0.471l-12.346,16.839V39.205
	c0-0.994-0.838-1.883-1.884-1.883s-1.882,0.889-1.882,1.883v31.388c0,1.046,0.836,1.883,1.882,1.883s1.884-0.837,1.884-1.883v-9.16
	l2.981-4.077l9.312,14.283C125.019,72.162,125.646,72.476,126.222,72.476 M148.732,40.932c0.993,0,1.883-0.837,1.883-1.884
	c0-1.046-0.89-1.883-1.883-1.883h-15.8c-1.046,0-1.883,0.837-1.883,1.883c0,1.047,0.837,1.884,1.883,1.884h6.017v29.661
	c0,1.046,0.836,1.883,1.883,1.883s1.884-0.837,1.884-1.883V40.932H148.732z M56.845,113.274c0,1.046,0.89,1.883,1.936,1.883
	c0.994,0,1.883-0.837,1.883-1.883V81.73c0-1.047-0.889-1.884-1.883-1.884H42.982c-1.046,0-1.883,0.837-1.883,1.884v31.544
	c0,1.046,0.837,1.883,1.883,1.883c1.047,0,1.884-0.837,1.884-1.883V83.58h11.979V113.274 M103.777,83.613
	c0.994,0,1.883-0.837,1.883-1.883c0-1.047-0.889-1.884-1.883-1.884H87.978c-1.046,0-1.883,0.837-1.883,1.884
	c0,1.046,0.837,1.883,1.883,1.883h6.017v29.661c0,1.046,0.836,1.883,1.883,1.883c1.046,0,1.883-0.837,1.883-1.883V83.613H103.777z
	 M81.278,115.157c0.994,0,1.884-0.837,1.884-1.883c0-1.047-0.89-1.883-1.884-1.883H67.363V83.613h13.915
	c0.994,0,1.884-0.837,1.884-1.883c0-1.047-0.89-1.884-1.884-1.884H65.48c-1.046,0-1.883,0.837-1.883,1.884v31.544
	c0,1.046,0.837,1.883,1.883,1.883H81.278z M82.617,94.657c0.703-0.703,0.74-1.923,0-2.664c-0.74-0.739-1.96-0.702-2.664,0.001
	l-8.127,8.126c-0.739,0.74-0.739,1.924,0.001,2.664c0.74,0.74,1.923,0.74,2.663,0L82.617,94.657z M126.275,115.157
	c0.994,0,1.884-0.837,1.884-1.883c0-1.047-0.89-1.883-1.884-1.883h-13.914V83.613h13.914c0.994,0,1.884-0.837,1.884-1.883
	c0-1.047-0.89-1.884-1.884-1.884h-15.799c-1.045,0-1.883,0.837-1.883,1.884v31.544c0,1.046,0.838,1.883,1.883,1.883H126.275z
	 M124.937,102.785c0.739,0.74,1.922,0.74,2.662-0.001c0.74-0.739,0.74-1.923,0-2.663l-8.125-8.126
	c-0.705-0.703-1.925-0.74-2.664-0.001c-0.74,0.741-0.703,1.961,0,2.664L124.937,102.785z M64.848,148.027
	c0,5.368,4.342,9.788,9.73,9.788c5.336,0,9.73-4.42,9.73-9.788v-15.733v-7.895c0-1.053-0.837-1.894-1.883-1.894
	c-1.046,0-1.883,0.841-1.883,1.894v9.8c0,3.315-2.668,5.999-5.964,5.999s-5.963-2.684-5.963-5.999v-9.8
	c0-1.053-0.838-1.894-1.884-1.894c-1.046,0-1.883,0.841-1.883,1.894v9.8c0,5.421,4.342,9.788,9.73,9.788
	c2.249,0,4.29-0.789,5.964-2.053v6.093c0,3.315-2.668,5.999-5.964,5.999s-5.963-2.684-5.963-5.999c0-1.053-0.838-1.895-1.884-1.895
	C65.685,146.132,64.848,146.974,64.848,148.027 M129.212,126.271c0.994,0,1.883-0.837,1.883-1.884c0-1.046-0.889-1.883-1.883-1.883
	H113.41c-1.045,0-1.883,0.837-1.883,1.883c0,1.047,0.006,31.545,0.006,31.545c0,1.046,0.838,1.883,1.883,1.883
	c1.048,0,1.885-0.837,1.885-1.883v-29.661H129.212z M98.775,122.504c5.557,0,10.055,4.672,9.77,10.288
	c-0.267,5.25-4.801,9.277-10.058,9.277h-7.479v13.862c0,1.047-0.837,1.884-1.883,1.884c-1.046,0-1.883-0.837-1.883-1.884V142.07
	v-17.66v-0.022c0-1.046,0.837-1.883,1.883-1.883c0.004,0,0.007,0.001,0.011,0.001s0.008-0.001,0.012-0.001H98.775 M98.775,138.302
	c3.348,0,6.016-2.72,6.016-6.016s-2.668-5.963-6.016-5.963h-7.767v11.979H98.775 M52.344,138.25c5.257,0,9.791,4.026,10.058,9.276
	c0.285,5.616-4.214,10.288-9.77,10.288h-9.627c-0.003,0-0.005-0.001-0.008-0.001c-0.003,0-0.006,0.001-0.009,0.001
	c-0.916,0-1.671-0.642-1.845-1.505c-0.028-0.128-0.044-0.262-0.044-0.401V138.25h0.003c-0.002-6.943-0.003-13.392-0.003-13.862
	c0-1.046,0.837-1.884,1.883-1.884h15.801c0.995,0,1.884,0.838,1.884,1.884c0,1.047-0.889,1.883-1.884,1.883H44.873v11.979H52.344
	 M52.632,153.997c3.348,0,6.016-2.668,6.016-5.964s-2.668-6.015-6.016-6.015h-7.76v11.979H52.632 M142.625,79.862
	c5.556,0,10.055,4.672,9.771,10.288c-0.268,5.25-4.802,9.276-10.059,9.276h-7.479v13.863c0,1.046-0.838,1.883-1.883,1.883
	c-1.048,0-1.884-0.837-1.884-1.883V99.426V81.768v-0.022c0-1.046,0.836-1.883,1.884-1.883c0.004,0,0.006,0.001,0.01,0.001
	s0.009-0.001,0.013-0.001H142.625 M142.625,95.661c3.349,0,6.017-2.72,6.017-6.016s-2.668-5.963-6.017-5.963h-7.767v11.979H142.625
	 M79.342,70.485c0,1.046,0.889,1.883,1.936,1.883c0.994,0,1.883-0.837,1.883-1.883V46.841c0-5.388-4.394-9.782-9.782-9.782
	c-5.388,0-9.782,4.394-9.782,9.782v23.644c0,1.046,0.837,1.883,1.883,1.883c1.046,0,1.883-0.837,1.883-1.883v-9.964h11.979V70.485
	 M79.342,56.755H67.363v-9.914c0-3.348,2.721-6.016,6.016-6.016c3.296,0,5.963,2.668,5.963,6.016V56.755z M101.84,70.617
	c0,1.046,0.89,1.883,1.937,1.883c0.994,0,1.883-0.837,1.883-1.883V39.073c0-1.046-0.889-1.883-1.883-1.883
	c-1.047,0-1.937,0.837-1.937,1.883v17.8H89.861v-17.8c0-1.046-0.836-1.883-1.882-1.883c-1.047,0-1.885,0.837-1.885,1.883v31.543
	c0,1.046,0.838,1.883,1.885,1.883c1.046,0,1.882-0.837,1.882-1.883V60.64h11.979V70.617"/>
</svg>
